<?xml version="1.0" encoding="utf-8" standalone="no"?>
<!DOCTYPE svg PUBLIC "-//W3C//DTD SVG 1.1//EN"
  "http://www.w3.org/Graphics/SVG/1.1/DTD/svg11.dtd">
<svg xmlns:xlink="http://www.w3.org/1999/xlink" width="460.8pt" height="345.6pt" viewBox="0 0 460.8 345.6" xmlns="http://www.w3.org/2000/svg" version="1.1">
 <metadata>
  <rdf:RDF xmlns:dc="http://purl.org/dc/elements/1.1/" xmlns:cc="http://creativecommons.org/ns#" xmlns:rdf="http://www.w3.org/1999/02/22-rdf-syntax-ns#">
   <cc:Work>
    <dc:type rdf:resource="http://purl.org/dc/dcmitype/StillImage"/>
    <dc:date>2024-03-26T09:18:10.816093</dc:date>
    <dc:format>image/svg+xml</dc:format>
    <dc:creator>
     <cc:Agent>
      <dc:title>Matplotlib v3.8.3, https://matplotlib.org/</dc:title>
     </cc:Agent>
    </dc:creator>
   </cc:Work>
  </rdf:RDF>
 </metadata>
 <defs>
  <style type="text/css">*{stroke-linejoin: round; stroke-linecap: butt}</style>
 </defs>
 <g id="figure_1">
  <g id="patch_1">
   <path d="M 0 345.6 
L 460.8 345.6 
L 460.8 0 
L 0 0 
z
" style="fill: #ffffff"/>
  </g>
  <g id="axes_1">
   <g id="patch_2">
    <path d="M 57.6 307.584 
L 414.72 307.584 
L 414.72 41.472 
L 57.6 41.472 
z
" style="fill: #ffffff"/>
   </g>
   <g id="matplotlib.axis_1">
    <g id="xtick_1">
     <g id="line2d_1">
      <path d="M 73.832727 307.584 
L 73.832727 41.472 
" clip-path="url(#p5958968dad)" style="fill: none; stroke: #b0b0b0; stroke-width: 0.8; stroke-linecap: square"/>
     </g>
     <g id="line2d_2">
      <defs>
       <path id="m286818b571" d="M 0 0 
L 0 3.5 
" style="stroke: #000000; stroke-width: 0.8"/>
      </defs>
      <g>
       <use xlink:href="#m286818b571" x="73.832727" y="307.584" style="stroke: #000000; stroke-width: 0.8"/>
      </g>
     </g>
     <g id="text_1">
      <!-- 0 -->
      <g transform="translate(70.651477 322.182437) scale(0.1 -0.1)">
       <defs>
        <path id="DejaVuSans-30" d="M 2034 4250 
Q 1547 4250 1301 3770 
Q 1056 3291 1056 2328 
Q 1056 1369 1301 889 
Q 1547 409 2034 409 
Q 2525 409 2770 889 
Q 3016 1369 3016 2328 
Q 3016 3291 2770 3770 
Q 2525 4250 2034 4250 
z
M 2034 4750 
Q 2819 4750 3233 4129 
Q 3647 3509 3647 2328 
Q 3647 1150 3233 529 
Q 2819 -91 2034 -91 
Q 1250 -91 836 529 
Q 422 1150 422 2328 
Q 422 3509 836 4129 
Q 1250 4750 2034 4750 
z
" transform="scale(0.015625)"/>
       </defs>
       <use xlink:href="#DejaVuSans-30"/>
      </g>
     </g>
    </g>
    <g id="xtick_2">
     <g id="line2d_3">
      <path d="M 126.196364 307.584 
L 126.196364 41.472 
" clip-path="url(#p5958968dad)" style="fill: none; stroke: #b0b0b0; stroke-width: 0.8; stroke-linecap: square"/>
     </g>
     <g id="line2d_4">
      <g>
       <use xlink:href="#m286818b571" x="126.196364" y="307.584" style="stroke: #000000; stroke-width: 0.8"/>
      </g>
     </g>
     <g id="text_2">
      <!-- 5 -->
      <g transform="translate(123.015114 322.182437) scale(0.1 -0.1)">
       <defs>
        <path id="DejaVuSans-35" d="M 691 4666 
L 3169 4666 
L 3169 4134 
L 1269 4134 
L 1269 2991 
Q 1406 3038 1543 3061 
Q 1681 3084 1819 3084 
Q 2600 3084 3056 2656 
Q 3513 2228 3513 1497 
Q 3513 744 3044 326 
Q 2575 -91 1722 -91 
Q 1428 -91 1123 -41 
Q 819 9 494 109 
L 494 744 
Q 775 591 1075 516 
Q 1375 441 1709 441 
Q 2250 441 2565 725 
Q 2881 1009 2881 1497 
Q 2881 1984 2565 2268 
Q 2250 2553 1709 2553 
Q 1456 2553 1204 2497 
Q 953 2441 691 2322 
L 691 4666 
z
" transform="scale(0.015625)"/>
       </defs>
       <use xlink:href="#DejaVuSans-35"/>
      </g>
     </g>
    </g>
    <g id="xtick_3">
     <g id="line2d_5">
      <path d="M 178.56 307.584 
L 178.56 41.472 
" clip-path="url(#p5958968dad)" style="fill: none; stroke: #b0b0b0; stroke-width: 0.8; stroke-linecap: square"/>
     </g>
     <g id="line2d_6">
      <g>
       <use xlink:href="#m286818b571" x="178.56" y="307.584" style="stroke: #000000; stroke-width: 0.8"/>
      </g>
     </g>
     <g id="text_3">
      <!-- 10 -->
      <g transform="translate(172.1975 322.182437) scale(0.1 -0.1)">
       <defs>
        <path id="DejaVuSans-31" d="M 794 531 
L 1825 531 
L 1825 4091 
L 703 3866 
L 703 4441 
L 1819 4666 
L 2450 4666 
L 2450 531 
L 3481 531 
L 3481 0 
L 794 0 
L 794 531 
z
" transform="scale(0.015625)"/>
       </defs>
       <use xlink:href="#DejaVuSans-31"/>
       <use xlink:href="#DejaVuSans-30" x="63.623047"/>
      </g>
     </g>
    </g>
    <g id="xtick_4">
     <g id="line2d_7">
      <path d="M 230.923636 307.584 
L 230.923636 41.472 
" clip-path="url(#p5958968dad)" style="fill: none; stroke: #b0b0b0; stroke-width: 0.8; stroke-linecap: square"/>
     </g>
     <g id="line2d_8">
      <g>
       <use xlink:href="#m286818b571" x="230.923636" y="307.584" style="stroke: #000000; stroke-width: 0.8"/>
      </g>
     </g>
     <g id="text_4">
      <!-- 15 -->
      <g transform="translate(224.561136 322.182437) scale(0.1 -0.1)">
       <use xlink:href="#DejaVuSans-31"/>
       <use xlink:href="#DejaVuSans-35" x="63.623047"/>
      </g>
     </g>
    </g>
    <g id="xtick_5">
     <g id="line2d_9">
      <path d="M 283.287273 307.584 
L 283.287273 41.472 
" clip-path="url(#p5958968dad)" style="fill: none; stroke: #b0b0b0; stroke-width: 0.8; stroke-linecap: square"/>
     </g>
     <g id="line2d_10">
      <g>
       <use xlink:href="#m286818b571" x="283.287273" y="307.584" style="stroke: #000000; stroke-width: 0.8"/>
      </g>
     </g>
     <g id="text_5">
      <!-- 20 -->
      <g transform="translate(276.924773 322.182437) scale(0.1 -0.1)">
       <defs>
        <path id="DejaVuSans-32" d="M 1228 531 
L 3431 531 
L 3431 0 
L 469 0 
L 469 531 
Q 828 903 1448 1529 
Q 2069 2156 2228 2338 
Q 2531 2678 2651 2914 
Q 2772 3150 2772 3378 
Q 2772 3750 2511 3984 
Q 2250 4219 1831 4219 
Q 1534 4219 1204 4116 
Q 875 4013 500 3803 
L 500 4441 
Q 881 4594 1212 4672 
Q 1544 4750 1819 4750 
Q 2544 4750 2975 4387 
Q 3406 4025 3406 3419 
Q 3406 3131 3298 2873 
Q 3191 2616 2906 2266 
Q 2828 2175 2409 1742 
Q 1991 1309 1228 531 
z
" transform="scale(0.015625)"/>
       </defs>
       <use xlink:href="#DejaVuSans-32"/>
       <use xlink:href="#DejaVuSans-30" x="63.623047"/>
      </g>
     </g>
    </g>
    <g id="xtick_6">
     <g id="line2d_11">
      <path d="M 335.650909 307.584 
L 335.650909 41.472 
" clip-path="url(#p5958968dad)" style="fill: none; stroke: #b0b0b0; stroke-width: 0.8; stroke-linecap: square"/>
     </g>
     <g id="line2d_12">
      <g>
       <use xlink:href="#m286818b571" x="335.650909" y="307.584" style="stroke: #000000; stroke-width: 0.8"/>
      </g>
     </g>
     <g id="text_6">
      <!-- 25 -->
      <g transform="translate(329.288409 322.182437) scale(0.1 -0.1)">
       <use xlink:href="#DejaVuSans-32"/>
       <use xlink:href="#DejaVuSans-35" x="63.623047"/>
      </g>
     </g>
    </g>
    <g id="xtick_7">
     <g id="line2d_13">
      <path d="M 388.014545 307.584 
L 388.014545 41.472 
" clip-path="url(#p5958968dad)" style="fill: none; stroke: #b0b0b0; stroke-width: 0.8; stroke-linecap: square"/>
     </g>
     <g id="line2d_14">
      <g>
       <use xlink:href="#m286818b571" x="388.014545" y="307.584" style="stroke: #000000; stroke-width: 0.8"/>
      </g>
     </g>
     <g id="text_7">
      <!-- 30 -->
      <g transform="translate(381.652045 322.182437) scale(0.1 -0.1)">
       <defs>
        <path id="DejaVuSans-33" d="M 2597 2516 
Q 3050 2419 3304 2112 
Q 3559 1806 3559 1356 
Q 3559 666 3084 287 
Q 2609 -91 1734 -91 
Q 1441 -91 1130 -33 
Q 819 25 488 141 
L 488 750 
Q 750 597 1062 519 
Q 1375 441 1716 441 
Q 2309 441 2620 675 
Q 2931 909 2931 1356 
Q 2931 1769 2642 2001 
Q 2353 2234 1838 2234 
L 1294 2234 
L 1294 2753 
L 1863 2753 
Q 2328 2753 2575 2939 
Q 2822 3125 2822 3475 
Q 2822 3834 2567 4026 
Q 2313 4219 1838 4219 
Q 1578 4219 1281 4162 
Q 984 4106 628 3988 
L 628 4550 
Q 988 4650 1302 4700 
Q 1616 4750 1894 4750 
Q 2613 4750 3031 4423 
Q 3450 4097 3450 3541 
Q 3450 3153 3228 2886 
Q 3006 2619 2597 2516 
z
" transform="scale(0.015625)"/>
       </defs>
       <use xlink:href="#DejaVuSans-33"/>
       <use xlink:href="#DejaVuSans-30" x="63.623047"/>
      </g>
     </g>
    </g>
    <g id="text_8">
     <!-- Layer -->
     <g transform="translate(222.218594 335.860562) scale(0.1 -0.1)">
      <defs>
       <path id="DejaVuSans-4c" d="M 628 4666 
L 1259 4666 
L 1259 531 
L 3531 531 
L 3531 0 
L 628 0 
L 628 4666 
z
" transform="scale(0.015625)"/>
       <path id="DejaVuSans-61" d="M 2194 1759 
Q 1497 1759 1228 1600 
Q 959 1441 959 1056 
Q 959 750 1161 570 
Q 1363 391 1709 391 
Q 2188 391 2477 730 
Q 2766 1069 2766 1631 
L 2766 1759 
L 2194 1759 
z
M 3341 1997 
L 3341 0 
L 2766 0 
L 2766 531 
Q 2569 213 2275 61 
Q 1981 -91 1556 -91 
Q 1019 -91 701 211 
Q 384 513 384 1019 
Q 384 1609 779 1909 
Q 1175 2209 1959 2209 
L 2766 2209 
L 2766 2266 
Q 2766 2663 2505 2880 
Q 2244 3097 1772 3097 
Q 1472 3097 1187 3025 
Q 903 2953 641 2809 
L 641 3341 
Q 956 3463 1253 3523 
Q 1550 3584 1831 3584 
Q 2591 3584 2966 3190 
Q 3341 2797 3341 1997 
z
" transform="scale(0.015625)"/>
       <path id="DejaVuSans-79" d="M 2059 -325 
Q 1816 -950 1584 -1140 
Q 1353 -1331 966 -1331 
L 506 -1331 
L 506 -850 
L 844 -850 
Q 1081 -850 1212 -737 
Q 1344 -625 1503 -206 
L 1606 56 
L 191 3500 
L 800 3500 
L 1894 763 
L 2988 3500 
L 3597 3500 
L 2059 -325 
z
" transform="scale(0.015625)"/>
       <path id="DejaVuSans-65" d="M 3597 1894 
L 3597 1613 
L 953 1613 
Q 991 1019 1311 708 
Q 1631 397 2203 397 
Q 2534 397 2845 478 
Q 3156 559 3463 722 
L 3463 178 
Q 3153 47 2828 -22 
Q 2503 -91 2169 -91 
Q 1331 -91 842 396 
Q 353 884 353 1716 
Q 353 2575 817 3079 
Q 1281 3584 2069 3584 
Q 2775 3584 3186 3129 
Q 3597 2675 3597 1894 
z
M 3022 2063 
Q 3016 2534 2758 2815 
Q 2500 3097 2075 3097 
Q 1594 3097 1305 2825 
Q 1016 2553 972 2059 
L 3022 2063 
z
" transform="scale(0.015625)"/>
       <path id="DejaVuSans-72" d="M 2631 2963 
Q 2534 3019 2420 3045 
Q 2306 3072 2169 3072 
Q 1681 3072 1420 2755 
Q 1159 2438 1159 1844 
L 1159 0 
L 581 0 
L 581 3500 
L 1159 3500 
L 1159 2956 
Q 1341 3275 1631 3429 
Q 1922 3584 2338 3584 
Q 2397 3584 2469 3576 
Q 2541 3569 2628 3553 
L 2631 2963 
z
" transform="scale(0.015625)"/>
      </defs>
      <use xlink:href="#DejaVuSans-4c"/>
      <use xlink:href="#DejaVuSans-61" x="55.712891"/>
      <use xlink:href="#DejaVuSans-79" x="116.992188"/>
      <use xlink:href="#DejaVuSans-65" x="176.171875"/>
      <use xlink:href="#DejaVuSans-72" x="237.695312"/>
     </g>
    </g>
   </g>
   <g id="matplotlib.axis_2">
    <g id="ytick_1">
     <g id="line2d_15">
      <path d="M 57.6 292.337497 
L 414.72 292.337497 
" clip-path="url(#p5958968dad)" style="fill: none; stroke: #b0b0b0; stroke-width: 0.8; stroke-linecap: square"/>
     </g>
     <g id="line2d_16">
      <defs>
       <path id="m382d9928d8" d="M 0 0 
L -3.5 0 
" style="stroke: #000000; stroke-width: 0.8"/>
      </defs>
      <g>
       <use xlink:href="#m382d9928d8" x="57.6" y="292.337497" style="stroke: #000000; stroke-width: 0.8"/>
      </g>
     </g>
     <g id="text_9">
      <!-- −20 -->
      <g transform="translate(29.495313 296.136716) scale(0.1 -0.1)">
       <defs>
        <path id="DejaVuSans-2212" d="M 678 2272 
L 4684 2272 
L 4684 1741 
L 678 1741 
L 678 2272 
z
" transform="scale(0.015625)"/>
       </defs>
       <use xlink:href="#DejaVuSans-2212"/>
       <use xlink:href="#DejaVuSans-32" x="83.789062"/>
       <use xlink:href="#DejaVuSans-30" x="147.412109"/>
      </g>
     </g>
    </g>
    <g id="ytick_2">
     <g id="line2d_17">
      <path d="M 57.6 233.570229 
L 414.72 233.570229 
" clip-path="url(#p5958968dad)" style="fill: none; stroke: #b0b0b0; stroke-width: 0.8; stroke-linecap: square"/>
     </g>
     <g id="line2d_18">
      <g>
       <use xlink:href="#m382d9928d8" x="57.6" y="233.570229" style="stroke: #000000; stroke-width: 0.8"/>
      </g>
     </g>
     <g id="text_10">
      <!-- 0 -->
      <g transform="translate(44.2375 237.369448) scale(0.1 -0.1)">
       <use xlink:href="#DejaVuSans-30"/>
      </g>
     </g>
    </g>
    <g id="ytick_3">
     <g id="line2d_19">
      <path d="M 57.6 174.802961 
L 414.72 174.802961 
" clip-path="url(#p5958968dad)" style="fill: none; stroke: #b0b0b0; stroke-width: 0.8; stroke-linecap: square"/>
     </g>
     <g id="line2d_20">
      <g>
       <use xlink:href="#m382d9928d8" x="57.6" y="174.802961" style="stroke: #000000; stroke-width: 0.8"/>
      </g>
     </g>
     <g id="text_11">
      <!-- 20 -->
      <g transform="translate(37.875 178.60218) scale(0.1 -0.1)">
       <use xlink:href="#DejaVuSans-32"/>
       <use xlink:href="#DejaVuSans-30" x="63.623047"/>
      </g>
     </g>
    </g>
    <g id="ytick_4">
     <g id="line2d_21">
      <path d="M 57.6 116.035692 
L 414.72 116.035692 
" clip-path="url(#p5958968dad)" style="fill: none; stroke: #b0b0b0; stroke-width: 0.8; stroke-linecap: square"/>
     </g>
     <g id="line2d_22">
      <g>
       <use xlink:href="#m382d9928d8" x="57.6" y="116.035692" style="stroke: #000000; stroke-width: 0.8"/>
      </g>
     </g>
     <g id="text_12">
      <!-- 40 -->
      <g transform="translate(37.875 119.834911) scale(0.1 -0.1)">
       <defs>
        <path id="DejaVuSans-34" d="M 2419 4116 
L 825 1625 
L 2419 1625 
L 2419 4116 
z
M 2253 4666 
L 3047 4666 
L 3047 1625 
L 3713 1625 
L 3713 1100 
L 3047 1100 
L 3047 0 
L 2419 0 
L 2419 1100 
L 313 1100 
L 313 1709 
L 2253 4666 
z
" transform="scale(0.015625)"/>
       </defs>
       <use xlink:href="#DejaVuSans-34"/>
       <use xlink:href="#DejaVuSans-30" x="63.623047"/>
      </g>
     </g>
    </g>
    <g id="ytick_5">
     <g id="line2d_23">
      <path d="M 57.6 57.268424 
L 414.72 57.268424 
" clip-path="url(#p5958968dad)" style="fill: none; stroke: #b0b0b0; stroke-width: 0.8; stroke-linecap: square"/>
     </g>
     <g id="line2d_24">
      <g>
       <use xlink:href="#m382d9928d8" x="57.6" y="57.268424" style="stroke: #000000; stroke-width: 0.8"/>
      </g>
     </g>
     <g id="text_13">
      <!-- 60 -->
      <g transform="translate(37.875 61.067643) scale(0.1 -0.1)">
       <defs>
        <path id="DejaVuSans-36" d="M 2113 2584 
Q 1688 2584 1439 2293 
Q 1191 2003 1191 1497 
Q 1191 994 1439 701 
Q 1688 409 2113 409 
Q 2538 409 2786 701 
Q 3034 994 3034 1497 
Q 3034 2003 2786 2293 
Q 2538 2584 2113 2584 
z
M 3366 4563 
L 3366 3988 
Q 3128 4100 2886 4159 
Q 2644 4219 2406 4219 
Q 1781 4219 1451 3797 
Q 1122 3375 1075 2522 
Q 1259 2794 1537 2939 
Q 1816 3084 2150 3084 
Q 2853 3084 3261 2657 
Q 3669 2231 3669 1497 
Q 3669 778 3244 343 
Q 2819 -91 2113 -91 
Q 1303 -91 875 529 
Q 447 1150 447 2328 
Q 447 3434 972 4092 
Q 1497 4750 2381 4750 
Q 2619 4750 2861 4703 
Q 3103 4656 3366 4563 
z
" transform="scale(0.015625)"/>
       </defs>
       <use xlink:href="#DejaVuSans-36"/>
       <use xlink:href="#DejaVuSans-30" x="63.623047"/>
      </g>
     </g>
    </g>
    <g id="text_14">
     <!-- Delta p(answer not having B or A) -->
     <g transform="translate(23.415625 259.614719) rotate(-90) scale(0.1 -0.1)">
      <defs>
       <path id="DejaVuSans-44" d="M 1259 4147 
L 1259 519 
L 2022 519 
Q 2988 519 3436 956 
Q 3884 1394 3884 2338 
Q 3884 3275 3436 3711 
Q 2988 4147 2022 4147 
L 1259 4147 
z
M 628 4666 
L 1925 4666 
Q 3281 4666 3915 4102 
Q 4550 3538 4550 2338 
Q 4550 1131 3912 565 
Q 3275 0 1925 0 
L 628 0 
L 628 4666 
z
" transform="scale(0.015625)"/>
       <path id="DejaVuSans-6c" d="M 603 4863 
L 1178 4863 
L 1178 0 
L 603 0 
L 603 4863 
z
" transform="scale(0.015625)"/>
       <path id="DejaVuSans-74" d="M 1172 4494 
L 1172 3500 
L 2356 3500 
L 2356 3053 
L 1172 3053 
L 1172 1153 
Q 1172 725 1289 603 
Q 1406 481 1766 481 
L 2356 481 
L 2356 0 
L 1766 0 
Q 1100 0 847 248 
Q 594 497 594 1153 
L 594 3053 
L 172 3053 
L 172 3500 
L 594 3500 
L 594 4494 
L 1172 4494 
z
" transform="scale(0.015625)"/>
       <path id="DejaVuSans-20" transform="scale(0.015625)"/>
       <path id="DejaVuSans-70" d="M 1159 525 
L 1159 -1331 
L 581 -1331 
L 581 3500 
L 1159 3500 
L 1159 2969 
Q 1341 3281 1617 3432 
Q 1894 3584 2278 3584 
Q 2916 3584 3314 3078 
Q 3713 2572 3713 1747 
Q 3713 922 3314 415 
Q 2916 -91 2278 -91 
Q 1894 -91 1617 61 
Q 1341 213 1159 525 
z
M 3116 1747 
Q 3116 2381 2855 2742 
Q 2594 3103 2138 3103 
Q 1681 3103 1420 2742 
Q 1159 2381 1159 1747 
Q 1159 1113 1420 752 
Q 1681 391 2138 391 
Q 2594 391 2855 752 
Q 3116 1113 3116 1747 
z
" transform="scale(0.015625)"/>
       <path id="DejaVuSans-28" d="M 1984 4856 
Q 1566 4138 1362 3434 
Q 1159 2731 1159 2009 
Q 1159 1288 1364 580 
Q 1569 -128 1984 -844 
L 1484 -844 
Q 1016 -109 783 600 
Q 550 1309 550 2009 
Q 550 2706 781 3412 
Q 1013 4119 1484 4856 
L 1984 4856 
z
" transform="scale(0.015625)"/>
       <path id="DejaVuSans-6e" d="M 3513 2113 
L 3513 0 
L 2938 0 
L 2938 2094 
Q 2938 2591 2744 2837 
Q 2550 3084 2163 3084 
Q 1697 3084 1428 2787 
Q 1159 2491 1159 1978 
L 1159 0 
L 581 0 
L 581 3500 
L 1159 3500 
L 1159 2956 
Q 1366 3272 1645 3428 
Q 1925 3584 2291 3584 
Q 2894 3584 3203 3211 
Q 3513 2838 3513 2113 
z
" transform="scale(0.015625)"/>
       <path id="DejaVuSans-73" d="M 2834 3397 
L 2834 2853 
Q 2591 2978 2328 3040 
Q 2066 3103 1784 3103 
Q 1356 3103 1142 2972 
Q 928 2841 928 2578 
Q 928 2378 1081 2264 
Q 1234 2150 1697 2047 
L 1894 2003 
Q 2506 1872 2764 1633 
Q 3022 1394 3022 966 
Q 3022 478 2636 193 
Q 2250 -91 1575 -91 
Q 1294 -91 989 -36 
Q 684 19 347 128 
L 347 722 
Q 666 556 975 473 
Q 1284 391 1588 391 
Q 1994 391 2212 530 
Q 2431 669 2431 922 
Q 2431 1156 2273 1281 
Q 2116 1406 1581 1522 
L 1381 1569 
Q 847 1681 609 1914 
Q 372 2147 372 2553 
Q 372 3047 722 3315 
Q 1072 3584 1716 3584 
Q 2034 3584 2315 3537 
Q 2597 3491 2834 3397 
z
" transform="scale(0.015625)"/>
       <path id="DejaVuSans-77" d="M 269 3500 
L 844 3500 
L 1563 769 
L 2278 3500 
L 2956 3500 
L 3675 769 
L 4391 3500 
L 4966 3500 
L 4050 0 
L 3372 0 
L 2619 2869 
L 1863 0 
L 1184 0 
L 269 3500 
z
" transform="scale(0.015625)"/>
       <path id="DejaVuSans-6f" d="M 1959 3097 
Q 1497 3097 1228 2736 
Q 959 2375 959 1747 
Q 959 1119 1226 758 
Q 1494 397 1959 397 
Q 2419 397 2687 759 
Q 2956 1122 2956 1747 
Q 2956 2369 2687 2733 
Q 2419 3097 1959 3097 
z
M 1959 3584 
Q 2709 3584 3137 3096 
Q 3566 2609 3566 1747 
Q 3566 888 3137 398 
Q 2709 -91 1959 -91 
Q 1206 -91 779 398 
Q 353 888 353 1747 
Q 353 2609 779 3096 
Q 1206 3584 1959 3584 
z
" transform="scale(0.015625)"/>
       <path id="DejaVuSans-68" d="M 3513 2113 
L 3513 0 
L 2938 0 
L 2938 2094 
Q 2938 2591 2744 2837 
Q 2550 3084 2163 3084 
Q 1697 3084 1428 2787 
Q 1159 2491 1159 1978 
L 1159 0 
L 581 0 
L 581 4863 
L 1159 4863 
L 1159 2956 
Q 1366 3272 1645 3428 
Q 1925 3584 2291 3584 
Q 2894 3584 3203 3211 
Q 3513 2838 3513 2113 
z
" transform="scale(0.015625)"/>
       <path id="DejaVuSans-76" d="M 191 3500 
L 800 3500 
L 1894 563 
L 2988 3500 
L 3597 3500 
L 2284 0 
L 1503 0 
L 191 3500 
z
" transform="scale(0.015625)"/>
       <path id="DejaVuSans-69" d="M 603 3500 
L 1178 3500 
L 1178 0 
L 603 0 
L 603 3500 
z
M 603 4863 
L 1178 4863 
L 1178 4134 
L 603 4134 
L 603 4863 
z
" transform="scale(0.015625)"/>
       <path id="DejaVuSans-67" d="M 2906 1791 
Q 2906 2416 2648 2759 
Q 2391 3103 1925 3103 
Q 1463 3103 1205 2759 
Q 947 2416 947 1791 
Q 947 1169 1205 825 
Q 1463 481 1925 481 
Q 2391 481 2648 825 
Q 2906 1169 2906 1791 
z
M 3481 434 
Q 3481 -459 3084 -895 
Q 2688 -1331 1869 -1331 
Q 1566 -1331 1297 -1286 
Q 1028 -1241 775 -1147 
L 775 -588 
Q 1028 -725 1275 -790 
Q 1522 -856 1778 -856 
Q 2344 -856 2625 -561 
Q 2906 -266 2906 331 
L 2906 616 
Q 2728 306 2450 153 
Q 2172 0 1784 0 
Q 1141 0 747 490 
Q 353 981 353 1791 
Q 353 2603 747 3093 
Q 1141 3584 1784 3584 
Q 2172 3584 2450 3431 
Q 2728 3278 2906 2969 
L 2906 3500 
L 3481 3500 
L 3481 434 
z
" transform="scale(0.015625)"/>
       <path id="DejaVuSans-42" d="M 1259 2228 
L 1259 519 
L 2272 519 
Q 2781 519 3026 730 
Q 3272 941 3272 1375 
Q 3272 1813 3026 2020 
Q 2781 2228 2272 2228 
L 1259 2228 
z
M 1259 4147 
L 1259 2741 
L 2194 2741 
Q 2656 2741 2882 2914 
Q 3109 3088 3109 3444 
Q 3109 3797 2882 3972 
Q 2656 4147 2194 4147 
L 1259 4147 
z
M 628 4666 
L 2241 4666 
Q 2963 4666 3353 4366 
Q 3744 4066 3744 3513 
Q 3744 3084 3544 2831 
Q 3344 2578 2956 2516 
Q 3422 2416 3680 2098 
Q 3938 1781 3938 1306 
Q 3938 681 3513 340 
Q 3088 0 2303 0 
L 628 0 
L 628 4666 
z
" transform="scale(0.015625)"/>
       <path id="DejaVuSans-41" d="M 2188 4044 
L 1331 1722 
L 3047 1722 
L 2188 4044 
z
M 1831 4666 
L 2547 4666 
L 4325 0 
L 3669 0 
L 3244 1197 
L 1141 1197 
L 716 0 
L 50 0 
L 1831 4666 
z
" transform="scale(0.015625)"/>
       <path id="DejaVuSans-29" d="M 513 4856 
L 1013 4856 
Q 1481 4119 1714 3412 
Q 1947 2706 1947 2009 
Q 1947 1309 1714 600 
Q 1481 -109 1013 -844 
L 513 -844 
Q 928 -128 1133 580 
Q 1338 1288 1338 2009 
Q 1338 2731 1133 3434 
Q 928 4138 513 4856 
z
" transform="scale(0.015625)"/>
      </defs>
      <use xlink:href="#DejaVuSans-44"/>
      <use xlink:href="#DejaVuSans-65" x="77.001953"/>
      <use xlink:href="#DejaVuSans-6c" x="138.525391"/>
      <use xlink:href="#DejaVuSans-74" x="166.308594"/>
      <use xlink:href="#DejaVuSans-61" x="205.517578"/>
      <use xlink:href="#DejaVuSans-20" x="266.796875"/>
      <use xlink:href="#DejaVuSans-70" x="298.583984"/>
      <use xlink:href="#DejaVuSans-28" x="362.060547"/>
      <use xlink:href="#DejaVuSans-61" x="401.074219"/>
      <use xlink:href="#DejaVuSans-6e" x="462.353516"/>
      <use xlink:href="#DejaVuSans-73" x="525.732422"/>
      <use xlink:href="#DejaVuSans-77" x="577.832031"/>
      <use xlink:href="#DejaVuSans-65" x="659.619141"/>
      <use xlink:href="#DejaVuSans-72" x="721.142578"/>
      <use xlink:href="#DejaVuSans-20" x="762.255859"/>
      <use xlink:href="#DejaVuSans-6e" x="794.042969"/>
      <use xlink:href="#DejaVuSans-6f" x="857.421875"/>
      <use xlink:href="#DejaVuSans-74" x="918.603516"/>
      <use xlink:href="#DejaVuSans-20" x="957.8125"/>
      <use xlink:href="#DejaVuSans-68" x="989.599609"/>
      <use xlink:href="#DejaVuSans-61" x="1052.978516"/>
      <use xlink:href="#DejaVuSans-76" x="1114.257812"/>
      <use xlink:href="#DejaVuSans-69" x="1173.4375"/>
      <use xlink:href="#DejaVuSans-6e" x="1201.220703"/>
      <use xlink:href="#DejaVuSans-67" x="1264.599609"/>
      <use xlink:href="#DejaVuSans-20" x="1328.076172"/>
      <use xlink:href="#DejaVuSans-42" x="1359.863281"/>
      <use xlink:href="#DejaVuSans-20" x="1428.466797"/>
      <use xlink:href="#DejaVuSans-6f" x="1460.253906"/>
      <use xlink:href="#DejaVuSans-72" x="1521.435547"/>
      <use xlink:href="#DejaVuSans-20" x="1562.548828"/>
      <use xlink:href="#DejaVuSans-41" x="1594.335938"/>
      <use xlink:href="#DejaVuSans-29" x="1662.744141"/>
     </g>
    </g>
   </g>
   <g id="line2d_25">
    <path d="M 73.832727 233.570229 
L 84.305455 233.652778 
L 94.778182 233.722863 
L 105.250909 233.960804 
L 115.723636 233.919592 
L 126.196364 233.9939 
L 136.669091 236.758873 
L 147.141818 234.412293 
L 157.614545 234.80646 
L 168.087273 233.746077 
L 178.56 210.882325 
L 189.032727 177.878221 
L 199.505455 183.738173 
L 209.978182 179.360762 
L 220.450909 195.882155 
L 230.923636 201.948834 
L 241.396364 207.652513 
L 251.869091 217.297459 
L 262.341818 201.346528 
L 272.814545 198.027351 
L 283.287273 203.403671 
L 293.76 210.396779 
L 304.232727 213.445852 
L 314.705455 215.285577 
L 325.178182 211.892776 
L 335.650909 217.818846 
L 346.123636 213.898216 
L 356.596364 216.921916 
L 367.069091 216.186175 
L 377.541818 219.726759 
L 388.014545 222.3703 
L 398.487273 222.352544 
" clip-path="url(#p5958968dad)" style="fill: none; stroke: #1f77b4; stroke-width: 2; stroke-linecap: square"/>
   </g>
   <g id="line2d_26">
    <path d="M 73.832727 233.570229 
L 84.305455 232.920882 
L 94.778182 233.099491 
L 105.250909 232.665958 
L 115.723636 232.426349 
L 126.196364 232.624772 
L 136.669091 230.297093 
L 147.141818 232.164726 
L 157.614545 231.859358 
L 168.087273 234.141593 
L 178.56 255.613369 
L 189.032727 295.488 
L 199.505455 266.987137 
L 209.978182 284.317414 
L 220.450909 263.959674 
L 230.923636 265.569609 
L 241.396364 254.198359 
L 251.869091 247.136227 
L 262.341818 257.887655 
L 272.814545 260.77234 
L 283.287273 258.05324 
L 293.76 254.009119 
L 304.232727 251.856723 
L 314.705455 250.901107 
L 325.178182 253.144713 
L 335.650909 247.919232 
L 346.123636 249.83879 
L 356.596364 250.521626 
L 367.069091 250.00782 
L 377.541818 246.467088 
L 388.014545 242.944842 
L 398.487273 241.145343 
" clip-path="url(#p5958968dad)" style="fill: none; stroke: #ff7f0e; stroke-width: 3; stroke-linecap: square"/>
   </g>
   <g id="line2d_27">
    <path d="M 73.832727 233.570229 
L 84.305455 231.782521 
L 94.778182 232.536202 
L 105.250909 232.707156 
L 115.723636 231.48919 
L 126.196364 232.488893 
L 136.669091 236.277477 
L 147.141818 226.292841 
L 157.614545 232.586952 
L 168.087273 241.429909 
L 178.56 233.347261 
L 189.032727 264.399205 
L 199.505455 277.504606 
L 209.978182 274.085236 
L 220.450909 270.418303 
L 230.923636 238.398257 
L 241.396364 194.735446 
L 251.869091 203.24019 
L 262.341818 213.911379 
L 272.814545 202.622753 
L 283.287273 202.592269 
L 293.76 201.700427 
L 304.232727 211.671084 
L 314.705455 209.858745 
L 325.178182 213.953956 
L 335.650909 215.906838 
L 346.123636 215.312778 
L 356.596364 219.481417 
L 367.069091 227.610632 
L 377.541818 229.100607 
L 388.014545 230.126062 
L 398.487273 213.971539 
" clip-path="url(#p5958968dad)" style="fill: none; stroke: #1f77b4; stroke-width: 2; stroke-linecap: square"/>
   </g>
   <g id="line2d_28">
    <path d="M 73.832727 233.570229 
L 84.305455 235.184487 
L 94.778182 233.77856 
L 105.250909 234.634748 
L 115.723636 234.948593 
L 126.196364 234.031323 
L 136.669091 230.253347 
L 147.141818 241.00575 
L 157.614545 233.601628 
L 168.087273 238.385679 
L 178.56 241.770142 
L 189.032727 281.565789 
L 199.505455 262.110871 
L 209.978182 265.357204 
L 220.450909 231.527804 
L 230.923636 210.594579 
L 241.396364 184.834453 
L 251.869091 191.584606 
L 262.341818 247.905645 
L 272.814545 248.684314 
L 283.287273 250.778935 
L 293.76 252.91376 
L 304.232727 250.567935 
L 314.705455 252.209819 
L 325.178182 252.964736 
L 335.650909 249.879733 
L 346.123636 256.250443 
L 356.596364 256.758226 
L 367.069091 245.875114 
L 377.541818 239.30018 
L 388.014545 237.701686 
L 398.487273 236.927016 
" clip-path="url(#p5958968dad)" style="fill: none; stroke: #ff7f0e; stroke-width: 3; stroke-linecap: square"/>
   </g>
   <g id="line2d_29">
    <path d="M 73.832727 233.570229 
L 84.305455 233.570108 
L 94.778182 233.574911 
L 105.250909 233.572793 
L 115.723636 233.547447 
L 126.196364 233.564356 
L 136.669091 233.566555 
L 147.141818 233.571597 
L 157.614545 233.611903 
L 168.087273 233.664332 
L 178.56 233.444216 
L 189.032727 228.94965 
L 199.505455 233.139272 
L 209.978182 233.307556 
L 220.450909 233.205356 
L 230.923636 232.908941 
L 241.396364 232.657217 
L 251.869091 231.696627 
L 262.341818 231.739396 
L 272.814545 231.96369 
L 283.287273 232.193302 
L 293.76 233.180626 
L 304.232727 233.505376 
L 314.705455 233.519694 
L 325.178182 233.528591 
L 335.650909 233.662537 
L 346.123636 233.667723 
L 356.596364 233.587286 
L 367.069091 233.620143 
L 377.541818 233.59941 
L 388.014545 233.615844 
L 398.487273 233.326625 
" clip-path="url(#p5958968dad)" style="fill: none; stroke: #1f77b4; stroke-width: 2; stroke-linecap: square"/>
   </g>
   <g id="line2d_30">
    <path d="M 73.832727 233.570229 
L 84.305455 233.567251 
L 94.778182 233.563981 
L 105.250909 233.573297 
L 115.723636 233.584408 
L 126.196364 233.572639 
L 136.669091 233.563033 
L 147.141818 233.58395 
L 157.614545 233.451074 
L 168.087273 232.975223 
L 178.56 233.391875 
L 189.032727 232.792334 
L 199.505455 230.316941 
L 209.978182 230.067015 
L 220.450909 232.916493 
L 230.923636 230.713705 
L 241.396364 233.29025 
L 251.869091 233.399634 
L 262.341818 233.465983 
L 272.814545 233.504084 
L 283.287273 233.607544 
L 293.76 233.56689 
L 304.232727 233.442567 
L 314.705455 233.452041 
L 325.178182 233.519678 
L 335.650909 233.488925 
L 346.123636 233.472548 
L 356.596364 233.462673 
L 367.069091 233.439566 
L 377.541818 233.345705 
L 388.014545 233.258994 
L 398.487273 233.483947 
" clip-path="url(#p5958968dad)" style="fill: none; stroke: #ff7f0e; stroke-width: 3; stroke-linecap: square"/>
   </g>
   <g id="line2d_31">
    <path d="M 73.832727 233.570229 
L 84.305455 234.015258 
L 94.778182 234.543423 
L 105.250909 233.763046 
L 115.723636 233.048173 
L 126.196364 233.416773 
L 136.669091 234.071852 
L 147.141818 236.143938 
L 157.614545 246.648239 
L 168.087273 250.597738 
L 178.56 262.829587 
L 189.032727 267.740393 
L 199.505455 271.970793 
L 209.978182 292.679725 
L 220.450909 293.219929 
L 230.923636 153.679345 
L 241.396364 185.052837 
L 251.869091 53.568 
L 262.341818 239.438319 
L 272.814545 213.384691 
L 283.287273 203.168849 
L 293.76 195.007552 
L 304.232727 198.512082 
L 314.705455 195.508889 
L 325.178182 208.417595 
L 335.650909 221.677002 
L 346.123636 222.886026 
L 356.596364 232.839405 
L 367.069091 225.922956 
L 377.541818 221.603794 
L 388.014545 213.284915 
L 398.487273 207.60848 
" clip-path="url(#p5958968dad)" style="fill: none; stroke: #1f77b4; stroke-width: 2; stroke-linecap: square"/>
   </g>
   <g id="line2d_32">
    <path d="M 73.832727 233.570229 
L 84.305455 233.029265 
L 94.778182 232.229089 
L 105.250909 232.669965 
L 115.723636 233.74846 
L 126.196364 233.672567 
L 136.669091 232.333659 
L 147.141818 230.654441 
L 157.614545 218.006199 
L 168.087273 205.758015 
L 178.56 174.152387 
L 189.032727 258.707085 
L 199.505455 237.022483 
L 209.978182 213.348893 
L 220.450909 153.542341 
L 230.923636 146.575157 
L 241.396364 159.778762 
L 251.869091 193.843109 
L 262.341818 240.526716 
L 272.814545 232.837684 
L 283.287273 224.498501 
L 293.76 228.615209 
L 304.232727 235.897805 
L 314.705455 237.366122 
L 325.178182 240.400967 
L 335.650909 236.95095 
L 346.123636 248.223915 
L 356.596364 238.975841 
L 367.069091 239.907608 
L 377.541818 244.497933 
L 388.014545 251.489198 
L 398.487273 253.781721 
" clip-path="url(#p5958968dad)" style="fill: none; stroke: #ff7f0e; stroke-width: 3; stroke-linecap: square"/>
   </g>
   <g id="line2d_33">
    <path d="M 73.832727 233.570229 
L 84.305455 233.641231 
L 94.778182 233.642251 
L 105.250909 233.664534 
L 115.723636 233.639633 
L 126.196364 233.68999 
L 136.669091 233.798554 
L 147.141818 233.830014 
L 157.614545 234.121777 
L 168.087273 234.886725 
L 178.56 235.167094 
L 189.032727 235.466178 
L 199.505455 234.20477 
L 209.978182 232.767225 
L 220.450909 234.386924 
L 230.923636 234.132252 
L 241.396364 233.272345 
L 251.869091 232.774872 
L 262.341818 235.117772 
L 272.814545 234.756792 
L 283.287273 234.17015 
L 293.76 233.704693 
L 304.232727 233.366471 
L 314.705455 233.209358 
L 325.178182 234.370332 
L 335.650909 234.192167 
L 346.123636 234.149315 
L 356.596364 234.752182 
L 367.069091 234.831801 
L 377.541818 234.480442 
L 388.014545 233.779962 
L 398.487273 234.096612 
" clip-path="url(#p5958968dad)" style="fill: none; stroke: #1f77b4; stroke-width: 2; stroke-linecap: square"/>
   </g>
   <g id="line2d_34">
    <path d="M 73.832727 233.570229 
L 84.305455 233.528505 
L 94.778182 233.467665 
L 105.250909 233.432919 
L 115.723636 233.517014 
L 126.196364 233.509075 
L 136.669091 233.465714 
L 147.141818 233.428957 
L 157.614545 232.777065 
L 168.087273 229.306966 
L 178.56 228.892096 
L 189.032727 218.095955 
L 199.505455 207.090567 
L 209.978182 166.02916 
L 220.450909 201.422866 
L 230.923636 221.249681 
L 241.396364 224.801592 
L 251.869091 228.975044 
L 262.341818 231.512098 
L 272.814545 231.414907 
L 283.287273 232.513176 
L 293.76 232.134341 
L 304.232727 233.276469 
L 314.705455 233.232822 
L 325.178182 232.635793 
L 335.650909 232.844611 
L 346.123636 232.232853 
L 356.596364 232.108515 
L 367.069091 231.51789 
L 377.541818 231.8929 
L 388.014545 232.265884 
L 398.487273 230.255534 
" clip-path="url(#p5958968dad)" style="fill: none; stroke: #ff7f0e; stroke-width: 3; stroke-linecap: square"/>
   </g>
   <g id="line2d_35">
    <path d="M 73.832727 233.570229 
L 84.305455 207.355011 
L 94.778182 220.114689 
L 105.250909 220.552275 
L 115.723636 207.486915 
L 126.196364 224.66993 
L 136.669091 243.205458 
L 147.141818 193.779085 
L 157.614545 168.286206 
L 168.087273 182.206794 
L 178.56 201.537423 
L 189.032727 224.763825 
L 199.505455 292.693558 
L 209.978182 282.414342 
L 220.450909 268.2544 
L 230.923636 229.225436 
L 241.396364 206.906674 
L 251.869091 219.179002 
L 262.341818 225.774019 
L 272.814545 224.052271 
L 283.287273 221.12998 
L 293.76 217.330076 
L 304.232727 218.113267 
L 314.705455 223.572343 
L 325.178182 221.161117 
L 335.650909 223.003691 
L 346.123636 225.653058 
L 356.596364 229.637039 
L 367.069091 228.494963 
L 377.541818 222.682339 
L 388.014545 220.35293 
L 398.487273 202.770799 
" clip-path="url(#p5958968dad)" style="fill: none; stroke: #1f77b4; stroke-width: 2; stroke-linecap: square"/>
   </g>
   <g id="line2d_36">
    <path d="M 73.832727 233.570229 
L 84.305455 241.935647 
L 94.778182 241.214345 
L 105.250909 242.347383 
L 115.723636 250.053908 
L 126.196364 245.570011 
L 136.669091 233.464743 
L 147.141818 258.946718 
L 157.614545 266.377335 
L 168.087273 267.037062 
L 178.56 267.961008 
L 189.032727 272.260101 
L 199.505455 263.515819 
L 209.978182 257.166196 
L 220.450909 251.577473 
L 230.923636 243.833862 
L 241.396364 244.938309 
L 251.869091 240.847502 
L 262.341818 240.991475 
L 272.814545 239.55598 
L 283.287273 241.231973 
L 293.76 243.164118 
L 304.232727 245.984301 
L 314.705455 239.407327 
L 325.178182 242.376927 
L 335.650909 240.963071 
L 346.123636 243.926737 
L 356.596364 244.092054 
L 367.069091 239.502942 
L 377.541818 240.930453 
L 388.014545 240.669983 
L 398.487273 248.257486 
" clip-path="url(#p5958968dad)" style="fill: none; stroke: #ff7f0e; stroke-width: 3; stroke-linecap: square"/>
   </g>
   <g id="line2d_37">
    <path d="M 73.832727 233.570229 
L 84.305455 234.597889 
L 94.778182 234.454815 
L 105.250909 234.143891 
L 115.723636 234.50231 
L 126.196364 234.386494 
L 136.669091 233.012904 
L 147.141818 232.901395 
L 157.614545 234.967517 
L 168.087273 234.899211 
L 178.56 238.148695 
L 189.032727 252.880989 
L 199.505455 260.518934 
L 209.978182 260.847149 
L 220.450909 257.754112 
L 230.923636 254.61013 
L 241.396364 244.588962 
L 251.869091 244.689654 
L 262.341818 241.189139 
L 272.814545 238.906213 
L 283.287273 238.294731 
L 293.76 237.623161 
L 304.232727 238.093242 
L 314.705455 236.206002 
L 325.178182 237.023339 
L 335.650909 234.953982 
L 346.123636 234.444693 
L 356.596364 233.859617 
L 367.069091 235.308333 
L 377.541818 233.899311 
L 388.014545 234.415055 
L 398.487273 230.14403 
" clip-path="url(#p5958968dad)" style="fill: none; stroke: #1f77b4; stroke-width: 2; stroke-linecap: square"/>
   </g>
   <g id="line2d_38">
    <path d="M 73.832727 233.570229 
L 84.305455 232.384826 
L 94.778182 232.340698 
L 105.250909 232.062044 
L 115.723636 231.608294 
L 126.196364 232.94174 
L 136.669091 233.996252 
L 147.141818 234.154437 
L 157.614545 232.409841 
L 168.087273 232.046162 
L 178.56 228.701965 
L 189.032727 211.345697 
L 199.505455 201.105622 
L 209.978182 207.053949 
L 220.450909 207.670738 
L 230.923636 212.610347 
L 241.396364 222.492581 
L 251.869091 223.025514 
L 262.341818 226.347089 
L 272.814545 227.92592 
L 283.287273 228.641123 
L 293.76 229.722751 
L 304.232727 229.165562 
L 314.705455 230.777599 
L 325.178182 230.289176 
L 335.650909 232.271995 
L 346.123636 232.972138 
L 356.596364 233.756659 
L 367.069091 232.036461 
L 377.541818 233.168386 
L 388.014545 231.737183 
L 398.487273 236.694324 
" clip-path="url(#p5958968dad)" style="fill: none; stroke: #ff7f0e; stroke-width: 3; stroke-linecap: square"/>
   </g>
   <g id="patch_3">
    <path d="M 57.6 307.584 
L 57.6 41.472 
" style="fill: none; stroke: #000000; stroke-width: 0.8; stroke-linejoin: miter; stroke-linecap: square"/>
   </g>
   <g id="patch_4">
    <path d="M 414.72 307.584 
L 414.72 41.472 
" style="fill: none; stroke: #000000; stroke-width: 0.8; stroke-linejoin: miter; stroke-linecap: square"/>
   </g>
   <g id="patch_5">
    <path d="M 57.6 307.584 
L 414.72 307.584 
" style="fill: none; stroke: #000000; stroke-width: 0.8; stroke-linejoin: miter; stroke-linecap: square"/>
   </g>
   <g id="patch_6">
    <path d="M 57.6 41.472 
L 414.72 41.472 
" style="fill: none; stroke: #000000; stroke-width: 0.8; stroke-linejoin: miter; stroke-linecap: square"/>
   </g>
  </g>
 </g>
 <defs>
  <clipPath id="p5958968dad">
   <rect x="57.6" y="41.472" width="357.12" height="266.112"/>
  </clipPath>
 </defs>
</svg>
