<?xml version="1.0" encoding="utf-8" standalone="no"?>
<!DOCTYPE svg PUBLIC "-//W3C//DTD SVG 1.1//EN"
  "http://www.w3.org/Graphics/SVG/1.1/DTD/svg11.dtd">
<svg xmlns:xlink="http://www.w3.org/1999/xlink" width="460.8pt" height="345.6pt" viewBox="0 0 460.8 345.6" xmlns="http://www.w3.org/2000/svg" version="1.1">
 <metadata>
  <rdf:RDF xmlns:dc="http://purl.org/dc/elements/1.1/" xmlns:cc="http://creativecommons.org/ns#" xmlns:rdf="http://www.w3.org/1999/02/22-rdf-syntax-ns#">
   <cc:Work>
    <dc:type rdf:resource="http://purl.org/dc/dcmitype/StillImage"/>
    <dc:date>2024-03-26T09:58:05.882846</dc:date>
    <dc:format>image/svg+xml</dc:format>
    <dc:creator>
     <cc:Agent>
      <dc:title>Matplotlib v3.8.3, https://matplotlib.org/</dc:title>
     </cc:Agent>
    </dc:creator>
   </cc:Work>
  </rdf:RDF>
 </metadata>
 <defs>
  <style type="text/css">*{stroke-linejoin: round; stroke-linecap: butt}</style>
 </defs>
 <g id="figure_1">
  <g id="patch_1">
   <path d="M 0 345.6 
L 460.8 345.6 
L 460.8 0 
L 0 0 
z
" style="fill: #ffffff"/>
  </g>
  <g id="axes_1">
   <g id="patch_2">
    <path d="M 57.6 307.584 
L 414.72 307.584 
L 414.72 41.472 
L 57.6 41.472 
z
" style="fill: #ffffff"/>
   </g>
   <g id="matplotlib.axis_1">
    <g id="xtick_1">
     <g id="line2d_1">
      <path d="M 73.832727 307.584 
L 73.832727 41.472 
" clip-path="url(#p82c2863c61)" style="fill: none; stroke: #b0b0b0; stroke-width: 0.8; stroke-linecap: square"/>
     </g>
     <g id="line2d_2">
      <defs>
       <path id="m98e251e0b9" d="M 0 0 
L 0 3.5 
" style="stroke: #000000; stroke-width: 0.8"/>
      </defs>
      <g>
       <use xlink:href="#m98e251e0b9" x="73.832727" y="307.584" style="stroke: #000000; stroke-width: 0.8"/>
      </g>
     </g>
     <g id="text_1">
      <!-- 0 -->
      <g transform="translate(70.651477 322.182437) scale(0.1 -0.1)">
       <defs>
        <path id="DejaVuSans-30" d="M 2034 4250 
Q 1547 4250 1301 3770 
Q 1056 3291 1056 2328 
Q 1056 1369 1301 889 
Q 1547 409 2034 409 
Q 2525 409 2770 889 
Q 3016 1369 3016 2328 
Q 3016 3291 2770 3770 
Q 2525 4250 2034 4250 
z
M 2034 4750 
Q 2819 4750 3233 4129 
Q 3647 3509 3647 2328 
Q 3647 1150 3233 529 
Q 2819 -91 2034 -91 
Q 1250 -91 836 529 
Q 422 1150 422 2328 
Q 422 3509 836 4129 
Q 1250 4750 2034 4750 
z
" transform="scale(0.015625)"/>
       </defs>
       <use xlink:href="#DejaVuSans-30"/>
      </g>
     </g>
    </g>
    <g id="xtick_2">
     <g id="line2d_3">
      <path d="M 126.196364 307.584 
L 126.196364 41.472 
" clip-path="url(#p82c2863c61)" style="fill: none; stroke: #b0b0b0; stroke-width: 0.8; stroke-linecap: square"/>
     </g>
     <g id="line2d_4">
      <g>
       <use xlink:href="#m98e251e0b9" x="126.196364" y="307.584" style="stroke: #000000; stroke-width: 0.8"/>
      </g>
     </g>
     <g id="text_2">
      <!-- 5 -->
      <g transform="translate(123.015114 322.182437) scale(0.1 -0.1)">
       <defs>
        <path id="DejaVuSans-35" d="M 691 4666 
L 3169 4666 
L 3169 4134 
L 1269 4134 
L 1269 2991 
Q 1406 3038 1543 3061 
Q 1681 3084 1819 3084 
Q 2600 3084 3056 2656 
Q 3513 2228 3513 1497 
Q 3513 744 3044 326 
Q 2575 -91 1722 -91 
Q 1428 -91 1123 -41 
Q 819 9 494 109 
L 494 744 
Q 775 591 1075 516 
Q 1375 441 1709 441 
Q 2250 441 2565 725 
Q 2881 1009 2881 1497 
Q 2881 1984 2565 2268 
Q 2250 2553 1709 2553 
Q 1456 2553 1204 2497 
Q 953 2441 691 2322 
L 691 4666 
z
" transform="scale(0.015625)"/>
       </defs>
       <use xlink:href="#DejaVuSans-35"/>
      </g>
     </g>
    </g>
    <g id="xtick_3">
     <g id="line2d_5">
      <path d="M 178.56 307.584 
L 178.56 41.472 
" clip-path="url(#p82c2863c61)" style="fill: none; stroke: #b0b0b0; stroke-width: 0.8; stroke-linecap: square"/>
     </g>
     <g id="line2d_6">
      <g>
       <use xlink:href="#m98e251e0b9" x="178.56" y="307.584" style="stroke: #000000; stroke-width: 0.8"/>
      </g>
     </g>
     <g id="text_3">
      <!-- 10 -->
      <g transform="translate(172.1975 322.182437) scale(0.1 -0.1)">
       <defs>
        <path id="DejaVuSans-31" d="M 794 531 
L 1825 531 
L 1825 4091 
L 703 3866 
L 703 4441 
L 1819 4666 
L 2450 4666 
L 2450 531 
L 3481 531 
L 3481 0 
L 794 0 
L 794 531 
z
" transform="scale(0.015625)"/>
       </defs>
       <use xlink:href="#DejaVuSans-31"/>
       <use xlink:href="#DejaVuSans-30" x="63.623047"/>
      </g>
     </g>
    </g>
    <g id="xtick_4">
     <g id="line2d_7">
      <path d="M 230.923636 307.584 
L 230.923636 41.472 
" clip-path="url(#p82c2863c61)" style="fill: none; stroke: #b0b0b0; stroke-width: 0.8; stroke-linecap: square"/>
     </g>
     <g id="line2d_8">
      <g>
       <use xlink:href="#m98e251e0b9" x="230.923636" y="307.584" style="stroke: #000000; stroke-width: 0.8"/>
      </g>
     </g>
     <g id="text_4">
      <!-- 15 -->
      <g transform="translate(224.561136 322.182437) scale(0.1 -0.1)">
       <use xlink:href="#DejaVuSans-31"/>
       <use xlink:href="#DejaVuSans-35" x="63.623047"/>
      </g>
     </g>
    </g>
    <g id="xtick_5">
     <g id="line2d_9">
      <path d="M 283.287273 307.584 
L 283.287273 41.472 
" clip-path="url(#p82c2863c61)" style="fill: none; stroke: #b0b0b0; stroke-width: 0.8; stroke-linecap: square"/>
     </g>
     <g id="line2d_10">
      <g>
       <use xlink:href="#m98e251e0b9" x="283.287273" y="307.584" style="stroke: #000000; stroke-width: 0.8"/>
      </g>
     </g>
     <g id="text_5">
      <!-- 20 -->
      <g transform="translate(276.924773 322.182437) scale(0.1 -0.1)">
       <defs>
        <path id="DejaVuSans-32" d="M 1228 531 
L 3431 531 
L 3431 0 
L 469 0 
L 469 531 
Q 828 903 1448 1529 
Q 2069 2156 2228 2338 
Q 2531 2678 2651 2914 
Q 2772 3150 2772 3378 
Q 2772 3750 2511 3984 
Q 2250 4219 1831 4219 
Q 1534 4219 1204 4116 
Q 875 4013 500 3803 
L 500 4441 
Q 881 4594 1212 4672 
Q 1544 4750 1819 4750 
Q 2544 4750 2975 4387 
Q 3406 4025 3406 3419 
Q 3406 3131 3298 2873 
Q 3191 2616 2906 2266 
Q 2828 2175 2409 1742 
Q 1991 1309 1228 531 
z
" transform="scale(0.015625)"/>
       </defs>
       <use xlink:href="#DejaVuSans-32"/>
       <use xlink:href="#DejaVuSans-30" x="63.623047"/>
      </g>
     </g>
    </g>
    <g id="xtick_6">
     <g id="line2d_11">
      <path d="M 335.650909 307.584 
L 335.650909 41.472 
" clip-path="url(#p82c2863c61)" style="fill: none; stroke: #b0b0b0; stroke-width: 0.8; stroke-linecap: square"/>
     </g>
     <g id="line2d_12">
      <g>
       <use xlink:href="#m98e251e0b9" x="335.650909" y="307.584" style="stroke: #000000; stroke-width: 0.8"/>
      </g>
     </g>
     <g id="text_6">
      <!-- 25 -->
      <g transform="translate(329.288409 322.182437) scale(0.1 -0.1)">
       <use xlink:href="#DejaVuSans-32"/>
       <use xlink:href="#DejaVuSans-35" x="63.623047"/>
      </g>
     </g>
    </g>
    <g id="xtick_7">
     <g id="line2d_13">
      <path d="M 388.014545 307.584 
L 388.014545 41.472 
" clip-path="url(#p82c2863c61)" style="fill: none; stroke: #b0b0b0; stroke-width: 0.8; stroke-linecap: square"/>
     </g>
     <g id="line2d_14">
      <g>
       <use xlink:href="#m98e251e0b9" x="388.014545" y="307.584" style="stroke: #000000; stroke-width: 0.8"/>
      </g>
     </g>
     <g id="text_7">
      <!-- 30 -->
      <g transform="translate(381.652045 322.182437) scale(0.1 -0.1)">
       <defs>
        <path id="DejaVuSans-33" d="M 2597 2516 
Q 3050 2419 3304 2112 
Q 3559 1806 3559 1356 
Q 3559 666 3084 287 
Q 2609 -91 1734 -91 
Q 1441 -91 1130 -33 
Q 819 25 488 141 
L 488 750 
Q 750 597 1062 519 
Q 1375 441 1716 441 
Q 2309 441 2620 675 
Q 2931 909 2931 1356 
Q 2931 1769 2642 2001 
Q 2353 2234 1838 2234 
L 1294 2234 
L 1294 2753 
L 1863 2753 
Q 2328 2753 2575 2939 
Q 2822 3125 2822 3475 
Q 2822 3834 2567 4026 
Q 2313 4219 1838 4219 
Q 1578 4219 1281 4162 
Q 984 4106 628 3988 
L 628 4550 
Q 988 4650 1302 4700 
Q 1616 4750 1894 4750 
Q 2613 4750 3031 4423 
Q 3450 4097 3450 3541 
Q 3450 3153 3228 2886 
Q 3006 2619 2597 2516 
z
" transform="scale(0.015625)"/>
       </defs>
       <use xlink:href="#DejaVuSans-33"/>
       <use xlink:href="#DejaVuSans-30" x="63.623047"/>
      </g>
     </g>
    </g>
    <g id="text_8">
     <!-- Layer -->
     <g transform="translate(222.218594 335.860562) scale(0.1 -0.1)">
      <defs>
       <path id="DejaVuSans-4c" d="M 628 4666 
L 1259 4666 
L 1259 531 
L 3531 531 
L 3531 0 
L 628 0 
L 628 4666 
z
" transform="scale(0.015625)"/>
       <path id="DejaVuSans-61" d="M 2194 1759 
Q 1497 1759 1228 1600 
Q 959 1441 959 1056 
Q 959 750 1161 570 
Q 1363 391 1709 391 
Q 2188 391 2477 730 
Q 2766 1069 2766 1631 
L 2766 1759 
L 2194 1759 
z
M 3341 1997 
L 3341 0 
L 2766 0 
L 2766 531 
Q 2569 213 2275 61 
Q 1981 -91 1556 -91 
Q 1019 -91 701 211 
Q 384 513 384 1019 
Q 384 1609 779 1909 
Q 1175 2209 1959 2209 
L 2766 2209 
L 2766 2266 
Q 2766 2663 2505 2880 
Q 2244 3097 1772 3097 
Q 1472 3097 1187 3025 
Q 903 2953 641 2809 
L 641 3341 
Q 956 3463 1253 3523 
Q 1550 3584 1831 3584 
Q 2591 3584 2966 3190 
Q 3341 2797 3341 1997 
z
" transform="scale(0.015625)"/>
       <path id="DejaVuSans-79" d="M 2059 -325 
Q 1816 -950 1584 -1140 
Q 1353 -1331 966 -1331 
L 506 -1331 
L 506 -850 
L 844 -850 
Q 1081 -850 1212 -737 
Q 1344 -625 1503 -206 
L 1606 56 
L 191 3500 
L 800 3500 
L 1894 763 
L 2988 3500 
L 3597 3500 
L 2059 -325 
z
" transform="scale(0.015625)"/>
       <path id="DejaVuSans-65" d="M 3597 1894 
L 3597 1613 
L 953 1613 
Q 991 1019 1311 708 
Q 1631 397 2203 397 
Q 2534 397 2845 478 
Q 3156 559 3463 722 
L 3463 178 
Q 3153 47 2828 -22 
Q 2503 -91 2169 -91 
Q 1331 -91 842 396 
Q 353 884 353 1716 
Q 353 2575 817 3079 
Q 1281 3584 2069 3584 
Q 2775 3584 3186 3129 
Q 3597 2675 3597 1894 
z
M 3022 2063 
Q 3016 2534 2758 2815 
Q 2500 3097 2075 3097 
Q 1594 3097 1305 2825 
Q 1016 2553 972 2059 
L 3022 2063 
z
" transform="scale(0.015625)"/>
       <path id="DejaVuSans-72" d="M 2631 2963 
Q 2534 3019 2420 3045 
Q 2306 3072 2169 3072 
Q 1681 3072 1420 2755 
Q 1159 2438 1159 1844 
L 1159 0 
L 581 0 
L 581 3500 
L 1159 3500 
L 1159 2956 
Q 1341 3275 1631 3429 
Q 1922 3584 2338 3584 
Q 2397 3584 2469 3576 
Q 2541 3569 2628 3553 
L 2631 2963 
z
" transform="scale(0.015625)"/>
      </defs>
      <use xlink:href="#DejaVuSans-4c"/>
      <use xlink:href="#DejaVuSans-61" x="55.712891"/>
      <use xlink:href="#DejaVuSans-79" x="116.992188"/>
      <use xlink:href="#DejaVuSans-65" x="176.171875"/>
      <use xlink:href="#DejaVuSans-72" x="237.695312"/>
     </g>
    </g>
   </g>
   <g id="matplotlib.axis_2">
    <g id="ytick_1">
     <g id="line2d_15">
      <path d="M 57.6 290.692168 
L 414.72 290.692168 
" clip-path="url(#p82c2863c61)" style="fill: none; stroke: #b0b0b0; stroke-width: 0.8; stroke-linecap: square"/>
     </g>
     <g id="line2d_16">
      <defs>
       <path id="m2b277d53e9" d="M 0 0 
L -3.5 0 
" style="stroke: #000000; stroke-width: 0.8"/>
      </defs>
      <g>
       <use xlink:href="#m2b277d53e9" x="57.6" y="290.692168" style="stroke: #000000; stroke-width: 0.8"/>
      </g>
     </g>
     <g id="text_9">
      <!-- −60 -->
      <g transform="translate(29.495313 294.491387) scale(0.1 -0.1)">
       <defs>
        <path id="DejaVuSans-2212" d="M 678 2272 
L 4684 2272 
L 4684 1741 
L 678 1741 
L 678 2272 
z
" transform="scale(0.015625)"/>
        <path id="DejaVuSans-36" d="M 2113 2584 
Q 1688 2584 1439 2293 
Q 1191 2003 1191 1497 
Q 1191 994 1439 701 
Q 1688 409 2113 409 
Q 2538 409 2786 701 
Q 3034 994 3034 1497 
Q 3034 2003 2786 2293 
Q 2538 2584 2113 2584 
z
M 3366 4563 
L 3366 3988 
Q 3128 4100 2886 4159 
Q 2644 4219 2406 4219 
Q 1781 4219 1451 3797 
Q 1122 3375 1075 2522 
Q 1259 2794 1537 2939 
Q 1816 3084 2150 3084 
Q 2853 3084 3261 2657 
Q 3669 2231 3669 1497 
Q 3669 778 3244 343 
Q 2819 -91 2113 -91 
Q 1303 -91 875 529 
Q 447 1150 447 2328 
Q 447 3434 972 4092 
Q 1497 4750 2381 4750 
Q 2619 4750 2861 4703 
Q 3103 4656 3366 4563 
z
" transform="scale(0.015625)"/>
       </defs>
       <use xlink:href="#DejaVuSans-2212"/>
       <use xlink:href="#DejaVuSans-36" x="83.789062"/>
       <use xlink:href="#DejaVuSans-30" x="147.412109"/>
      </g>
     </g>
    </g>
    <g id="ytick_2">
     <g id="line2d_17">
      <path d="M 57.6 237.703737 
L 414.72 237.703737 
" clip-path="url(#p82c2863c61)" style="fill: none; stroke: #b0b0b0; stroke-width: 0.8; stroke-linecap: square"/>
     </g>
     <g id="line2d_18">
      <g>
       <use xlink:href="#m2b277d53e9" x="57.6" y="237.703737" style="stroke: #000000; stroke-width: 0.8"/>
      </g>
     </g>
     <g id="text_10">
      <!-- −40 -->
      <g transform="translate(29.495313 241.502956) scale(0.1 -0.1)">
       <defs>
        <path id="DejaVuSans-34" d="M 2419 4116 
L 825 1625 
L 2419 1625 
L 2419 4116 
z
M 2253 4666 
L 3047 4666 
L 3047 1625 
L 3713 1625 
L 3713 1100 
L 3047 1100 
L 3047 0 
L 2419 0 
L 2419 1100 
L 313 1100 
L 313 1709 
L 2253 4666 
z
" transform="scale(0.015625)"/>
       </defs>
       <use xlink:href="#DejaVuSans-2212"/>
       <use xlink:href="#DejaVuSans-34" x="83.789062"/>
       <use xlink:href="#DejaVuSans-30" x="147.412109"/>
      </g>
     </g>
    </g>
    <g id="ytick_3">
     <g id="line2d_19">
      <path d="M 57.6 184.715307 
L 414.72 184.715307 
" clip-path="url(#p82c2863c61)" style="fill: none; stroke: #b0b0b0; stroke-width: 0.8; stroke-linecap: square"/>
     </g>
     <g id="line2d_20">
      <g>
       <use xlink:href="#m2b277d53e9" x="57.6" y="184.715307" style="stroke: #000000; stroke-width: 0.8"/>
      </g>
     </g>
     <g id="text_11">
      <!-- −20 -->
      <g transform="translate(29.495313 188.514525) scale(0.1 -0.1)">
       <use xlink:href="#DejaVuSans-2212"/>
       <use xlink:href="#DejaVuSans-32" x="83.789062"/>
       <use xlink:href="#DejaVuSans-30" x="147.412109"/>
      </g>
     </g>
    </g>
    <g id="ytick_4">
     <g id="line2d_21">
      <path d="M 57.6 131.726876 
L 414.72 131.726876 
" clip-path="url(#p82c2863c61)" style="fill: none; stroke: #b0b0b0; stroke-width: 0.8; stroke-linecap: square"/>
     </g>
     <g id="line2d_22">
      <g>
       <use xlink:href="#m2b277d53e9" x="57.6" y="131.726876" style="stroke: #000000; stroke-width: 0.8"/>
      </g>
     </g>
     <g id="text_12">
      <!-- 0 -->
      <g transform="translate(44.2375 135.526095) scale(0.1 -0.1)">
       <use xlink:href="#DejaVuSans-30"/>
      </g>
     </g>
    </g>
    <g id="ytick_5">
     <g id="line2d_23">
      <path d="M 57.6 78.738446 
L 414.72 78.738446 
" clip-path="url(#p82c2863c61)" style="fill: none; stroke: #b0b0b0; stroke-width: 0.8; stroke-linecap: square"/>
     </g>
     <g id="line2d_24">
      <g>
       <use xlink:href="#m2b277d53e9" x="57.6" y="78.738446" style="stroke: #000000; stroke-width: 0.8"/>
      </g>
     </g>
     <g id="text_13">
      <!-- 20 -->
      <g transform="translate(37.875 82.537664) scale(0.1 -0.1)">
       <use xlink:href="#DejaVuSans-32"/>
       <use xlink:href="#DejaVuSans-30" x="63.623047"/>
      </g>
     </g>
    </g>
    <g id="text_14">
     <!-- Delta p(matching behaviour) -->
     <g transform="translate(23.415625 246.781906) rotate(-90) scale(0.1 -0.1)">
      <defs>
       <path id="DejaVuSans-44" d="M 1259 4147 
L 1259 519 
L 2022 519 
Q 2988 519 3436 956 
Q 3884 1394 3884 2338 
Q 3884 3275 3436 3711 
Q 2988 4147 2022 4147 
L 1259 4147 
z
M 628 4666 
L 1925 4666 
Q 3281 4666 3915 4102 
Q 4550 3538 4550 2338 
Q 4550 1131 3912 565 
Q 3275 0 1925 0 
L 628 0 
L 628 4666 
z
" transform="scale(0.015625)"/>
       <path id="DejaVuSans-6c" d="M 603 4863 
L 1178 4863 
L 1178 0 
L 603 0 
L 603 4863 
z
" transform="scale(0.015625)"/>
       <path id="DejaVuSans-74" d="M 1172 4494 
L 1172 3500 
L 2356 3500 
L 2356 3053 
L 1172 3053 
L 1172 1153 
Q 1172 725 1289 603 
Q 1406 481 1766 481 
L 2356 481 
L 2356 0 
L 1766 0 
Q 1100 0 847 248 
Q 594 497 594 1153 
L 594 3053 
L 172 3053 
L 172 3500 
L 594 3500 
L 594 4494 
L 1172 4494 
z
" transform="scale(0.015625)"/>
       <path id="DejaVuSans-20" transform="scale(0.015625)"/>
       <path id="DejaVuSans-70" d="M 1159 525 
L 1159 -1331 
L 581 -1331 
L 581 3500 
L 1159 3500 
L 1159 2969 
Q 1341 3281 1617 3432 
Q 1894 3584 2278 3584 
Q 2916 3584 3314 3078 
Q 3713 2572 3713 1747 
Q 3713 922 3314 415 
Q 2916 -91 2278 -91 
Q 1894 -91 1617 61 
Q 1341 213 1159 525 
z
M 3116 1747 
Q 3116 2381 2855 2742 
Q 2594 3103 2138 3103 
Q 1681 3103 1420 2742 
Q 1159 2381 1159 1747 
Q 1159 1113 1420 752 
Q 1681 391 2138 391 
Q 2594 391 2855 752 
Q 3116 1113 3116 1747 
z
" transform="scale(0.015625)"/>
       <path id="DejaVuSans-28" d="M 1984 4856 
Q 1566 4138 1362 3434 
Q 1159 2731 1159 2009 
Q 1159 1288 1364 580 
Q 1569 -128 1984 -844 
L 1484 -844 
Q 1016 -109 783 600 
Q 550 1309 550 2009 
Q 550 2706 781 3412 
Q 1013 4119 1484 4856 
L 1984 4856 
z
" transform="scale(0.015625)"/>
       <path id="DejaVuSans-6d" d="M 3328 2828 
Q 3544 3216 3844 3400 
Q 4144 3584 4550 3584 
Q 5097 3584 5394 3201 
Q 5691 2819 5691 2113 
L 5691 0 
L 5113 0 
L 5113 2094 
Q 5113 2597 4934 2840 
Q 4756 3084 4391 3084 
Q 3944 3084 3684 2787 
Q 3425 2491 3425 1978 
L 3425 0 
L 2847 0 
L 2847 2094 
Q 2847 2600 2669 2842 
Q 2491 3084 2119 3084 
Q 1678 3084 1418 2786 
Q 1159 2488 1159 1978 
L 1159 0 
L 581 0 
L 581 3500 
L 1159 3500 
L 1159 2956 
Q 1356 3278 1631 3431 
Q 1906 3584 2284 3584 
Q 2666 3584 2933 3390 
Q 3200 3197 3328 2828 
z
" transform="scale(0.015625)"/>
       <path id="DejaVuSans-63" d="M 3122 3366 
L 3122 2828 
Q 2878 2963 2633 3030 
Q 2388 3097 2138 3097 
Q 1578 3097 1268 2742 
Q 959 2388 959 1747 
Q 959 1106 1268 751 
Q 1578 397 2138 397 
Q 2388 397 2633 464 
Q 2878 531 3122 666 
L 3122 134 
Q 2881 22 2623 -34 
Q 2366 -91 2075 -91 
Q 1284 -91 818 406 
Q 353 903 353 1747 
Q 353 2603 823 3093 
Q 1294 3584 2113 3584 
Q 2378 3584 2631 3529 
Q 2884 3475 3122 3366 
z
" transform="scale(0.015625)"/>
       <path id="DejaVuSans-68" d="M 3513 2113 
L 3513 0 
L 2938 0 
L 2938 2094 
Q 2938 2591 2744 2837 
Q 2550 3084 2163 3084 
Q 1697 3084 1428 2787 
Q 1159 2491 1159 1978 
L 1159 0 
L 581 0 
L 581 4863 
L 1159 4863 
L 1159 2956 
Q 1366 3272 1645 3428 
Q 1925 3584 2291 3584 
Q 2894 3584 3203 3211 
Q 3513 2838 3513 2113 
z
" transform="scale(0.015625)"/>
       <path id="DejaVuSans-69" d="M 603 3500 
L 1178 3500 
L 1178 0 
L 603 0 
L 603 3500 
z
M 603 4863 
L 1178 4863 
L 1178 4134 
L 603 4134 
L 603 4863 
z
" transform="scale(0.015625)"/>
       <path id="DejaVuSans-6e" d="M 3513 2113 
L 3513 0 
L 2938 0 
L 2938 2094 
Q 2938 2591 2744 2837 
Q 2550 3084 2163 3084 
Q 1697 3084 1428 2787 
Q 1159 2491 1159 1978 
L 1159 0 
L 581 0 
L 581 3500 
L 1159 3500 
L 1159 2956 
Q 1366 3272 1645 3428 
Q 1925 3584 2291 3584 
Q 2894 3584 3203 3211 
Q 3513 2838 3513 2113 
z
" transform="scale(0.015625)"/>
       <path id="DejaVuSans-67" d="M 2906 1791 
Q 2906 2416 2648 2759 
Q 2391 3103 1925 3103 
Q 1463 3103 1205 2759 
Q 947 2416 947 1791 
Q 947 1169 1205 825 
Q 1463 481 1925 481 
Q 2391 481 2648 825 
Q 2906 1169 2906 1791 
z
M 3481 434 
Q 3481 -459 3084 -895 
Q 2688 -1331 1869 -1331 
Q 1566 -1331 1297 -1286 
Q 1028 -1241 775 -1147 
L 775 -588 
Q 1028 -725 1275 -790 
Q 1522 -856 1778 -856 
Q 2344 -856 2625 -561 
Q 2906 -266 2906 331 
L 2906 616 
Q 2728 306 2450 153 
Q 2172 0 1784 0 
Q 1141 0 747 490 
Q 353 981 353 1791 
Q 353 2603 747 3093 
Q 1141 3584 1784 3584 
Q 2172 3584 2450 3431 
Q 2728 3278 2906 2969 
L 2906 3500 
L 3481 3500 
L 3481 434 
z
" transform="scale(0.015625)"/>
       <path id="DejaVuSans-62" d="M 3116 1747 
Q 3116 2381 2855 2742 
Q 2594 3103 2138 3103 
Q 1681 3103 1420 2742 
Q 1159 2381 1159 1747 
Q 1159 1113 1420 752 
Q 1681 391 2138 391 
Q 2594 391 2855 752 
Q 3116 1113 3116 1747 
z
M 1159 2969 
Q 1341 3281 1617 3432 
Q 1894 3584 2278 3584 
Q 2916 3584 3314 3078 
Q 3713 2572 3713 1747 
Q 3713 922 3314 415 
Q 2916 -91 2278 -91 
Q 1894 -91 1617 61 
Q 1341 213 1159 525 
L 1159 0 
L 581 0 
L 581 4863 
L 1159 4863 
L 1159 2969 
z
" transform="scale(0.015625)"/>
       <path id="DejaVuSans-76" d="M 191 3500 
L 800 3500 
L 1894 563 
L 2988 3500 
L 3597 3500 
L 2284 0 
L 1503 0 
L 191 3500 
z
" transform="scale(0.015625)"/>
       <path id="DejaVuSans-6f" d="M 1959 3097 
Q 1497 3097 1228 2736 
Q 959 2375 959 1747 
Q 959 1119 1226 758 
Q 1494 397 1959 397 
Q 2419 397 2687 759 
Q 2956 1122 2956 1747 
Q 2956 2369 2687 2733 
Q 2419 3097 1959 3097 
z
M 1959 3584 
Q 2709 3584 3137 3096 
Q 3566 2609 3566 1747 
Q 3566 888 3137 398 
Q 2709 -91 1959 -91 
Q 1206 -91 779 398 
Q 353 888 353 1747 
Q 353 2609 779 3096 
Q 1206 3584 1959 3584 
z
" transform="scale(0.015625)"/>
       <path id="DejaVuSans-75" d="M 544 1381 
L 544 3500 
L 1119 3500 
L 1119 1403 
Q 1119 906 1312 657 
Q 1506 409 1894 409 
Q 2359 409 2629 706 
Q 2900 1003 2900 1516 
L 2900 3500 
L 3475 3500 
L 3475 0 
L 2900 0 
L 2900 538 
Q 2691 219 2414 64 
Q 2138 -91 1772 -91 
Q 1169 -91 856 284 
Q 544 659 544 1381 
z
M 1991 3584 
L 1991 3584 
z
" transform="scale(0.015625)"/>
       <path id="DejaVuSans-29" d="M 513 4856 
L 1013 4856 
Q 1481 4119 1714 3412 
Q 1947 2706 1947 2009 
Q 1947 1309 1714 600 
Q 1481 -109 1013 -844 
L 513 -844 
Q 928 -128 1133 580 
Q 1338 1288 1338 2009 
Q 1338 2731 1133 3434 
Q 928 4138 513 4856 
z
" transform="scale(0.015625)"/>
      </defs>
      <use xlink:href="#DejaVuSans-44"/>
      <use xlink:href="#DejaVuSans-65" x="77.001953"/>
      <use xlink:href="#DejaVuSans-6c" x="138.525391"/>
      <use xlink:href="#DejaVuSans-74" x="166.308594"/>
      <use xlink:href="#DejaVuSans-61" x="205.517578"/>
      <use xlink:href="#DejaVuSans-20" x="266.796875"/>
      <use xlink:href="#DejaVuSans-70" x="298.583984"/>
      <use xlink:href="#DejaVuSans-28" x="362.060547"/>
      <use xlink:href="#DejaVuSans-6d" x="401.074219"/>
      <use xlink:href="#DejaVuSans-61" x="498.486328"/>
      <use xlink:href="#DejaVuSans-74" x="559.765625"/>
      <use xlink:href="#DejaVuSans-63" x="598.974609"/>
      <use xlink:href="#DejaVuSans-68" x="653.955078"/>
      <use xlink:href="#DejaVuSans-69" x="717.333984"/>
      <use xlink:href="#DejaVuSans-6e" x="745.117188"/>
      <use xlink:href="#DejaVuSans-67" x="808.496094"/>
      <use xlink:href="#DejaVuSans-20" x="871.972656"/>
      <use xlink:href="#DejaVuSans-62" x="903.759766"/>
      <use xlink:href="#DejaVuSans-65" x="967.236328"/>
      <use xlink:href="#DejaVuSans-68" x="1028.759766"/>
      <use xlink:href="#DejaVuSans-61" x="1092.138672"/>
      <use xlink:href="#DejaVuSans-76" x="1153.417969"/>
      <use xlink:href="#DejaVuSans-69" x="1212.597656"/>
      <use xlink:href="#DejaVuSans-6f" x="1240.380859"/>
      <use xlink:href="#DejaVuSans-75" x="1301.5625"/>
      <use xlink:href="#DejaVuSans-72" x="1364.941406"/>
      <use xlink:href="#DejaVuSans-29" x="1406.054688"/>
     </g>
    </g>
   </g>
   <g id="line2d_25">
    <path d="M 73.832727 131.726876 
L 84.305455 131.678593 
L 94.778182 131.776027 
L 105.250909 131.722208 
L 115.723636 131.318702 
L 126.196364 131.609493 
L 136.669091 131.425852 
L 147.141818 131.832565 
L 157.614545 132.114963 
L 168.087273 131.221508 
L 178.56 131.571854 
L 189.032727 116.984739 
L 199.505455 101.851536 
L 209.978182 105.879167 
L 220.450909 129.506055 
L 230.923636 131.971828 
L 241.396364 132.882677 
L 251.869091 129.986152 
L 262.341818 138.316693 
L 272.814545 138.991845 
L 283.287273 138.30459 
L 293.76 136.834811 
L 304.232727 135.393616 
L 314.705455 134.865671 
L 325.178182 135.859955 
L 335.650909 135.023993 
L 346.123636 136.919197 
L 356.596364 136.235783 
L 367.069091 136.692205 
L 377.541818 135.434717 
L 388.014545 133.733396 
L 398.487273 134.502185 
" clip-path="url(#p82c2863c61)" style="fill: none; stroke: #1f77b4; stroke-width: 2; stroke-linecap: square"/>
   </g>
   <g id="line2d_26">
    <path d="M 73.832727 131.726876 
L 84.305455 131.780501 
L 94.778182 131.940539 
L 105.250909 131.75614 
L 115.723636 131.912435 
L 126.196364 131.739893 
L 136.669091 132.016072 
L 147.141818 131.689285 
L 157.614545 131.275603 
L 168.087273 131.914493 
L 178.56 132.310969 
L 189.032727 106.042727 
L 199.505455 138.715879 
L 209.978182 146.355263 
L 220.450909 129.039769 
L 230.923636 128.93219 
L 241.396364 129.844898 
L 251.869091 132.420854 
L 262.341818 128.181897 
L 272.814545 127.370881 
L 283.287273 127.539843 
L 293.76 127.607652 
L 304.232727 128.932984 
L 314.705455 128.658254 
L 325.178182 128.346857 
L 335.650909 129.365075 
L 346.123636 128.069273 
L 356.596364 126.788437 
L 367.069091 127.038315 
L 377.541818 128.862423 
L 388.014545 130.160138 
L 398.487273 130.044207 
" clip-path="url(#p82c2863c61)" style="fill: none; stroke: #ff7f0e; stroke-width: 3; stroke-linecap: square"/>
   </g>
   <g id="line2d_27">
    <path d="M 73.832727 131.726876 
L 84.305455 133.027851 
L 94.778182 132.566886 
L 105.250909 132.409973 
L 115.723636 133.301718 
L 126.196364 132.608934 
L 136.669091 130.185637 
L 147.141818 136.81861 
L 157.614545 131.724836 
L 168.087273 118.222124 
L 178.56 120.141947 
L 189.032727 84.589921 
L 199.505455 73.19735 
L 209.978182 56.831827 
L 220.450909 64.268531 
L 230.923636 114.247152 
L 241.396364 154.849595 
L 251.869091 148.979479 
L 262.341818 143.452083 
L 272.814545 149.138308 
L 283.287273 150.313542 
L 293.76 150.492389 
L 304.232727 145.627836 
L 314.705455 146.307478 
L 325.178182 142.939257 
L 335.650909 139.952396 
L 346.123636 141.672902 
L 356.596364 141.231074 
L 367.069091 136.195178 
L 377.541818 135.111442 
L 388.014545 133.626448 
L 398.487273 145.009618 
" clip-path="url(#p82c2863c61)" style="fill: none; stroke: #1f77b4; stroke-width: 2; stroke-linecap: square"/>
   </g>
   <g id="line2d_28">
    <path d="M 73.832727 131.726876 
L 84.305455 130.826431 
L 94.778182 131.802491 
L 105.250909 131.189553 
L 115.723636 130.897591 
L 126.196364 131.444725 
L 136.669091 134.329148 
L 147.141818 126.605096 
L 157.614545 133.117376 
L 168.087273 141.085087 
L 178.56 158.752071 
L 189.032727 166.238113 
L 199.505455 159.895734 
L 209.978182 204.487793 
L 220.450909 176.488841 
L 230.923636 175.833575 
L 241.396364 181.987979 
L 251.869091 179.488427 
L 262.341818 125.336713 
L 272.814545 122.767124 
L 283.287273 122.29589 
L 293.76 125.317115 
L 304.232727 124.114679 
L 314.705455 123.040191 
L 325.178182 124.630383 
L 335.650909 128.796556 
L 346.123636 121.690544 
L 356.596364 119.661545 
L 367.069091 124.939058 
L 377.541818 129.714424 
L 388.014545 130.620559 
L 398.487273 128.969829 
" clip-path="url(#p82c2863c61)" style="fill: none; stroke: #ff7f0e; stroke-width: 3; stroke-linecap: square"/>
   </g>
   <g id="line2d_29">
    <path d="M 73.832727 131.726876 
L 84.305455 131.551786 
L 94.778182 131.72019 
L 105.250909 131.160982 
L 115.723636 132.000849 
L 126.196364 131.404972 
L 136.669091 131.525453 
L 147.141818 130.528778 
L 157.614545 128.818687 
L 168.087273 127.805739 
L 178.56 133.504782 
L 189.032727 138.374746 
L 199.505455 124.712626 
L 209.978182 104.008897 
L 220.450909 118.850432 
L 230.923636 125.344415 
L 241.396364 128.843471 
L 251.869091 133.223478 
L 262.341818 135.196837 
L 272.814545 135.590626 
L 283.287273 135.057158 
L 293.76 133.55606 
L 304.232727 133.268989 
L 314.705455 133.169076 
L 325.178182 133.12334 
L 335.650909 132.48773 
L 346.123636 131.837369 
L 356.596364 132.229798 
L 367.069091 131.873577 
L 377.541818 132.422474 
L 388.014545 132.992237 
L 398.487273 132.874991 
" clip-path="url(#p82c2863c61)" style="fill: none; stroke: #1f77b4; stroke-width: 2; stroke-linecap: square"/>
   </g>
   <g id="line2d_30">
    <path d="M 73.832727 131.726876 
L 84.305455 131.748817 
L 94.778182 131.623194 
L 105.250909 132.012172 
L 115.723636 131.849932 
L 126.196364 132.064516 
L 136.669091 132.048745 
L 147.141818 133.062233 
L 157.614545 134.787402 
L 168.087273 148.20171 
L 178.56 176.307145 
L 189.032727 292.47132 
L 199.505455 295.488 
L 209.978182 286.867856 
L 220.450909 176.929447 
L 230.923636 147.880779 
L 241.396364 140.858629 
L 251.869091 132.927054 
L 262.341818 131.954928 
L 272.814545 132.977412 
L 283.287273 131.703083 
L 293.76 132.132622 
L 304.232727 131.958098 
L 314.705455 132.275564 
L 325.178182 131.90309 
L 335.650909 132.717807 
L 346.123636 132.64842 
L 356.596364 133.341695 
L 367.069091 133.277107 
L 377.541818 132.289428 
L 388.014545 131.631258 
L 398.487273 131.473266 
" clip-path="url(#p82c2863c61)" style="fill: none; stroke: #ff7f0e; stroke-width: 3; stroke-linecap: square"/>
   </g>
   <g id="line2d_31">
    <path d="M 73.832727 131.726876 
L 84.305455 131.447054 
L 94.778182 131.162322 
L 105.250909 131.684385 
L 115.723636 132.490707 
L 126.196364 132.552877 
L 136.669091 132.193358 
L 147.141818 128.994942 
L 157.614545 123.232062 
L 168.087273 118.357179 
L 178.56 102.142575 
L 189.032727 85.200905 
L 199.505455 120.992713 
L 209.978182 120.876708 
L 220.450909 142.023281 
L 230.923636 204.865793 
L 241.396364 190.339021 
L 251.869091 260.305521 
L 262.341818 123.769077 
L 272.814545 135.883968 
L 283.287273 141.75722 
L 293.76 153.222226 
L 304.232727 150.711707 
L 314.705455 150.160324 
L 325.178182 145.039179 
L 335.650909 130.698816 
L 346.123636 131.616823 
L 356.596364 126.930093 
L 367.069091 129.813071 
L 377.541818 136.210095 
L 388.014545 140.77971 
L 398.487273 151.961329 
" clip-path="url(#p82c2863c61)" style="fill: none; stroke: #1f77b4; stroke-width: 2; stroke-linecap: square"/>
   </g>
   <g id="line2d_32">
    <path d="M 73.832727 131.726876 
L 84.305455 132.066454 
L 94.778182 132.851313 
L 105.250909 132.796318 
L 115.723636 131.97307 
L 126.196364 131.383348 
L 136.669091 132.321285 
L 147.141818 135.341139 
L 157.614545 141.701521 
L 168.087273 149.709328 
L 178.56 174.208828 
L 189.032727 165.39322 
L 199.505455 198.639741 
L 209.978182 214.282458 
L 220.450909 219.09171 
L 230.923636 227.013811 
L 241.396364 222.292041 
L 251.869091 210.84445 
L 262.341818 168.027996 
L 272.814545 168.334065 
L 283.287273 167.746744 
L 293.76 162.907047 
L 304.232727 155.113042 
L 314.705455 154.27789 
L 325.178182 146.105186 
L 335.650909 148.609124 
L 346.123636 135.318717 
L 356.596364 144.730464 
L 367.069091 138.758771 
L 377.541818 137.740155 
L 388.014545 132.174945 
L 398.487273 140.737557 
" clip-path="url(#p82c2863c61)" style="fill: none; stroke: #ff7f0e; stroke-width: 3; stroke-linecap: square"/>
   </g>
   <g id="line2d_33">
    <path d="M 73.832727 131.726876 
L 84.305455 132.252626 
L 94.778182 132.634285 
L 105.250909 132.75957 
L 115.723636 132.469188 
L 126.196364 132.318882 
L 136.669091 130.78761 
L 147.141818 131.759732 
L 157.614545 129.443618 
L 168.087273 115.902819 
L 178.56 107.32449 
L 189.032727 88.170809 
L 199.505455 89.495918 
L 209.978182 94.316545 
L 220.450909 153.463194 
L 230.923636 133.764307 
L 241.396364 140.054084 
L 251.869091 140.758688 
L 262.341818 135.830417 
L 272.814545 134.650905 
L 283.287273 133.208084 
L 293.76 132.992687 
L 304.232727 133.071569 
L 314.705455 133.953419 
L 325.178182 131.335975 
L 335.650909 131.572749 
L 346.123636 132.029805 
L 356.596364 132.524929 
L 367.069091 132.401193 
L 377.541818 131.561598 
L 388.014545 132.227925 
L 398.487273 132.073522 
" clip-path="url(#p82c2863c61)" style="fill: none; stroke: #1f77b4; stroke-width: 2; stroke-linecap: square"/>
   </g>
   <g id="line2d_34">
    <path d="M 73.832727 131.726876 
L 84.305455 130.9449 
L 94.778182 130.910616 
L 105.250909 131.078177 
L 115.723636 130.758201 
L 126.196364 131.087895 
L 136.669091 132.305679 
L 147.141818 131.696948 
L 157.614545 136.120869 
L 168.087273 146.928403 
L 178.56 138.616107 
L 189.032727 138.886201 
L 199.505455 197.673809 
L 209.978182 258.897163 
L 220.450909 206.16326 
L 230.923636 157.497344 
L 241.396364 152.044551 
L 251.869091 142.122676 
L 262.341818 133.011702 
L 272.814545 133.35943 
L 283.287273 132.732444 
L 293.76 133.214884 
L 304.232727 132.150585 
L 314.705455 132.239877 
L 325.178182 132.402949 
L 335.650909 132.065547 
L 346.123636 132.07836 
L 356.596364 131.880531 
L 367.069091 133.008729 
L 377.541818 132.764427 
L 388.014545 132.242846 
L 398.487273 135.053525 
" clip-path="url(#p82c2863c61)" style="fill: none; stroke: #ff7f0e; stroke-width: 3; stroke-linecap: square"/>
   </g>
   <g id="line2d_35">
    <path d="M 73.832727 131.726876 
L 84.305455 137.568693 
L 94.778182 136.750577 
L 105.250909 134.92916 
L 115.723636 137.54565 
L 126.196364 134.636946 
L 136.669091 128.95477 
L 147.141818 139.677585 
L 157.614545 137.667316 
L 168.087273 130.619411 
L 178.56 130.178592 
L 189.032727 93.794842 
L 199.505455 53.568 
L 209.978182 59.584557 
L 220.450909 75.344861 
L 230.923636 98.029849 
L 241.396364 114.217833 
L 251.869091 104.833903 
L 262.341818 122.763854 
L 272.814545 128.160222 
L 283.287273 124.83621 
L 293.76 124.599962 
L 304.232727 126.770648 
L 314.705455 126.430313 
L 325.178182 135.721757 
L 335.650909 136.792287 
L 346.123636 139.755921 
L 356.596364 137.058457 
L 367.069091 135.242055 
L 377.541818 137.647861 
L 388.014545 136.23264 
L 398.487273 140.513143 
" clip-path="url(#p82c2863c61)" style="fill: none; stroke: #1f77b4; stroke-width: 2; stroke-linecap: square"/>
   </g>
   <g id="line2d_36">
    <path d="M 73.832727 131.726876 
L 84.305455 129.415486 
L 94.778182 130.035222 
L 105.250909 129.965937 
L 115.723636 125.426469 
L 126.196364 127.649675 
L 136.669091 133.240819 
L 147.141818 128.887335 
L 157.614545 135.849438 
L 168.087273 134.742224 
L 178.56 136.470835 
L 189.032727 132.505143 
L 199.505455 137.062005 
L 209.978182 126.13351 
L 220.450909 132.210017 
L 230.923636 138.752886 
L 241.396364 145.290589 
L 251.869091 143.225799 
L 262.341818 140.827561 
L 272.814545 138.638521 
L 283.287273 140.284961 
L 293.76 137.597971 
L 304.232727 137.799363 
L 314.705455 139.410277 
L 325.178182 131.023089 
L 335.650909 129.307762 
L 346.123636 126.092897 
L 356.596364 127.5705 
L 367.069091 131.415909 
L 377.541818 128.34397 
L 388.014545 130.761067 
L 398.487273 128.942403 
" clip-path="url(#p82c2863c61)" style="fill: none; stroke: #ff7f0e; stroke-width: 3; stroke-linecap: square"/>
   </g>
   <g id="line2d_37">
    <path d="M 73.832727 131.726876 
L 84.305455 131.084095 
L 94.778182 130.913231 
L 105.250909 131.48271 
L 115.723636 130.926626 
L 126.196364 131.397255 
L 136.669091 132.475318 
L 147.141818 132.347595 
L 157.614545 129.997869 
L 168.087273 130.588192 
L 178.56 127.387483 
L 189.032727 111.61863 
L 199.505455 104.660116 
L 209.978182 111.986879 
L 220.450909 111.808035 
L 230.923636 113.425401 
L 241.396364 121.280011 
L 251.869091 122.437997 
L 262.341818 125.173405 
L 272.814545 126.670597 
L 283.287273 128.498676 
L 293.76 128.686052 
L 304.232727 128.028974 
L 314.705455 129.522168 
L 325.178182 129.157002 
L 335.650909 130.308582 
L 346.123636 129.997499 
L 356.596364 130.172596 
L 367.069091 129.253576 
L 377.541818 130.098483 
L 388.014545 130.059897 
L 398.487273 134.120699 
" clip-path="url(#p82c2863c61)" style="fill: none; stroke: #1f77b4; stroke-width: 2; stroke-linecap: square"/>
   </g>
   <g id="line2d_38">
    <path d="M 73.832727 131.726876 
L 84.305455 132.68615 
L 94.778182 132.463165 
L 105.250909 132.648928 
L 115.723636 133.547834 
L 126.196364 132.442242 
L 136.669091 131.323593 
L 147.141818 131.790505 
L 157.614545 133.660573 
L 168.087273 133.462751 
L 178.56 136.216506 
L 189.032727 155.004598 
L 199.505455 164.631408 
L 209.978182 158.51645 
L 220.450909 157.690083 
L 230.923636 152.084715 
L 241.396364 142.814529 
L 251.869091 140.781932 
L 262.341818 138.590162 
L 272.814545 136.958919 
L 283.287273 135.106591 
L 293.76 134.893398 
L 304.232727 135.506406 
L 314.705455 133.961518 
L 325.178182 134.595118 
L 335.650909 133.701855 
L 346.123636 133.722905 
L 356.596364 133.435562 
L 367.069091 134.399546 
L 377.541818 133.055595 
L 388.014545 134.614785 
L 398.487273 130.25883 
" clip-path="url(#p82c2863c61)" style="fill: none; stroke: #ff7f0e; stroke-width: 3; stroke-linecap: square"/>
   </g>
   <g id="patch_3">
    <path d="M 57.6 307.584 
L 57.6 41.472 
" style="fill: none; stroke: #000000; stroke-width: 0.8; stroke-linejoin: miter; stroke-linecap: square"/>
   </g>
   <g id="patch_4">
    <path d="M 414.72 307.584 
L 414.72 41.472 
" style="fill: none; stroke: #000000; stroke-width: 0.8; stroke-linejoin: miter; stroke-linecap: square"/>
   </g>
   <g id="patch_5">
    <path d="M 57.6 307.584 
L 414.72 307.584 
" style="fill: none; stroke: #000000; stroke-width: 0.8; stroke-linejoin: miter; stroke-linecap: square"/>
   </g>
   <g id="patch_6">
    <path d="M 57.6 41.472 
L 414.72 41.472 
" style="fill: none; stroke: #000000; stroke-width: 0.8; stroke-linejoin: miter; stroke-linecap: square"/>
   </g>
  </g>
 </g>
 <defs>
  <clipPath id="p82c2863c61">
   <rect x="57.6" y="41.472" width="357.12" height="266.112"/>
  </clipPath>
 </defs>
</svg>
