<?xml version="1.0" encoding="utf-8" standalone="no"?>
<!DOCTYPE svg PUBLIC "-//W3C//DTD SVG 1.1//EN"
  "http://www.w3.org/Graphics/SVG/1.1/DTD/svg11.dtd">
<svg xmlns:xlink="http://www.w3.org/1999/xlink" width="460.8pt" height="345.6pt" viewBox="0 0 460.8 345.6" xmlns="http://www.w3.org/2000/svg" version="1.1">
 <metadata>
  <rdf:RDF xmlns:dc="http://purl.org/dc/elements/1.1/" xmlns:cc="http://creativecommons.org/ns#" xmlns:rdf="http://www.w3.org/1999/02/22-rdf-syntax-ns#">
   <cc:Work>
    <dc:type rdf:resource="http://purl.org/dc/dcmitype/StillImage"/>
    <dc:date>2024-03-26T09:57:03.069374</dc:date>
    <dc:format>image/svg+xml</dc:format>
    <dc:creator>
     <cc:Agent>
      <dc:title>Matplotlib v3.8.3, https://matplotlib.org/</dc:title>
     </cc:Agent>
    </dc:creator>
   </cc:Work>
  </rdf:RDF>
 </metadata>
 <defs>
  <style type="text/css">*{stroke-linejoin: round; stroke-linecap: butt}</style>
 </defs>
 <g id="figure_1">
  <g id="patch_1">
   <path d="M 0 345.6 
L 460.8 345.6 
L 460.8 0 
L 0 0 
z
" style="fill: #ffffff"/>
  </g>
  <g id="axes_1">
   <g id="patch_2">
    <path d="M 57.6 307.584 
L 414.72 307.584 
L 414.72 41.472 
L 57.6 41.472 
z
" style="fill: #ffffff"/>
   </g>
   <g id="matplotlib.axis_1">
    <g id="xtick_1">
     <g id="line2d_1">
      <path d="M 73.832727 307.584 
L 73.832727 41.472 
" clip-path="url(#p589adc8360)" style="fill: none; stroke: #b0b0b0; stroke-width: 0.8; stroke-linecap: square"/>
     </g>
     <g id="line2d_2">
      <defs>
       <path id="m966eb36657" d="M 0 0 
L 0 3.5 
" style="stroke: #000000; stroke-width: 0.8"/>
      </defs>
      <g>
       <use xlink:href="#m966eb36657" x="73.832727" y="307.584" style="stroke: #000000; stroke-width: 0.8"/>
      </g>
     </g>
     <g id="text_1">
      <!-- 0 -->
      <g transform="translate(70.651477 322.182437) scale(0.1 -0.1)">
       <defs>
        <path id="DejaVuSans-30" d="M 2034 4250 
Q 1547 4250 1301 3770 
Q 1056 3291 1056 2328 
Q 1056 1369 1301 889 
Q 1547 409 2034 409 
Q 2525 409 2770 889 
Q 3016 1369 3016 2328 
Q 3016 3291 2770 3770 
Q 2525 4250 2034 4250 
z
M 2034 4750 
Q 2819 4750 3233 4129 
Q 3647 3509 3647 2328 
Q 3647 1150 3233 529 
Q 2819 -91 2034 -91 
Q 1250 -91 836 529 
Q 422 1150 422 2328 
Q 422 3509 836 4129 
Q 1250 4750 2034 4750 
z
" transform="scale(0.015625)"/>
       </defs>
       <use xlink:href="#DejaVuSans-30"/>
      </g>
     </g>
    </g>
    <g id="xtick_2">
     <g id="line2d_3">
      <path d="M 126.196364 307.584 
L 126.196364 41.472 
" clip-path="url(#p589adc8360)" style="fill: none; stroke: #b0b0b0; stroke-width: 0.8; stroke-linecap: square"/>
     </g>
     <g id="line2d_4">
      <g>
       <use xlink:href="#m966eb36657" x="126.196364" y="307.584" style="stroke: #000000; stroke-width: 0.8"/>
      </g>
     </g>
     <g id="text_2">
      <!-- 5 -->
      <g transform="translate(123.015114 322.182437) scale(0.1 -0.1)">
       <defs>
        <path id="DejaVuSans-35" d="M 691 4666 
L 3169 4666 
L 3169 4134 
L 1269 4134 
L 1269 2991 
Q 1406 3038 1543 3061 
Q 1681 3084 1819 3084 
Q 2600 3084 3056 2656 
Q 3513 2228 3513 1497 
Q 3513 744 3044 326 
Q 2575 -91 1722 -91 
Q 1428 -91 1123 -41 
Q 819 9 494 109 
L 494 744 
Q 775 591 1075 516 
Q 1375 441 1709 441 
Q 2250 441 2565 725 
Q 2881 1009 2881 1497 
Q 2881 1984 2565 2268 
Q 2250 2553 1709 2553 
Q 1456 2553 1204 2497 
Q 953 2441 691 2322 
L 691 4666 
z
" transform="scale(0.015625)"/>
       </defs>
       <use xlink:href="#DejaVuSans-35"/>
      </g>
     </g>
    </g>
    <g id="xtick_3">
     <g id="line2d_5">
      <path d="M 178.56 307.584 
L 178.56 41.472 
" clip-path="url(#p589adc8360)" style="fill: none; stroke: #b0b0b0; stroke-width: 0.8; stroke-linecap: square"/>
     </g>
     <g id="line2d_6">
      <g>
       <use xlink:href="#m966eb36657" x="178.56" y="307.584" style="stroke: #000000; stroke-width: 0.8"/>
      </g>
     </g>
     <g id="text_3">
      <!-- 10 -->
      <g transform="translate(172.1975 322.182437) scale(0.1 -0.1)">
       <defs>
        <path id="DejaVuSans-31" d="M 794 531 
L 1825 531 
L 1825 4091 
L 703 3866 
L 703 4441 
L 1819 4666 
L 2450 4666 
L 2450 531 
L 3481 531 
L 3481 0 
L 794 0 
L 794 531 
z
" transform="scale(0.015625)"/>
       </defs>
       <use xlink:href="#DejaVuSans-31"/>
       <use xlink:href="#DejaVuSans-30" x="63.623047"/>
      </g>
     </g>
    </g>
    <g id="xtick_4">
     <g id="line2d_7">
      <path d="M 230.923636 307.584 
L 230.923636 41.472 
" clip-path="url(#p589adc8360)" style="fill: none; stroke: #b0b0b0; stroke-width: 0.8; stroke-linecap: square"/>
     </g>
     <g id="line2d_8">
      <g>
       <use xlink:href="#m966eb36657" x="230.923636" y="307.584" style="stroke: #000000; stroke-width: 0.8"/>
      </g>
     </g>
     <g id="text_4">
      <!-- 15 -->
      <g transform="translate(224.561136 322.182437) scale(0.1 -0.1)">
       <use xlink:href="#DejaVuSans-31"/>
       <use xlink:href="#DejaVuSans-35" x="63.623047"/>
      </g>
     </g>
    </g>
    <g id="xtick_5">
     <g id="line2d_9">
      <path d="M 283.287273 307.584 
L 283.287273 41.472 
" clip-path="url(#p589adc8360)" style="fill: none; stroke: #b0b0b0; stroke-width: 0.8; stroke-linecap: square"/>
     </g>
     <g id="line2d_10">
      <g>
       <use xlink:href="#m966eb36657" x="283.287273" y="307.584" style="stroke: #000000; stroke-width: 0.8"/>
      </g>
     </g>
     <g id="text_5">
      <!-- 20 -->
      <g transform="translate(276.924773 322.182437) scale(0.1 -0.1)">
       <defs>
        <path id="DejaVuSans-32" d="M 1228 531 
L 3431 531 
L 3431 0 
L 469 0 
L 469 531 
Q 828 903 1448 1529 
Q 2069 2156 2228 2338 
Q 2531 2678 2651 2914 
Q 2772 3150 2772 3378 
Q 2772 3750 2511 3984 
Q 2250 4219 1831 4219 
Q 1534 4219 1204 4116 
Q 875 4013 500 3803 
L 500 4441 
Q 881 4594 1212 4672 
Q 1544 4750 1819 4750 
Q 2544 4750 2975 4387 
Q 3406 4025 3406 3419 
Q 3406 3131 3298 2873 
Q 3191 2616 2906 2266 
Q 2828 2175 2409 1742 
Q 1991 1309 1228 531 
z
" transform="scale(0.015625)"/>
       </defs>
       <use xlink:href="#DejaVuSans-32"/>
       <use xlink:href="#DejaVuSans-30" x="63.623047"/>
      </g>
     </g>
    </g>
    <g id="xtick_6">
     <g id="line2d_11">
      <path d="M 335.650909 307.584 
L 335.650909 41.472 
" clip-path="url(#p589adc8360)" style="fill: none; stroke: #b0b0b0; stroke-width: 0.8; stroke-linecap: square"/>
     </g>
     <g id="line2d_12">
      <g>
       <use xlink:href="#m966eb36657" x="335.650909" y="307.584" style="stroke: #000000; stroke-width: 0.8"/>
      </g>
     </g>
     <g id="text_6">
      <!-- 25 -->
      <g transform="translate(329.288409 322.182437) scale(0.1 -0.1)">
       <use xlink:href="#DejaVuSans-32"/>
       <use xlink:href="#DejaVuSans-35" x="63.623047"/>
      </g>
     </g>
    </g>
    <g id="xtick_7">
     <g id="line2d_13">
      <path d="M 388.014545 307.584 
L 388.014545 41.472 
" clip-path="url(#p589adc8360)" style="fill: none; stroke: #b0b0b0; stroke-width: 0.8; stroke-linecap: square"/>
     </g>
     <g id="line2d_14">
      <g>
       <use xlink:href="#m966eb36657" x="388.014545" y="307.584" style="stroke: #000000; stroke-width: 0.8"/>
      </g>
     </g>
     <g id="text_7">
      <!-- 30 -->
      <g transform="translate(381.652045 322.182437) scale(0.1 -0.1)">
       <defs>
        <path id="DejaVuSans-33" d="M 2597 2516 
Q 3050 2419 3304 2112 
Q 3559 1806 3559 1356 
Q 3559 666 3084 287 
Q 2609 -91 1734 -91 
Q 1441 -91 1130 -33 
Q 819 25 488 141 
L 488 750 
Q 750 597 1062 519 
Q 1375 441 1716 441 
Q 2309 441 2620 675 
Q 2931 909 2931 1356 
Q 2931 1769 2642 2001 
Q 2353 2234 1838 2234 
L 1294 2234 
L 1294 2753 
L 1863 2753 
Q 2328 2753 2575 2939 
Q 2822 3125 2822 3475 
Q 2822 3834 2567 4026 
Q 2313 4219 1838 4219 
Q 1578 4219 1281 4162 
Q 984 4106 628 3988 
L 628 4550 
Q 988 4650 1302 4700 
Q 1616 4750 1894 4750 
Q 2613 4750 3031 4423 
Q 3450 4097 3450 3541 
Q 3450 3153 3228 2886 
Q 3006 2619 2597 2516 
z
" transform="scale(0.015625)"/>
       </defs>
       <use xlink:href="#DejaVuSans-33"/>
       <use xlink:href="#DejaVuSans-30" x="63.623047"/>
      </g>
     </g>
    </g>
    <g id="text_8">
     <!-- Layer -->
     <g transform="translate(222.218594 335.860562) scale(0.1 -0.1)">
      <defs>
       <path id="DejaVuSans-4c" d="M 628 4666 
L 1259 4666 
L 1259 531 
L 3531 531 
L 3531 0 
L 628 0 
L 628 4666 
z
" transform="scale(0.015625)"/>
       <path id="DejaVuSans-61" d="M 2194 1759 
Q 1497 1759 1228 1600 
Q 959 1441 959 1056 
Q 959 750 1161 570 
Q 1363 391 1709 391 
Q 2188 391 2477 730 
Q 2766 1069 2766 1631 
L 2766 1759 
L 2194 1759 
z
M 3341 1997 
L 3341 0 
L 2766 0 
L 2766 531 
Q 2569 213 2275 61 
Q 1981 -91 1556 -91 
Q 1019 -91 701 211 
Q 384 513 384 1019 
Q 384 1609 779 1909 
Q 1175 2209 1959 2209 
L 2766 2209 
L 2766 2266 
Q 2766 2663 2505 2880 
Q 2244 3097 1772 3097 
Q 1472 3097 1187 3025 
Q 903 2953 641 2809 
L 641 3341 
Q 956 3463 1253 3523 
Q 1550 3584 1831 3584 
Q 2591 3584 2966 3190 
Q 3341 2797 3341 1997 
z
" transform="scale(0.015625)"/>
       <path id="DejaVuSans-79" d="M 2059 -325 
Q 1816 -950 1584 -1140 
Q 1353 -1331 966 -1331 
L 506 -1331 
L 506 -850 
L 844 -850 
Q 1081 -850 1212 -737 
Q 1344 -625 1503 -206 
L 1606 56 
L 191 3500 
L 800 3500 
L 1894 763 
L 2988 3500 
L 3597 3500 
L 2059 -325 
z
" transform="scale(0.015625)"/>
       <path id="DejaVuSans-65" d="M 3597 1894 
L 3597 1613 
L 953 1613 
Q 991 1019 1311 708 
Q 1631 397 2203 397 
Q 2534 397 2845 478 
Q 3156 559 3463 722 
L 3463 178 
Q 3153 47 2828 -22 
Q 2503 -91 2169 -91 
Q 1331 -91 842 396 
Q 353 884 353 1716 
Q 353 2575 817 3079 
Q 1281 3584 2069 3584 
Q 2775 3584 3186 3129 
Q 3597 2675 3597 1894 
z
M 3022 2063 
Q 3016 2534 2758 2815 
Q 2500 3097 2075 3097 
Q 1594 3097 1305 2825 
Q 1016 2553 972 2059 
L 3022 2063 
z
" transform="scale(0.015625)"/>
       <path id="DejaVuSans-72" d="M 2631 2963 
Q 2534 3019 2420 3045 
Q 2306 3072 2169 3072 
Q 1681 3072 1420 2755 
Q 1159 2438 1159 1844 
L 1159 0 
L 581 0 
L 581 3500 
L 1159 3500 
L 1159 2956 
Q 1341 3275 1631 3429 
Q 1922 3584 2338 3584 
Q 2397 3584 2469 3576 
Q 2541 3569 2628 3553 
L 2631 2963 
z
" transform="scale(0.015625)"/>
      </defs>
      <use xlink:href="#DejaVuSans-4c"/>
      <use xlink:href="#DejaVuSans-61" x="55.712891"/>
      <use xlink:href="#DejaVuSans-79" x="116.992188"/>
      <use xlink:href="#DejaVuSans-65" x="176.171875"/>
      <use xlink:href="#DejaVuSans-72" x="237.695312"/>
     </g>
    </g>
   </g>
   <g id="matplotlib.axis_2">
    <g id="ytick_1">
     <g id="line2d_15">
      <path d="M 57.6 288.841143 
L 414.72 288.841143 
" clip-path="url(#p589adc8360)" style="fill: none; stroke: #b0b0b0; stroke-width: 0.8; stroke-linecap: square"/>
     </g>
     <g id="line2d_16">
      <defs>
       <path id="m7d069f474e" d="M 0 0 
L -3.5 0 
" style="stroke: #000000; stroke-width: 0.8"/>
      </defs>
      <g>
       <use xlink:href="#m7d069f474e" x="57.6" y="288.841143" style="stroke: #000000; stroke-width: 0.8"/>
      </g>
     </g>
     <g id="text_9">
      <!-- −20 -->
      <g transform="translate(29.495313 292.640362) scale(0.1 -0.1)">
       <defs>
        <path id="DejaVuSans-2212" d="M 678 2272 
L 4684 2272 
L 4684 1741 
L 678 1741 
L 678 2272 
z
" transform="scale(0.015625)"/>
       </defs>
       <use xlink:href="#DejaVuSans-2212"/>
       <use xlink:href="#DejaVuSans-32" x="83.789062"/>
       <use xlink:href="#DejaVuSans-30" x="147.412109"/>
      </g>
     </g>
    </g>
    <g id="ytick_2">
     <g id="line2d_17">
      <path d="M 57.6 258.042355 
L 414.72 258.042355 
" clip-path="url(#p589adc8360)" style="fill: none; stroke: #b0b0b0; stroke-width: 0.8; stroke-linecap: square"/>
     </g>
     <g id="line2d_18">
      <g>
       <use xlink:href="#m7d069f474e" x="57.6" y="258.042355" style="stroke: #000000; stroke-width: 0.8"/>
      </g>
     </g>
     <g id="text_10">
      <!-- −15 -->
      <g transform="translate(29.495313 261.841573) scale(0.1 -0.1)">
       <use xlink:href="#DejaVuSans-2212"/>
       <use xlink:href="#DejaVuSans-31" x="83.789062"/>
       <use xlink:href="#DejaVuSans-35" x="147.412109"/>
      </g>
     </g>
    </g>
    <g id="ytick_3">
     <g id="line2d_19">
      <path d="M 57.6 227.243566 
L 414.72 227.243566 
" clip-path="url(#p589adc8360)" style="fill: none; stroke: #b0b0b0; stroke-width: 0.8; stroke-linecap: square"/>
     </g>
     <g id="line2d_20">
      <g>
       <use xlink:href="#m7d069f474e" x="57.6" y="227.243566" style="stroke: #000000; stroke-width: 0.8"/>
      </g>
     </g>
     <g id="text_11">
      <!-- −10 -->
      <g transform="translate(29.495313 231.042785) scale(0.1 -0.1)">
       <use xlink:href="#DejaVuSans-2212"/>
       <use xlink:href="#DejaVuSans-31" x="83.789062"/>
       <use xlink:href="#DejaVuSans-30" x="147.412109"/>
      </g>
     </g>
    </g>
    <g id="ytick_4">
     <g id="line2d_21">
      <path d="M 57.6 196.444777 
L 414.72 196.444777 
" clip-path="url(#p589adc8360)" style="fill: none; stroke: #b0b0b0; stroke-width: 0.8; stroke-linecap: square"/>
     </g>
     <g id="line2d_22">
      <g>
       <use xlink:href="#m7d069f474e" x="57.6" y="196.444777" style="stroke: #000000; stroke-width: 0.8"/>
      </g>
     </g>
     <g id="text_12">
      <!-- −5 -->
      <g transform="translate(35.857813 200.243996) scale(0.1 -0.1)">
       <use xlink:href="#DejaVuSans-2212"/>
       <use xlink:href="#DejaVuSans-35" x="83.789062"/>
      </g>
     </g>
    </g>
    <g id="ytick_5">
     <g id="line2d_23">
      <path d="M 57.6 165.645988 
L 414.72 165.645988 
" clip-path="url(#p589adc8360)" style="fill: none; stroke: #b0b0b0; stroke-width: 0.8; stroke-linecap: square"/>
     </g>
     <g id="line2d_24">
      <g>
       <use xlink:href="#m7d069f474e" x="57.6" y="165.645988" style="stroke: #000000; stroke-width: 0.8"/>
      </g>
     </g>
     <g id="text_13">
      <!-- 0 -->
      <g transform="translate(44.2375 169.445207) scale(0.1 -0.1)">
       <use xlink:href="#DejaVuSans-30"/>
      </g>
     </g>
    </g>
    <g id="ytick_6">
     <g id="line2d_25">
      <path d="M 57.6 134.8472 
L 414.72 134.8472 
" clip-path="url(#p589adc8360)" style="fill: none; stroke: #b0b0b0; stroke-width: 0.8; stroke-linecap: square"/>
     </g>
     <g id="line2d_26">
      <g>
       <use xlink:href="#m7d069f474e" x="57.6" y="134.8472" style="stroke: #000000; stroke-width: 0.8"/>
      </g>
     </g>
     <g id="text_14">
      <!-- 5 -->
      <g transform="translate(44.2375 138.646418) scale(0.1 -0.1)">
       <use xlink:href="#DejaVuSans-35"/>
      </g>
     </g>
    </g>
    <g id="ytick_7">
     <g id="line2d_27">
      <path d="M 57.6 104.048411 
L 414.72 104.048411 
" clip-path="url(#p589adc8360)" style="fill: none; stroke: #b0b0b0; stroke-width: 0.8; stroke-linecap: square"/>
     </g>
     <g id="line2d_28">
      <g>
       <use xlink:href="#m7d069f474e" x="57.6" y="104.048411" style="stroke: #000000; stroke-width: 0.8"/>
      </g>
     </g>
     <g id="text_15">
      <!-- 10 -->
      <g transform="translate(37.875 107.84763) scale(0.1 -0.1)">
       <use xlink:href="#DejaVuSans-31"/>
       <use xlink:href="#DejaVuSans-30" x="63.623047"/>
      </g>
     </g>
    </g>
    <g id="ytick_8">
     <g id="line2d_29">
      <path d="M 57.6 73.249622 
L 414.72 73.249622 
" clip-path="url(#p589adc8360)" style="fill: none; stroke: #b0b0b0; stroke-width: 0.8; stroke-linecap: square"/>
     </g>
     <g id="line2d_30">
      <g>
       <use xlink:href="#m7d069f474e" x="57.6" y="73.249622" style="stroke: #000000; stroke-width: 0.8"/>
      </g>
     </g>
     <g id="text_16">
      <!-- 15 -->
      <g transform="translate(37.875 77.048841) scale(0.1 -0.1)">
       <use xlink:href="#DejaVuSans-31"/>
       <use xlink:href="#DejaVuSans-35" x="63.623047"/>
      </g>
     </g>
    </g>
    <g id="ytick_9">
     <g id="line2d_31">
      <path d="M 57.6 42.450834 
L 414.72 42.450834 
" clip-path="url(#p589adc8360)" style="fill: none; stroke: #b0b0b0; stroke-width: 0.8; stroke-linecap: square"/>
     </g>
     <g id="line2d_32">
      <g>
       <use xlink:href="#m7d069f474e" x="57.6" y="42.450834" style="stroke: #000000; stroke-width: 0.8"/>
      </g>
     </g>
     <g id="text_17">
      <!-- 20 -->
      <g transform="translate(37.875 46.250052) scale(0.1 -0.1)">
       <use xlink:href="#DejaVuSans-32"/>
       <use xlink:href="#DejaVuSans-30" x="63.623047"/>
      </g>
     </g>
    </g>
    <g id="text_18">
     <!-- Delta p(matching behaviour) -->
     <g transform="translate(23.415625 246.781906) rotate(-90) scale(0.1 -0.1)">
      <defs>
       <path id="DejaVuSans-44" d="M 1259 4147 
L 1259 519 
L 2022 519 
Q 2988 519 3436 956 
Q 3884 1394 3884 2338 
Q 3884 3275 3436 3711 
Q 2988 4147 2022 4147 
L 1259 4147 
z
M 628 4666 
L 1925 4666 
Q 3281 4666 3915 4102 
Q 4550 3538 4550 2338 
Q 4550 1131 3912 565 
Q 3275 0 1925 0 
L 628 0 
L 628 4666 
z
" transform="scale(0.015625)"/>
       <path id="DejaVuSans-6c" d="M 603 4863 
L 1178 4863 
L 1178 0 
L 603 0 
L 603 4863 
z
" transform="scale(0.015625)"/>
       <path id="DejaVuSans-74" d="M 1172 4494 
L 1172 3500 
L 2356 3500 
L 2356 3053 
L 1172 3053 
L 1172 1153 
Q 1172 725 1289 603 
Q 1406 481 1766 481 
L 2356 481 
L 2356 0 
L 1766 0 
Q 1100 0 847 248 
Q 594 497 594 1153 
L 594 3053 
L 172 3053 
L 172 3500 
L 594 3500 
L 594 4494 
L 1172 4494 
z
" transform="scale(0.015625)"/>
       <path id="DejaVuSans-20" transform="scale(0.015625)"/>
       <path id="DejaVuSans-70" d="M 1159 525 
L 1159 -1331 
L 581 -1331 
L 581 3500 
L 1159 3500 
L 1159 2969 
Q 1341 3281 1617 3432 
Q 1894 3584 2278 3584 
Q 2916 3584 3314 3078 
Q 3713 2572 3713 1747 
Q 3713 922 3314 415 
Q 2916 -91 2278 -91 
Q 1894 -91 1617 61 
Q 1341 213 1159 525 
z
M 3116 1747 
Q 3116 2381 2855 2742 
Q 2594 3103 2138 3103 
Q 1681 3103 1420 2742 
Q 1159 2381 1159 1747 
Q 1159 1113 1420 752 
Q 1681 391 2138 391 
Q 2594 391 2855 752 
Q 3116 1113 3116 1747 
z
" transform="scale(0.015625)"/>
       <path id="DejaVuSans-28" d="M 1984 4856 
Q 1566 4138 1362 3434 
Q 1159 2731 1159 2009 
Q 1159 1288 1364 580 
Q 1569 -128 1984 -844 
L 1484 -844 
Q 1016 -109 783 600 
Q 550 1309 550 2009 
Q 550 2706 781 3412 
Q 1013 4119 1484 4856 
L 1984 4856 
z
" transform="scale(0.015625)"/>
       <path id="DejaVuSans-6d" d="M 3328 2828 
Q 3544 3216 3844 3400 
Q 4144 3584 4550 3584 
Q 5097 3584 5394 3201 
Q 5691 2819 5691 2113 
L 5691 0 
L 5113 0 
L 5113 2094 
Q 5113 2597 4934 2840 
Q 4756 3084 4391 3084 
Q 3944 3084 3684 2787 
Q 3425 2491 3425 1978 
L 3425 0 
L 2847 0 
L 2847 2094 
Q 2847 2600 2669 2842 
Q 2491 3084 2119 3084 
Q 1678 3084 1418 2786 
Q 1159 2488 1159 1978 
L 1159 0 
L 581 0 
L 581 3500 
L 1159 3500 
L 1159 2956 
Q 1356 3278 1631 3431 
Q 1906 3584 2284 3584 
Q 2666 3584 2933 3390 
Q 3200 3197 3328 2828 
z
" transform="scale(0.015625)"/>
       <path id="DejaVuSans-63" d="M 3122 3366 
L 3122 2828 
Q 2878 2963 2633 3030 
Q 2388 3097 2138 3097 
Q 1578 3097 1268 2742 
Q 959 2388 959 1747 
Q 959 1106 1268 751 
Q 1578 397 2138 397 
Q 2388 397 2633 464 
Q 2878 531 3122 666 
L 3122 134 
Q 2881 22 2623 -34 
Q 2366 -91 2075 -91 
Q 1284 -91 818 406 
Q 353 903 353 1747 
Q 353 2603 823 3093 
Q 1294 3584 2113 3584 
Q 2378 3584 2631 3529 
Q 2884 3475 3122 3366 
z
" transform="scale(0.015625)"/>
       <path id="DejaVuSans-68" d="M 3513 2113 
L 3513 0 
L 2938 0 
L 2938 2094 
Q 2938 2591 2744 2837 
Q 2550 3084 2163 3084 
Q 1697 3084 1428 2787 
Q 1159 2491 1159 1978 
L 1159 0 
L 581 0 
L 581 4863 
L 1159 4863 
L 1159 2956 
Q 1366 3272 1645 3428 
Q 1925 3584 2291 3584 
Q 2894 3584 3203 3211 
Q 3513 2838 3513 2113 
z
" transform="scale(0.015625)"/>
       <path id="DejaVuSans-69" d="M 603 3500 
L 1178 3500 
L 1178 0 
L 603 0 
L 603 3500 
z
M 603 4863 
L 1178 4863 
L 1178 4134 
L 603 4134 
L 603 4863 
z
" transform="scale(0.015625)"/>
       <path id="DejaVuSans-6e" d="M 3513 2113 
L 3513 0 
L 2938 0 
L 2938 2094 
Q 2938 2591 2744 2837 
Q 2550 3084 2163 3084 
Q 1697 3084 1428 2787 
Q 1159 2491 1159 1978 
L 1159 0 
L 581 0 
L 581 3500 
L 1159 3500 
L 1159 2956 
Q 1366 3272 1645 3428 
Q 1925 3584 2291 3584 
Q 2894 3584 3203 3211 
Q 3513 2838 3513 2113 
z
" transform="scale(0.015625)"/>
       <path id="DejaVuSans-67" d="M 2906 1791 
Q 2906 2416 2648 2759 
Q 2391 3103 1925 3103 
Q 1463 3103 1205 2759 
Q 947 2416 947 1791 
Q 947 1169 1205 825 
Q 1463 481 1925 481 
Q 2391 481 2648 825 
Q 2906 1169 2906 1791 
z
M 3481 434 
Q 3481 -459 3084 -895 
Q 2688 -1331 1869 -1331 
Q 1566 -1331 1297 -1286 
Q 1028 -1241 775 -1147 
L 775 -588 
Q 1028 -725 1275 -790 
Q 1522 -856 1778 -856 
Q 2344 -856 2625 -561 
Q 2906 -266 2906 331 
L 2906 616 
Q 2728 306 2450 153 
Q 2172 0 1784 0 
Q 1141 0 747 490 
Q 353 981 353 1791 
Q 353 2603 747 3093 
Q 1141 3584 1784 3584 
Q 2172 3584 2450 3431 
Q 2728 3278 2906 2969 
L 2906 3500 
L 3481 3500 
L 3481 434 
z
" transform="scale(0.015625)"/>
       <path id="DejaVuSans-62" d="M 3116 1747 
Q 3116 2381 2855 2742 
Q 2594 3103 2138 3103 
Q 1681 3103 1420 2742 
Q 1159 2381 1159 1747 
Q 1159 1113 1420 752 
Q 1681 391 2138 391 
Q 2594 391 2855 752 
Q 3116 1113 3116 1747 
z
M 1159 2969 
Q 1341 3281 1617 3432 
Q 1894 3584 2278 3584 
Q 2916 3584 3314 3078 
Q 3713 2572 3713 1747 
Q 3713 922 3314 415 
Q 2916 -91 2278 -91 
Q 1894 -91 1617 61 
Q 1341 213 1159 525 
L 1159 0 
L 581 0 
L 581 4863 
L 1159 4863 
L 1159 2969 
z
" transform="scale(0.015625)"/>
       <path id="DejaVuSans-76" d="M 191 3500 
L 800 3500 
L 1894 563 
L 2988 3500 
L 3597 3500 
L 2284 0 
L 1503 0 
L 191 3500 
z
" transform="scale(0.015625)"/>
       <path id="DejaVuSans-6f" d="M 1959 3097 
Q 1497 3097 1228 2736 
Q 959 2375 959 1747 
Q 959 1119 1226 758 
Q 1494 397 1959 397 
Q 2419 397 2687 759 
Q 2956 1122 2956 1747 
Q 2956 2369 2687 2733 
Q 2419 3097 1959 3097 
z
M 1959 3584 
Q 2709 3584 3137 3096 
Q 3566 2609 3566 1747 
Q 3566 888 3137 398 
Q 2709 -91 1959 -91 
Q 1206 -91 779 398 
Q 353 888 353 1747 
Q 353 2609 779 3096 
Q 1206 3584 1959 3584 
z
" transform="scale(0.015625)"/>
       <path id="DejaVuSans-75" d="M 544 1381 
L 544 3500 
L 1119 3500 
L 1119 1403 
Q 1119 906 1312 657 
Q 1506 409 1894 409 
Q 2359 409 2629 706 
Q 2900 1003 2900 1516 
L 2900 3500 
L 3475 3500 
L 3475 0 
L 2900 0 
L 2900 538 
Q 2691 219 2414 64 
Q 2138 -91 1772 -91 
Q 1169 -91 856 284 
Q 544 659 544 1381 
z
M 1991 3584 
L 1991 3584 
z
" transform="scale(0.015625)"/>
       <path id="DejaVuSans-29" d="M 513 4856 
L 1013 4856 
Q 1481 4119 1714 3412 
Q 1947 2706 1947 2009 
Q 1947 1309 1714 600 
Q 1481 -109 1013 -844 
L 513 -844 
Q 928 -128 1133 580 
Q 1338 1288 1338 2009 
Q 1338 2731 1133 3434 
Q 928 4138 513 4856 
z
" transform="scale(0.015625)"/>
      </defs>
      <use xlink:href="#DejaVuSans-44"/>
      <use xlink:href="#DejaVuSans-65" x="77.001953"/>
      <use xlink:href="#DejaVuSans-6c" x="138.525391"/>
      <use xlink:href="#DejaVuSans-74" x="166.308594"/>
      <use xlink:href="#DejaVuSans-61" x="205.517578"/>
      <use xlink:href="#DejaVuSans-20" x="266.796875"/>
      <use xlink:href="#DejaVuSans-70" x="298.583984"/>
      <use xlink:href="#DejaVuSans-28" x="362.060547"/>
      <use xlink:href="#DejaVuSans-6d" x="401.074219"/>
      <use xlink:href="#DejaVuSans-61" x="498.486328"/>
      <use xlink:href="#DejaVuSans-74" x="559.765625"/>
      <use xlink:href="#DejaVuSans-63" x="598.974609"/>
      <use xlink:href="#DejaVuSans-68" x="653.955078"/>
      <use xlink:href="#DejaVuSans-69" x="717.333984"/>
      <use xlink:href="#DejaVuSans-6e" x="745.117188"/>
      <use xlink:href="#DejaVuSans-67" x="808.496094"/>
      <use xlink:href="#DejaVuSans-20" x="871.972656"/>
      <use xlink:href="#DejaVuSans-62" x="903.759766"/>
      <use xlink:href="#DejaVuSans-65" x="967.236328"/>
      <use xlink:href="#DejaVuSans-68" x="1028.759766"/>
      <use xlink:href="#DejaVuSans-61" x="1092.138672"/>
      <use xlink:href="#DejaVuSans-76" x="1153.417969"/>
      <use xlink:href="#DejaVuSans-69" x="1212.597656"/>
      <use xlink:href="#DejaVuSans-6f" x="1240.380859"/>
      <use xlink:href="#DejaVuSans-75" x="1301.5625"/>
      <use xlink:href="#DejaVuSans-72" x="1364.941406"/>
      <use xlink:href="#DejaVuSans-29" x="1406.054688"/>
     </g>
    </g>
   </g>
   <g id="line2d_33">
    <path d="M 73.832727 165.645988 
L 84.305455 165.294811 
L 94.778182 165.929744 
L 105.250909 165.6319 
L 115.723636 164.171661 
L 126.196364 164.476599 
L 136.669091 164.731879 
L 147.141818 164.797375 
L 157.614545 165.278516 
L 168.087273 167.843458 
L 178.56 166.535859 
L 189.032727 164.830792 
L 199.505455 163.383069 
L 209.978182 162.496864 
L 220.450909 164.923513 
L 230.923636 164.721836 
L 241.396364 147.116721 
L 251.869091 147.968849 
L 262.341818 143.006201 
L 272.814545 141.404423 
L 283.287273 137.465916 
L 293.76 154.159477 
L 304.232727 162.805917 
L 314.705455 162.901786 
L 325.178182 161.375034 
L 335.650909 163.969151 
L 346.123636 164.855182 
L 356.596364 165.060277 
L 367.069091 165.978057 
L 377.541818 168.061945 
L 388.014545 165.152915 
L 398.487273 166.527358 
" clip-path="url(#p589adc8360)" style="fill: none; stroke: #1f77b4; stroke-width: 2; stroke-linecap: square"/>
   </g>
   <g id="line2d_34">
    <path d="M 73.832727 165.645988 
L 84.305455 165.475985 
L 94.778182 165.502146 
L 105.250909 164.594709 
L 115.723636 164.630123 
L 126.196364 165.680115 
L 136.669091 165.123583 
L 147.141818 166.226242 
L 157.614545 164.154402 
L 168.087273 163.338168 
L 178.56 163.339294 
L 189.032727 165.318669 
L 199.505455 166.16074 
L 209.978182 166.769351 
L 220.450909 164.792233 
L 230.923636 167.807095 
L 241.396364 183.38061 
L 251.869091 183.891764 
L 262.341818 181.544746 
L 272.814545 186.1823 
L 283.287273 169.237339 
L 293.76 165.135935 
L 304.232727 162.291348 
L 314.705455 167.001388 
L 325.178182 171.055104 
L 335.650909 168.103745 
L 346.123636 165.880965 
L 356.596364 164.723274 
L 367.069091 162.48245 
L 377.541818 164.005163 
L 388.014545 167.093582 
L 398.487273 164.390927 
" clip-path="url(#p589adc8360)" style="fill: none; stroke: #ff7f0e; stroke-width: 3; stroke-linecap: square"/>
   </g>
   <g id="line2d_35">
    <path d="M 73.832727 165.645988 
L 84.305455 167.034661 
L 94.778182 166.603551 
L 105.250909 165.137323 
L 115.723636 166.150397 
L 126.196364 165.60165 
L 136.669091 165.736216 
L 147.141818 164.737228 
L 157.614545 164.212833 
L 168.087273 164.675636 
L 178.56 164.981518 
L 189.032727 165.424452 
L 199.505455 164.909785 
L 209.978182 165.279597 
L 220.450909 165.824736 
L 230.923636 165.801455 
L 241.396364 131.275015 
L 251.869091 114.541724 
L 262.341818 94.845287 
L 272.814545 93.586115 
L 283.287273 88.259672 
L 293.76 130.833175 
L 304.232727 152.731046 
L 314.705455 155.026704 
L 325.178182 157.043735 
L 335.650909 161.465461 
L 346.123636 164.448688 
L 356.596364 161.337133 
L 367.069091 167.962712 
L 377.541818 170.234345 
L 388.014545 167.920944 
L 398.487273 168.780948 
" clip-path="url(#p589adc8360)" style="fill: none; stroke: #1f77b4; stroke-width: 2; stroke-linecap: square"/>
   </g>
   <g id="line2d_36">
    <path d="M 73.832727 165.645988 
L 84.305455 166.604411 
L 94.778182 166.208068 
L 105.250909 167.664118 
L 115.723636 167.620135 
L 126.196364 168.267215 
L 136.669091 167.712585 
L 147.141818 168.23012 
L 157.614545 169.493236 
L 168.087273 168.792801 
L 178.56 169.460296 
L 189.032727 168.785142 
L 199.505455 169.25062 
L 209.978182 168.321819 
L 220.450909 167.029773 
L 230.923636 172.922063 
L 241.396364 207.200666 
L 251.869091 215.170865 
L 262.341818 215.766857 
L 272.814545 233.365616 
L 283.287273 202.966322 
L 293.76 182.427815 
L 304.232727 174.265576 
L 314.705455 177.931699 
L 325.178182 174.623484 
L 335.650909 170.052969 
L 346.123636 167.843443 
L 356.596364 170.107454 
L 367.069091 165.439297 
L 377.541818 163.62795 
L 388.014545 167.000988 
L 398.487273 165.132694 
" clip-path="url(#p589adc8360)" style="fill: none; stroke: #ff7f0e; stroke-width: 3; stroke-linecap: square"/>
   </g>
   <g id="line2d_37">
    <path d="M 73.832727 165.645988 
L 84.305455 165.121617 
L 94.778182 164.498552 
L 105.250909 162.80298 
L 115.723636 161.682924 
L 126.196364 163.564566 
L 136.669091 164.746568 
L 147.141818 166.868339 
L 157.614545 165.951872 
L 168.087273 160.225036 
L 178.56 161.595734 
L 189.032727 170.315888 
L 199.505455 167.95191 
L 209.978182 166.78543 
L 220.450909 166.79773 
L 230.923636 184.605931 
L 241.396364 134.300745 
L 251.869091 84.460152 
L 262.341818 53.568 
L 272.814545 72.435374 
L 283.287273 86.897221 
L 293.76 126.832407 
L 304.232727 152.365022 
L 314.705455 149.629491 
L 325.178182 153.991715 
L 335.650909 159.774301 
L 346.123636 158.405479 
L 356.596364 158.684753 
L 367.069091 161.093902 
L 377.541818 165.220069 
L 388.014545 166.857353 
L 398.487273 177.028867 
" clip-path="url(#p589adc8360)" style="fill: none; stroke: #1f77b4; stroke-width: 2; stroke-linecap: square"/>
   </g>
   <g id="line2d_38">
    <path d="M 73.832727 165.645988 
L 84.305455 166.49764 
L 94.778182 166.298136 
L 105.250909 168.919999 
L 115.723636 168.989498 
L 126.196364 168.680644 
L 136.669091 168.110534 
L 147.141818 166.768786 
L 157.614545 165.553516 
L 168.087273 173.201961 
L 178.56 171.600854 
L 189.032727 167.037288 
L 199.505455 172.554251 
L 209.978182 171.980724 
L 220.450909 173.791149 
L 230.923636 227.905777 
L 241.396364 276.201796 
L 251.869091 270.20727 
L 262.341818 295.488 
L 272.814545 248.535496 
L 283.287273 209.567782 
L 293.76 181.076621 
L 304.232727 169.615951 
L 314.705455 172.112002 
L 325.178182 171.710719 
L 335.650909 169.070932 
L 346.123636 168.384958 
L 356.596364 167.387894 
L 367.069091 169.891944 
L 377.541818 170.805286 
L 388.014545 168.709984 
L 398.487273 163.918093 
" clip-path="url(#p589adc8360)" style="fill: none; stroke: #ff7f0e; stroke-width: 3; stroke-linecap: square"/>
   </g>
   <g id="line2d_39">
    <path d="M 73.832727 165.645988 
L 84.305455 166.182586 
L 94.778182 165.003415 
L 105.250909 164.724788 
L 115.723636 165.278466 
L 126.196364 166.695651 
L 136.669091 166.219592 
L 147.141818 166.531847 
L 157.614545 166.022455 
L 168.087273 165.843527 
L 178.56 165.836885 
L 189.032727 164.700902 
L 199.505455 165.584469 
L 209.978182 158.97365 
L 220.450909 150.434162 
L 230.923636 152.105399 
L 241.396364 151.14423 
L 251.869091 158.226452 
L 262.341818 123.035798 
L 272.814545 127.347404 
L 283.287273 155.608349 
L 293.76 161.834212 
L 304.232727 161.918865 
L 314.705455 163.471775 
L 325.178182 165.623466 
L 335.650909 165.297027 
L 346.123636 163.438426 
L 356.596364 166.841451 
L 367.069091 164.061876 
L 377.541818 165.032032 
L 388.014545 166.084604 
L 398.487273 167.118757 
" clip-path="url(#p589adc8360)" style="fill: none; stroke: #1f77b4; stroke-width: 2; stroke-linecap: square"/>
   </g>
   <g id="line2d_40">
    <path d="M 73.832727 165.645988 
L 84.305455 166.427906 
L 94.778182 166.140089 
L 105.250909 165.611328 
L 115.723636 165.225333 
L 126.196364 165.518393 
L 136.669091 165.376723 
L 147.141818 166.405556 
L 157.614545 166.642067 
L 168.087273 165.012734 
L 178.56 166.417193 
L 189.032727 167.409199 
L 199.505455 164.681281 
L 209.978182 171.416487 
L 220.450909 178.470257 
L 230.923636 180.641216 
L 241.396364 173.520111 
L 251.869091 169.021275 
L 262.341818 179.58399 
L 272.814545 174.495338 
L 283.287273 167.657739 
L 293.76 168.040145 
L 304.232727 167.052648 
L 314.705455 166.279221 
L 325.178182 165.533702 
L 335.650909 167.087126 
L 346.123636 166.899016 
L 356.596364 164.861156 
L 367.069091 164.785441 
L 377.541818 165.232218 
L 388.014545 164.401576 
L 398.487273 162.275226 
" clip-path="url(#p589adc8360)" style="fill: none; stroke: #ff7f0e; stroke-width: 3; stroke-linecap: square"/>
   </g>
   <g id="line2d_41">
    <path d="M 73.832727 165.645988 
L 84.305455 165.497845 
L 94.778182 164.966212 
L 105.250909 165.865097 
L 115.723636 165.615336 
L 126.196364 164.595647 
L 136.669091 163.703855 
L 147.141818 162.099193 
L 157.614545 160.579589 
L 168.087273 161.228013 
L 178.56 162.471412 
L 189.032727 161.150085 
L 199.505455 159.255367 
L 209.978182 158.247255 
L 220.450909 155.450334 
L 230.923636 134.95098 
L 241.396364 86.36238 
L 251.869091 85.945205 
L 262.341818 71.80443 
L 272.814545 92.178501 
L 283.287273 123.95387 
L 293.76 154.100075 
L 304.232727 162.264119 
L 314.705455 163.519519 
L 325.178182 166.048853 
L 335.650909 164.973056 
L 346.123636 165.04018 
L 356.596364 163.805928 
L 367.069091 163.586255 
L 377.541818 156.583336 
L 388.014545 160.548586 
L 398.487273 161.9392 
" clip-path="url(#p589adc8360)" style="fill: none; stroke: #1f77b4; stroke-width: 2; stroke-linecap: square"/>
   </g>
   <g id="line2d_42">
    <path d="M 73.832727 165.645988 
L 84.305455 166.552482 
L 94.778182 164.957859 
L 105.250909 165.706277 
L 115.723636 165.960166 
L 126.196364 166.658786 
L 136.669091 167.037785 
L 147.141818 168.916422 
L 157.614545 170.122357 
L 168.087273 168.098331 
L 178.56 168.218799 
L 189.032727 166.691926 
L 199.505455 168.167312 
L 209.978182 168.558102 
L 220.450909 171.741897 
L 230.923636 169.366702 
L 241.396364 195.082452 
L 251.869091 212.582052 
L 262.341818 238.837762 
L 272.814545 223.022469 
L 283.287273 224.782862 
L 293.76 185.561739 
L 304.232727 171.472159 
L 314.705455 171.596369 
L 325.178182 168.191018 
L 335.650909 166.849058 
L 346.123636 168.700964 
L 356.596364 168.649145 
L 367.069091 168.652838 
L 377.541818 174.48927 
L 388.014545 171.470545 
L 398.487273 170.982947 
" clip-path="url(#p589adc8360)" style="fill: none; stroke: #ff7f0e; stroke-width: 3; stroke-linecap: square"/>
   </g>
   <g id="line2d_43">
    <path d="M 73.832727 165.645988 
L 84.305455 164.474184 
L 94.778182 163.304555 
L 105.250909 162.916611 
L 115.723636 162.833253 
L 126.196364 163.038753 
L 136.669091 160.432549 
L 147.141818 160.629781 
L 157.614545 161.12675 
L 168.087273 160.653329 
L 178.56 164.438821 
L 189.032727 165.723089 
L 199.505455 161.926316 
L 209.978182 162.025395 
L 220.450909 163.011724 
L 230.923636 159.841868 
L 241.396364 156.377163 
L 251.869091 157.709499 
L 262.341818 138.382207 
L 272.814545 138.809264 
L 283.287273 145.738971 
L 293.76 152.92561 
L 304.232727 160.912141 
L 314.705455 159.93833 
L 325.178182 159.293657 
L 335.650909 163.413582 
L 346.123636 161.126692 
L 356.596364 162.516179 
L 367.069091 164.216036 
L 377.541818 159.873809 
L 388.014545 163.739886 
L 398.487273 160.094632 
" clip-path="url(#p589adc8360)" style="fill: none; stroke: #1f77b4; stroke-width: 2; stroke-linecap: square"/>
   </g>
   <g id="line2d_44">
    <path d="M 73.832727 165.645988 
L 84.305455 169.462649 
L 94.778182 168.966654 
L 105.250909 168.973812 
L 115.723636 167.711224 
L 126.196364 170.787995 
L 136.669091 171.825173 
L 147.141818 173.54089 
L 157.614545 170.074467 
L 168.087273 172.761239 
L 178.56 173.028772 
L 189.032727 169.978918 
L 199.505455 172.130429 
L 209.978182 174.555615 
L 220.450909 171.432666 
L 230.923636 176.590079 
L 241.396364 182.743372 
L 251.869091 181.57002 
L 262.341818 194.142312 
L 272.814545 185.892662 
L 283.287273 172.114961 
L 293.76 173.561856 
L 304.232727 171.281191 
L 314.705455 172.504546 
L 325.178182 175.831598 
L 335.650909 172.086224 
L 346.123636 172.026651 
L 356.596364 168.827604 
L 367.069091 168.257649 
L 377.541818 174.870333 
L 388.014545 170.686704 
L 398.487273 173.608075 
" clip-path="url(#p589adc8360)" style="fill: none; stroke: #ff7f0e; stroke-width: 3; stroke-linecap: square"/>
   </g>
   <g id="line2d_45">
    <path d="M 73.832727 165.645988 
L 84.305455 165.065725 
L 94.778182 165.441712 
L 105.250909 164.991596 
L 115.723636 166.512544 
L 126.196364 166.346034 
L 136.669091 165.483996 
L 147.141818 166.642105 
L 157.614545 165.080086 
L 168.087273 165.485805 
L 178.56 165.748797 
L 189.032727 164.767386 
L 199.505455 165.267683 
L 209.978182 165.300668 
L 220.450909 164.632438 
L 230.923636 165.131985 
L 241.396364 164.519558 
L 251.869091 161.593815 
L 262.341818 163.722289 
L 272.814545 164.059511 
L 283.287273 165.435639 
L 293.76 163.883583 
L 304.232727 163.530927 
L 314.705455 165.632132 
L 325.178182 164.606628 
L 335.650909 165.493068 
L 346.123636 165.237151 
L 356.596364 164.582971 
L 367.069091 165.270829 
L 377.541818 163.308375 
L 388.014545 165.176412 
L 398.487273 165.802182 
" clip-path="url(#p589adc8360)" style="fill: none; stroke: #1f77b4; stroke-width: 2; stroke-linecap: square"/>
   </g>
   <g id="line2d_46">
    <path d="M 73.832727 165.645988 
L 84.305455 164.647648 
L 94.778182 165.711691 
L 105.250909 165.27306 
L 115.723636 165.055149 
L 126.196364 164.82647 
L 136.669091 164.814443 
L 147.141818 164.984152 
L 157.614545 164.99573 
L 168.087273 165.069462 
L 178.56 164.482027 
L 189.032727 165.293886 
L 199.505455 165.704134 
L 209.978182 166.240243 
L 220.450909 165.898385 
L 230.923636 165.888807 
L 241.396364 165.384749 
L 251.869091 168.732287 
L 262.341818 167.753054 
L 272.814545 167.3295 
L 283.287273 165.171497 
L 293.76 166.82262 
L 304.232727 165.138054 
L 314.705455 165.055279 
L 325.178182 164.634452 
L 335.650909 166.37044 
L 346.123636 165.744093 
L 356.596364 165.562588 
L 367.069091 166.296405 
L 377.541818 164.787083 
L 388.014545 164.824353 
L 398.487273 164.353392 
" clip-path="url(#p589adc8360)" style="fill: none; stroke: #ff7f0e; stroke-width: 3; stroke-linecap: square"/>
   </g>
   <g id="patch_3">
    <path d="M 57.6 307.584 
L 57.6 41.472 
" style="fill: none; stroke: #000000; stroke-width: 0.8; stroke-linejoin: miter; stroke-linecap: square"/>
   </g>
   <g id="patch_4">
    <path d="M 414.72 307.584 
L 414.72 41.472 
" style="fill: none; stroke: #000000; stroke-width: 0.8; stroke-linejoin: miter; stroke-linecap: square"/>
   </g>
   <g id="patch_5">
    <path d="M 57.6 307.584 
L 414.72 307.584 
" style="fill: none; stroke: #000000; stroke-width: 0.8; stroke-linejoin: miter; stroke-linecap: square"/>
   </g>
   <g id="patch_6">
    <path d="M 57.6 41.472 
L 414.72 41.472 
" style="fill: none; stroke: #000000; stroke-width: 0.8; stroke-linejoin: miter; stroke-linecap: square"/>
   </g>
  </g>
 </g>
 <defs>
  <clipPath id="p589adc8360">
   <rect x="57.6" y="41.472" width="357.12" height="266.112"/>
  </clipPath>
 </defs>
</svg>
