<?xml version="1.0" encoding="utf-8" standalone="no"?>
<!DOCTYPE svg PUBLIC "-//W3C//DTD SVG 1.1//EN"
  "http://www.w3.org/Graphics/SVG/1.1/DTD/svg11.dtd">
<svg xmlns:xlink="http://www.w3.org/1999/xlink" width="460.8pt" height="345.6pt" viewBox="0 0 460.8 345.6" xmlns="http://www.w3.org/2000/svg" version="1.1">
 <metadata>
  <rdf:RDF xmlns:dc="http://purl.org/dc/elements/1.1/" xmlns:cc="http://creativecommons.org/ns#" xmlns:rdf="http://www.w3.org/1999/02/22-rdf-syntax-ns#">
   <cc:Work>
    <dc:type rdf:resource="http://purl.org/dc/dcmitype/StillImage"/>
    <dc:date>2024-03-26T09:22:33.270664</dc:date>
    <dc:format>image/svg+xml</dc:format>
    <dc:creator>
     <cc:Agent>
      <dc:title>Matplotlib v3.8.3, https://matplotlib.org/</dc:title>
     </cc:Agent>
    </dc:creator>
   </cc:Work>
  </rdf:RDF>
 </metadata>
 <defs>
  <style type="text/css">*{stroke-linejoin: round; stroke-linecap: butt}</style>
 </defs>
 <g id="figure_1">
  <g id="patch_1">
   <path d="M 0 345.6 
L 460.8 345.6 
L 460.8 0 
L 0 0 
z
" style="fill: #ffffff"/>
  </g>
  <g id="axes_1">
   <g id="patch_2">
    <path d="M 57.6 307.584 
L 414.72 307.584 
L 414.72 41.472 
L 57.6 41.472 
z
" style="fill: #ffffff"/>
   </g>
   <g id="matplotlib.axis_1">
    <g id="xtick_1">
     <g id="line2d_1">
      <path d="M 73.832727 307.584 
L 73.832727 41.472 
" clip-path="url(#p3b4f9176c7)" style="fill: none; stroke: #b0b0b0; stroke-width: 0.8; stroke-linecap: square"/>
     </g>
     <g id="line2d_2">
      <defs>
       <path id="m1fbd3e7b87" d="M 0 0 
L 0 3.5 
" style="stroke: #000000; stroke-width: 0.8"/>
      </defs>
      <g>
       <use xlink:href="#m1fbd3e7b87" x="73.832727" y="307.584" style="stroke: #000000; stroke-width: 0.8"/>
      </g>
     </g>
     <g id="text_1">
      <!-- 0 -->
      <g transform="translate(70.651477 322.182437) scale(0.1 -0.1)">
       <defs>
        <path id="DejaVuSans-30" d="M 2034 4250 
Q 1547 4250 1301 3770 
Q 1056 3291 1056 2328 
Q 1056 1369 1301 889 
Q 1547 409 2034 409 
Q 2525 409 2770 889 
Q 3016 1369 3016 2328 
Q 3016 3291 2770 3770 
Q 2525 4250 2034 4250 
z
M 2034 4750 
Q 2819 4750 3233 4129 
Q 3647 3509 3647 2328 
Q 3647 1150 3233 529 
Q 2819 -91 2034 -91 
Q 1250 -91 836 529 
Q 422 1150 422 2328 
Q 422 3509 836 4129 
Q 1250 4750 2034 4750 
z
" transform="scale(0.015625)"/>
       </defs>
       <use xlink:href="#DejaVuSans-30"/>
      </g>
     </g>
    </g>
    <g id="xtick_2">
     <g id="line2d_3">
      <path d="M 126.196364 307.584 
L 126.196364 41.472 
" clip-path="url(#p3b4f9176c7)" style="fill: none; stroke: #b0b0b0; stroke-width: 0.8; stroke-linecap: square"/>
     </g>
     <g id="line2d_4">
      <g>
       <use xlink:href="#m1fbd3e7b87" x="126.196364" y="307.584" style="stroke: #000000; stroke-width: 0.8"/>
      </g>
     </g>
     <g id="text_2">
      <!-- 5 -->
      <g transform="translate(123.015114 322.182437) scale(0.1 -0.1)">
       <defs>
        <path id="DejaVuSans-35" d="M 691 4666 
L 3169 4666 
L 3169 4134 
L 1269 4134 
L 1269 2991 
Q 1406 3038 1543 3061 
Q 1681 3084 1819 3084 
Q 2600 3084 3056 2656 
Q 3513 2228 3513 1497 
Q 3513 744 3044 326 
Q 2575 -91 1722 -91 
Q 1428 -91 1123 -41 
Q 819 9 494 109 
L 494 744 
Q 775 591 1075 516 
Q 1375 441 1709 441 
Q 2250 441 2565 725 
Q 2881 1009 2881 1497 
Q 2881 1984 2565 2268 
Q 2250 2553 1709 2553 
Q 1456 2553 1204 2497 
Q 953 2441 691 2322 
L 691 4666 
z
" transform="scale(0.015625)"/>
       </defs>
       <use xlink:href="#DejaVuSans-35"/>
      </g>
     </g>
    </g>
    <g id="xtick_3">
     <g id="line2d_5">
      <path d="M 178.56 307.584 
L 178.56 41.472 
" clip-path="url(#p3b4f9176c7)" style="fill: none; stroke: #b0b0b0; stroke-width: 0.8; stroke-linecap: square"/>
     </g>
     <g id="line2d_6">
      <g>
       <use xlink:href="#m1fbd3e7b87" x="178.56" y="307.584" style="stroke: #000000; stroke-width: 0.8"/>
      </g>
     </g>
     <g id="text_3">
      <!-- 10 -->
      <g transform="translate(172.1975 322.182437) scale(0.1 -0.1)">
       <defs>
        <path id="DejaVuSans-31" d="M 794 531 
L 1825 531 
L 1825 4091 
L 703 3866 
L 703 4441 
L 1819 4666 
L 2450 4666 
L 2450 531 
L 3481 531 
L 3481 0 
L 794 0 
L 794 531 
z
" transform="scale(0.015625)"/>
       </defs>
       <use xlink:href="#DejaVuSans-31"/>
       <use xlink:href="#DejaVuSans-30" x="63.623047"/>
      </g>
     </g>
    </g>
    <g id="xtick_4">
     <g id="line2d_7">
      <path d="M 230.923636 307.584 
L 230.923636 41.472 
" clip-path="url(#p3b4f9176c7)" style="fill: none; stroke: #b0b0b0; stroke-width: 0.8; stroke-linecap: square"/>
     </g>
     <g id="line2d_8">
      <g>
       <use xlink:href="#m1fbd3e7b87" x="230.923636" y="307.584" style="stroke: #000000; stroke-width: 0.8"/>
      </g>
     </g>
     <g id="text_4">
      <!-- 15 -->
      <g transform="translate(224.561136 322.182437) scale(0.1 -0.1)">
       <use xlink:href="#DejaVuSans-31"/>
       <use xlink:href="#DejaVuSans-35" x="63.623047"/>
      </g>
     </g>
    </g>
    <g id="xtick_5">
     <g id="line2d_9">
      <path d="M 283.287273 307.584 
L 283.287273 41.472 
" clip-path="url(#p3b4f9176c7)" style="fill: none; stroke: #b0b0b0; stroke-width: 0.8; stroke-linecap: square"/>
     </g>
     <g id="line2d_10">
      <g>
       <use xlink:href="#m1fbd3e7b87" x="283.287273" y="307.584" style="stroke: #000000; stroke-width: 0.8"/>
      </g>
     </g>
     <g id="text_5">
      <!-- 20 -->
      <g transform="translate(276.924773 322.182437) scale(0.1 -0.1)">
       <defs>
        <path id="DejaVuSans-32" d="M 1228 531 
L 3431 531 
L 3431 0 
L 469 0 
L 469 531 
Q 828 903 1448 1529 
Q 2069 2156 2228 2338 
Q 2531 2678 2651 2914 
Q 2772 3150 2772 3378 
Q 2772 3750 2511 3984 
Q 2250 4219 1831 4219 
Q 1534 4219 1204 4116 
Q 875 4013 500 3803 
L 500 4441 
Q 881 4594 1212 4672 
Q 1544 4750 1819 4750 
Q 2544 4750 2975 4387 
Q 3406 4025 3406 3419 
Q 3406 3131 3298 2873 
Q 3191 2616 2906 2266 
Q 2828 2175 2409 1742 
Q 1991 1309 1228 531 
z
" transform="scale(0.015625)"/>
       </defs>
       <use xlink:href="#DejaVuSans-32"/>
       <use xlink:href="#DejaVuSans-30" x="63.623047"/>
      </g>
     </g>
    </g>
    <g id="xtick_6">
     <g id="line2d_11">
      <path d="M 335.650909 307.584 
L 335.650909 41.472 
" clip-path="url(#p3b4f9176c7)" style="fill: none; stroke: #b0b0b0; stroke-width: 0.8; stroke-linecap: square"/>
     </g>
     <g id="line2d_12">
      <g>
       <use xlink:href="#m1fbd3e7b87" x="335.650909" y="307.584" style="stroke: #000000; stroke-width: 0.8"/>
      </g>
     </g>
     <g id="text_6">
      <!-- 25 -->
      <g transform="translate(329.288409 322.182437) scale(0.1 -0.1)">
       <use xlink:href="#DejaVuSans-32"/>
       <use xlink:href="#DejaVuSans-35" x="63.623047"/>
      </g>
     </g>
    </g>
    <g id="xtick_7">
     <g id="line2d_13">
      <path d="M 388.014545 307.584 
L 388.014545 41.472 
" clip-path="url(#p3b4f9176c7)" style="fill: none; stroke: #b0b0b0; stroke-width: 0.8; stroke-linecap: square"/>
     </g>
     <g id="line2d_14">
      <g>
       <use xlink:href="#m1fbd3e7b87" x="388.014545" y="307.584" style="stroke: #000000; stroke-width: 0.8"/>
      </g>
     </g>
     <g id="text_7">
      <!-- 30 -->
      <g transform="translate(381.652045 322.182437) scale(0.1 -0.1)">
       <defs>
        <path id="DejaVuSans-33" d="M 2597 2516 
Q 3050 2419 3304 2112 
Q 3559 1806 3559 1356 
Q 3559 666 3084 287 
Q 2609 -91 1734 -91 
Q 1441 -91 1130 -33 
Q 819 25 488 141 
L 488 750 
Q 750 597 1062 519 
Q 1375 441 1716 441 
Q 2309 441 2620 675 
Q 2931 909 2931 1356 
Q 2931 1769 2642 2001 
Q 2353 2234 1838 2234 
L 1294 2234 
L 1294 2753 
L 1863 2753 
Q 2328 2753 2575 2939 
Q 2822 3125 2822 3475 
Q 2822 3834 2567 4026 
Q 2313 4219 1838 4219 
Q 1578 4219 1281 4162 
Q 984 4106 628 3988 
L 628 4550 
Q 988 4650 1302 4700 
Q 1616 4750 1894 4750 
Q 2613 4750 3031 4423 
Q 3450 4097 3450 3541 
Q 3450 3153 3228 2886 
Q 3006 2619 2597 2516 
z
" transform="scale(0.015625)"/>
       </defs>
       <use xlink:href="#DejaVuSans-33"/>
       <use xlink:href="#DejaVuSans-30" x="63.623047"/>
      </g>
     </g>
    </g>
    <g id="text_8">
     <!-- Layer -->
     <g transform="translate(222.218594 335.860562) scale(0.1 -0.1)">
      <defs>
       <path id="DejaVuSans-4c" d="M 628 4666 
L 1259 4666 
L 1259 531 
L 3531 531 
L 3531 0 
L 628 0 
L 628 4666 
z
" transform="scale(0.015625)"/>
       <path id="DejaVuSans-61" d="M 2194 1759 
Q 1497 1759 1228 1600 
Q 959 1441 959 1056 
Q 959 750 1161 570 
Q 1363 391 1709 391 
Q 2188 391 2477 730 
Q 2766 1069 2766 1631 
L 2766 1759 
L 2194 1759 
z
M 3341 1997 
L 3341 0 
L 2766 0 
L 2766 531 
Q 2569 213 2275 61 
Q 1981 -91 1556 -91 
Q 1019 -91 701 211 
Q 384 513 384 1019 
Q 384 1609 779 1909 
Q 1175 2209 1959 2209 
L 2766 2209 
L 2766 2266 
Q 2766 2663 2505 2880 
Q 2244 3097 1772 3097 
Q 1472 3097 1187 3025 
Q 903 2953 641 2809 
L 641 3341 
Q 956 3463 1253 3523 
Q 1550 3584 1831 3584 
Q 2591 3584 2966 3190 
Q 3341 2797 3341 1997 
z
" transform="scale(0.015625)"/>
       <path id="DejaVuSans-79" d="M 2059 -325 
Q 1816 -950 1584 -1140 
Q 1353 -1331 966 -1331 
L 506 -1331 
L 506 -850 
L 844 -850 
Q 1081 -850 1212 -737 
Q 1344 -625 1503 -206 
L 1606 56 
L 191 3500 
L 800 3500 
L 1894 763 
L 2988 3500 
L 3597 3500 
L 2059 -325 
z
" transform="scale(0.015625)"/>
       <path id="DejaVuSans-65" d="M 3597 1894 
L 3597 1613 
L 953 1613 
Q 991 1019 1311 708 
Q 1631 397 2203 397 
Q 2534 397 2845 478 
Q 3156 559 3463 722 
L 3463 178 
Q 3153 47 2828 -22 
Q 2503 -91 2169 -91 
Q 1331 -91 842 396 
Q 353 884 353 1716 
Q 353 2575 817 3079 
Q 1281 3584 2069 3584 
Q 2775 3584 3186 3129 
Q 3597 2675 3597 1894 
z
M 3022 2063 
Q 3016 2534 2758 2815 
Q 2500 3097 2075 3097 
Q 1594 3097 1305 2825 
Q 1016 2553 972 2059 
L 3022 2063 
z
" transform="scale(0.015625)"/>
       <path id="DejaVuSans-72" d="M 2631 2963 
Q 2534 3019 2420 3045 
Q 2306 3072 2169 3072 
Q 1681 3072 1420 2755 
Q 1159 2438 1159 1844 
L 1159 0 
L 581 0 
L 581 3500 
L 1159 3500 
L 1159 2956 
Q 1341 3275 1631 3429 
Q 1922 3584 2338 3584 
Q 2397 3584 2469 3576 
Q 2541 3569 2628 3553 
L 2631 2963 
z
" transform="scale(0.015625)"/>
      </defs>
      <use xlink:href="#DejaVuSans-4c"/>
      <use xlink:href="#DejaVuSans-61" x="55.712891"/>
      <use xlink:href="#DejaVuSans-79" x="116.992188"/>
      <use xlink:href="#DejaVuSans-65" x="176.171875"/>
      <use xlink:href="#DejaVuSans-72" x="237.695312"/>
     </g>
    </g>
   </g>
   <g id="matplotlib.axis_2">
    <g id="ytick_1">
     <g id="line2d_15">
      <path d="M 57.6 287.172244 
L 414.72 287.172244 
" clip-path="url(#p3b4f9176c7)" style="fill: none; stroke: #b0b0b0; stroke-width: 0.8; stroke-linecap: square"/>
     </g>
     <g id="line2d_16">
      <defs>
       <path id="m10dcb44e24" d="M 0 0 
L -3.5 0 
" style="stroke: #000000; stroke-width: 0.8"/>
      </defs>
      <g>
       <use xlink:href="#m10dcb44e24" x="57.6" y="287.172244" style="stroke: #000000; stroke-width: 0.8"/>
      </g>
     </g>
     <g id="text_9">
      <!-- −4 -->
      <g transform="translate(35.857813 290.971462) scale(0.1 -0.1)">
       <defs>
        <path id="DejaVuSans-2212" d="M 678 2272 
L 4684 2272 
L 4684 1741 
L 678 1741 
L 678 2272 
z
" transform="scale(0.015625)"/>
        <path id="DejaVuSans-34" d="M 2419 4116 
L 825 1625 
L 2419 1625 
L 2419 4116 
z
M 2253 4666 
L 3047 4666 
L 3047 1625 
L 3713 1625 
L 3713 1100 
L 3047 1100 
L 3047 0 
L 2419 0 
L 2419 1100 
L 313 1100 
L 313 1709 
L 2253 4666 
z
" transform="scale(0.015625)"/>
       </defs>
       <use xlink:href="#DejaVuSans-2212"/>
       <use xlink:href="#DejaVuSans-34" x="83.789062"/>
      </g>
     </g>
    </g>
    <g id="ytick_2">
     <g id="line2d_17">
      <path d="M 57.6 250.835769 
L 414.72 250.835769 
" clip-path="url(#p3b4f9176c7)" style="fill: none; stroke: #b0b0b0; stroke-width: 0.8; stroke-linecap: square"/>
     </g>
     <g id="line2d_18">
      <g>
       <use xlink:href="#m10dcb44e24" x="57.6" y="250.835769" style="stroke: #000000; stroke-width: 0.8"/>
      </g>
     </g>
     <g id="text_10">
      <!-- −2 -->
      <g transform="translate(35.857813 254.634988) scale(0.1 -0.1)">
       <use xlink:href="#DejaVuSans-2212"/>
       <use xlink:href="#DejaVuSans-32" x="83.789062"/>
      </g>
     </g>
    </g>
    <g id="ytick_3">
     <g id="line2d_19">
      <path d="M 57.6 214.499294 
L 414.72 214.499294 
" clip-path="url(#p3b4f9176c7)" style="fill: none; stroke: #b0b0b0; stroke-width: 0.8; stroke-linecap: square"/>
     </g>
     <g id="line2d_20">
      <g>
       <use xlink:href="#m10dcb44e24" x="57.6" y="214.499294" style="stroke: #000000; stroke-width: 0.8"/>
      </g>
     </g>
     <g id="text_11">
      <!-- 0 -->
      <g transform="translate(44.2375 218.298513) scale(0.1 -0.1)">
       <use xlink:href="#DejaVuSans-30"/>
      </g>
     </g>
    </g>
    <g id="ytick_4">
     <g id="line2d_21">
      <path d="M 57.6 178.16282 
L 414.72 178.16282 
" clip-path="url(#p3b4f9176c7)" style="fill: none; stroke: #b0b0b0; stroke-width: 0.8; stroke-linecap: square"/>
     </g>
     <g id="line2d_22">
      <g>
       <use xlink:href="#m10dcb44e24" x="57.6" y="178.16282" style="stroke: #000000; stroke-width: 0.8"/>
      </g>
     </g>
     <g id="text_12">
      <!-- 2 -->
      <g transform="translate(44.2375 181.962038) scale(0.1 -0.1)">
       <use xlink:href="#DejaVuSans-32"/>
      </g>
     </g>
    </g>
    <g id="ytick_5">
     <g id="line2d_23">
      <path d="M 57.6 141.826345 
L 414.72 141.826345 
" clip-path="url(#p3b4f9176c7)" style="fill: none; stroke: #b0b0b0; stroke-width: 0.8; stroke-linecap: square"/>
     </g>
     <g id="line2d_24">
      <g>
       <use xlink:href="#m10dcb44e24" x="57.6" y="141.826345" style="stroke: #000000; stroke-width: 0.8"/>
      </g>
     </g>
     <g id="text_13">
      <!-- 4 -->
      <g transform="translate(44.2375 145.625564) scale(0.1 -0.1)">
       <use xlink:href="#DejaVuSans-34"/>
      </g>
     </g>
    </g>
    <g id="ytick_6">
     <g id="line2d_25">
      <path d="M 57.6 105.48987 
L 414.72 105.48987 
" clip-path="url(#p3b4f9176c7)" style="fill: none; stroke: #b0b0b0; stroke-width: 0.8; stroke-linecap: square"/>
     </g>
     <g id="line2d_26">
      <g>
       <use xlink:href="#m10dcb44e24" x="57.6" y="105.48987" style="stroke: #000000; stroke-width: 0.8"/>
      </g>
     </g>
     <g id="text_14">
      <!-- 6 -->
      <g transform="translate(44.2375 109.289089) scale(0.1 -0.1)">
       <defs>
        <path id="DejaVuSans-36" d="M 2113 2584 
Q 1688 2584 1439 2293 
Q 1191 2003 1191 1497 
Q 1191 994 1439 701 
Q 1688 409 2113 409 
Q 2538 409 2786 701 
Q 3034 994 3034 1497 
Q 3034 2003 2786 2293 
Q 2538 2584 2113 2584 
z
M 3366 4563 
L 3366 3988 
Q 3128 4100 2886 4159 
Q 2644 4219 2406 4219 
Q 1781 4219 1451 3797 
Q 1122 3375 1075 2522 
Q 1259 2794 1537 2939 
Q 1816 3084 2150 3084 
Q 2853 3084 3261 2657 
Q 3669 2231 3669 1497 
Q 3669 778 3244 343 
Q 2819 -91 2113 -91 
Q 1303 -91 875 529 
Q 447 1150 447 2328 
Q 447 3434 972 4092 
Q 1497 4750 2381 4750 
Q 2619 4750 2861 4703 
Q 3103 4656 3366 4563 
z
" transform="scale(0.015625)"/>
       </defs>
       <use xlink:href="#DejaVuSans-36"/>
      </g>
     </g>
    </g>
    <g id="ytick_7">
     <g id="line2d_27">
      <path d="M 57.6 69.153396 
L 414.72 69.153396 
" clip-path="url(#p3b4f9176c7)" style="fill: none; stroke: #b0b0b0; stroke-width: 0.8; stroke-linecap: square"/>
     </g>
     <g id="line2d_28">
      <g>
       <use xlink:href="#m10dcb44e24" x="57.6" y="69.153396" style="stroke: #000000; stroke-width: 0.8"/>
      </g>
     </g>
     <g id="text_15">
      <!-- 8 -->
      <g transform="translate(44.2375 72.952615) scale(0.1 -0.1)">
       <defs>
        <path id="DejaVuSans-38" d="M 2034 2216 
Q 1584 2216 1326 1975 
Q 1069 1734 1069 1313 
Q 1069 891 1326 650 
Q 1584 409 2034 409 
Q 2484 409 2743 651 
Q 3003 894 3003 1313 
Q 3003 1734 2745 1975 
Q 2488 2216 2034 2216 
z
M 1403 2484 
Q 997 2584 770 2862 
Q 544 3141 544 3541 
Q 544 4100 942 4425 
Q 1341 4750 2034 4750 
Q 2731 4750 3128 4425 
Q 3525 4100 3525 3541 
Q 3525 3141 3298 2862 
Q 3072 2584 2669 2484 
Q 3125 2378 3379 2068 
Q 3634 1759 3634 1313 
Q 3634 634 3220 271 
Q 2806 -91 2034 -91 
Q 1263 -91 848 271 
Q 434 634 434 1313 
Q 434 1759 690 2068 
Q 947 2378 1403 2484 
z
M 1172 3481 
Q 1172 3119 1398 2916 
Q 1625 2713 2034 2713 
Q 2441 2713 2670 2916 
Q 2900 3119 2900 3481 
Q 2900 3844 2670 4047 
Q 2441 4250 2034 4250 
Q 1625 4250 1398 4047 
Q 1172 3844 1172 3481 
z
" transform="scale(0.015625)"/>
       </defs>
       <use xlink:href="#DejaVuSans-38"/>
      </g>
     </g>
    </g>
    <g id="text_16">
     <!-- Delta p(answer not having B or A) -->
     <g transform="translate(29.778125 259.614719) rotate(-90) scale(0.1 -0.1)">
      <defs>
       <path id="DejaVuSans-44" d="M 1259 4147 
L 1259 519 
L 2022 519 
Q 2988 519 3436 956 
Q 3884 1394 3884 2338 
Q 3884 3275 3436 3711 
Q 2988 4147 2022 4147 
L 1259 4147 
z
M 628 4666 
L 1925 4666 
Q 3281 4666 3915 4102 
Q 4550 3538 4550 2338 
Q 4550 1131 3912 565 
Q 3275 0 1925 0 
L 628 0 
L 628 4666 
z
" transform="scale(0.015625)"/>
       <path id="DejaVuSans-6c" d="M 603 4863 
L 1178 4863 
L 1178 0 
L 603 0 
L 603 4863 
z
" transform="scale(0.015625)"/>
       <path id="DejaVuSans-74" d="M 1172 4494 
L 1172 3500 
L 2356 3500 
L 2356 3053 
L 1172 3053 
L 1172 1153 
Q 1172 725 1289 603 
Q 1406 481 1766 481 
L 2356 481 
L 2356 0 
L 1766 0 
Q 1100 0 847 248 
Q 594 497 594 1153 
L 594 3053 
L 172 3053 
L 172 3500 
L 594 3500 
L 594 4494 
L 1172 4494 
z
" transform="scale(0.015625)"/>
       <path id="DejaVuSans-20" transform="scale(0.015625)"/>
       <path id="DejaVuSans-70" d="M 1159 525 
L 1159 -1331 
L 581 -1331 
L 581 3500 
L 1159 3500 
L 1159 2969 
Q 1341 3281 1617 3432 
Q 1894 3584 2278 3584 
Q 2916 3584 3314 3078 
Q 3713 2572 3713 1747 
Q 3713 922 3314 415 
Q 2916 -91 2278 -91 
Q 1894 -91 1617 61 
Q 1341 213 1159 525 
z
M 3116 1747 
Q 3116 2381 2855 2742 
Q 2594 3103 2138 3103 
Q 1681 3103 1420 2742 
Q 1159 2381 1159 1747 
Q 1159 1113 1420 752 
Q 1681 391 2138 391 
Q 2594 391 2855 752 
Q 3116 1113 3116 1747 
z
" transform="scale(0.015625)"/>
       <path id="DejaVuSans-28" d="M 1984 4856 
Q 1566 4138 1362 3434 
Q 1159 2731 1159 2009 
Q 1159 1288 1364 580 
Q 1569 -128 1984 -844 
L 1484 -844 
Q 1016 -109 783 600 
Q 550 1309 550 2009 
Q 550 2706 781 3412 
Q 1013 4119 1484 4856 
L 1984 4856 
z
" transform="scale(0.015625)"/>
       <path id="DejaVuSans-6e" d="M 3513 2113 
L 3513 0 
L 2938 0 
L 2938 2094 
Q 2938 2591 2744 2837 
Q 2550 3084 2163 3084 
Q 1697 3084 1428 2787 
Q 1159 2491 1159 1978 
L 1159 0 
L 581 0 
L 581 3500 
L 1159 3500 
L 1159 2956 
Q 1366 3272 1645 3428 
Q 1925 3584 2291 3584 
Q 2894 3584 3203 3211 
Q 3513 2838 3513 2113 
z
" transform="scale(0.015625)"/>
       <path id="DejaVuSans-73" d="M 2834 3397 
L 2834 2853 
Q 2591 2978 2328 3040 
Q 2066 3103 1784 3103 
Q 1356 3103 1142 2972 
Q 928 2841 928 2578 
Q 928 2378 1081 2264 
Q 1234 2150 1697 2047 
L 1894 2003 
Q 2506 1872 2764 1633 
Q 3022 1394 3022 966 
Q 3022 478 2636 193 
Q 2250 -91 1575 -91 
Q 1294 -91 989 -36 
Q 684 19 347 128 
L 347 722 
Q 666 556 975 473 
Q 1284 391 1588 391 
Q 1994 391 2212 530 
Q 2431 669 2431 922 
Q 2431 1156 2273 1281 
Q 2116 1406 1581 1522 
L 1381 1569 
Q 847 1681 609 1914 
Q 372 2147 372 2553 
Q 372 3047 722 3315 
Q 1072 3584 1716 3584 
Q 2034 3584 2315 3537 
Q 2597 3491 2834 3397 
z
" transform="scale(0.015625)"/>
       <path id="DejaVuSans-77" d="M 269 3500 
L 844 3500 
L 1563 769 
L 2278 3500 
L 2956 3500 
L 3675 769 
L 4391 3500 
L 4966 3500 
L 4050 0 
L 3372 0 
L 2619 2869 
L 1863 0 
L 1184 0 
L 269 3500 
z
" transform="scale(0.015625)"/>
       <path id="DejaVuSans-6f" d="M 1959 3097 
Q 1497 3097 1228 2736 
Q 959 2375 959 1747 
Q 959 1119 1226 758 
Q 1494 397 1959 397 
Q 2419 397 2687 759 
Q 2956 1122 2956 1747 
Q 2956 2369 2687 2733 
Q 2419 3097 1959 3097 
z
M 1959 3584 
Q 2709 3584 3137 3096 
Q 3566 2609 3566 1747 
Q 3566 888 3137 398 
Q 2709 -91 1959 -91 
Q 1206 -91 779 398 
Q 353 888 353 1747 
Q 353 2609 779 3096 
Q 1206 3584 1959 3584 
z
" transform="scale(0.015625)"/>
       <path id="DejaVuSans-68" d="M 3513 2113 
L 3513 0 
L 2938 0 
L 2938 2094 
Q 2938 2591 2744 2837 
Q 2550 3084 2163 3084 
Q 1697 3084 1428 2787 
Q 1159 2491 1159 1978 
L 1159 0 
L 581 0 
L 581 4863 
L 1159 4863 
L 1159 2956 
Q 1366 3272 1645 3428 
Q 1925 3584 2291 3584 
Q 2894 3584 3203 3211 
Q 3513 2838 3513 2113 
z
" transform="scale(0.015625)"/>
       <path id="DejaVuSans-76" d="M 191 3500 
L 800 3500 
L 1894 563 
L 2988 3500 
L 3597 3500 
L 2284 0 
L 1503 0 
L 191 3500 
z
" transform="scale(0.015625)"/>
       <path id="DejaVuSans-69" d="M 603 3500 
L 1178 3500 
L 1178 0 
L 603 0 
L 603 3500 
z
M 603 4863 
L 1178 4863 
L 1178 4134 
L 603 4134 
L 603 4863 
z
" transform="scale(0.015625)"/>
       <path id="DejaVuSans-67" d="M 2906 1791 
Q 2906 2416 2648 2759 
Q 2391 3103 1925 3103 
Q 1463 3103 1205 2759 
Q 947 2416 947 1791 
Q 947 1169 1205 825 
Q 1463 481 1925 481 
Q 2391 481 2648 825 
Q 2906 1169 2906 1791 
z
M 3481 434 
Q 3481 -459 3084 -895 
Q 2688 -1331 1869 -1331 
Q 1566 -1331 1297 -1286 
Q 1028 -1241 775 -1147 
L 775 -588 
Q 1028 -725 1275 -790 
Q 1522 -856 1778 -856 
Q 2344 -856 2625 -561 
Q 2906 -266 2906 331 
L 2906 616 
Q 2728 306 2450 153 
Q 2172 0 1784 0 
Q 1141 0 747 490 
Q 353 981 353 1791 
Q 353 2603 747 3093 
Q 1141 3584 1784 3584 
Q 2172 3584 2450 3431 
Q 2728 3278 2906 2969 
L 2906 3500 
L 3481 3500 
L 3481 434 
z
" transform="scale(0.015625)"/>
       <path id="DejaVuSans-42" d="M 1259 2228 
L 1259 519 
L 2272 519 
Q 2781 519 3026 730 
Q 3272 941 3272 1375 
Q 3272 1813 3026 2020 
Q 2781 2228 2272 2228 
L 1259 2228 
z
M 1259 4147 
L 1259 2741 
L 2194 2741 
Q 2656 2741 2882 2914 
Q 3109 3088 3109 3444 
Q 3109 3797 2882 3972 
Q 2656 4147 2194 4147 
L 1259 4147 
z
M 628 4666 
L 2241 4666 
Q 2963 4666 3353 4366 
Q 3744 4066 3744 3513 
Q 3744 3084 3544 2831 
Q 3344 2578 2956 2516 
Q 3422 2416 3680 2098 
Q 3938 1781 3938 1306 
Q 3938 681 3513 340 
Q 3088 0 2303 0 
L 628 0 
L 628 4666 
z
" transform="scale(0.015625)"/>
       <path id="DejaVuSans-41" d="M 2188 4044 
L 1331 1722 
L 3047 1722 
L 2188 4044 
z
M 1831 4666 
L 2547 4666 
L 4325 0 
L 3669 0 
L 3244 1197 
L 1141 1197 
L 716 0 
L 50 0 
L 1831 4666 
z
" transform="scale(0.015625)"/>
       <path id="DejaVuSans-29" d="M 513 4856 
L 1013 4856 
Q 1481 4119 1714 3412 
Q 1947 2706 1947 2009 
Q 1947 1309 1714 600 
Q 1481 -109 1013 -844 
L 513 -844 
Q 928 -128 1133 580 
Q 1338 1288 1338 2009 
Q 1338 2731 1133 3434 
Q 928 4138 513 4856 
z
" transform="scale(0.015625)"/>
      </defs>
      <use xlink:href="#DejaVuSans-44"/>
      <use xlink:href="#DejaVuSans-65" x="77.001953"/>
      <use xlink:href="#DejaVuSans-6c" x="138.525391"/>
      <use xlink:href="#DejaVuSans-74" x="166.308594"/>
      <use xlink:href="#DejaVuSans-61" x="205.517578"/>
      <use xlink:href="#DejaVuSans-20" x="266.796875"/>
      <use xlink:href="#DejaVuSans-70" x="298.583984"/>
      <use xlink:href="#DejaVuSans-28" x="362.060547"/>
      <use xlink:href="#DejaVuSans-61" x="401.074219"/>
      <use xlink:href="#DejaVuSans-6e" x="462.353516"/>
      <use xlink:href="#DejaVuSans-73" x="525.732422"/>
      <use xlink:href="#DejaVuSans-77" x="577.832031"/>
      <use xlink:href="#DejaVuSans-65" x="659.619141"/>
      <use xlink:href="#DejaVuSans-72" x="721.142578"/>
      <use xlink:href="#DejaVuSans-20" x="762.255859"/>
      <use xlink:href="#DejaVuSans-6e" x="794.042969"/>
      <use xlink:href="#DejaVuSans-6f" x="857.421875"/>
      <use xlink:href="#DejaVuSans-74" x="918.603516"/>
      <use xlink:href="#DejaVuSans-20" x="957.8125"/>
      <use xlink:href="#DejaVuSans-68" x="989.599609"/>
      <use xlink:href="#DejaVuSans-61" x="1052.978516"/>
      <use xlink:href="#DejaVuSans-76" x="1114.257812"/>
      <use xlink:href="#DejaVuSans-69" x="1173.4375"/>
      <use xlink:href="#DejaVuSans-6e" x="1201.220703"/>
      <use xlink:href="#DejaVuSans-67" x="1264.599609"/>
      <use xlink:href="#DejaVuSans-20" x="1328.076172"/>
      <use xlink:href="#DejaVuSans-42" x="1359.863281"/>
      <use xlink:href="#DejaVuSans-20" x="1428.466797"/>
      <use xlink:href="#DejaVuSans-6f" x="1460.253906"/>
      <use xlink:href="#DejaVuSans-72" x="1521.435547"/>
      <use xlink:href="#DejaVuSans-20" x="1562.548828"/>
      <use xlink:href="#DejaVuSans-41" x="1594.335938"/>
      <use xlink:href="#DejaVuSans-29" x="1662.744141"/>
     </g>
    </g>
   </g>
   <g id="line2d_29">
    <path d="M 73.832727 214.499294 
L 84.305455 214.313681 
L 94.778182 214.557676 
L 105.250909 215.015945 
L 115.723636 213.531035 
L 126.196364 215.886755 
L 136.669091 214.07204 
L 147.141818 212.580627 
L 157.614545 213.559142 
L 168.087273 198.746642 
L 178.56 197.724761 
L 189.032727 210.011636 
L 199.505455 217.270703 
L 209.978182 217.972898 
L 220.450909 202.712629 
L 230.923636 205.623917 
L 241.396364 270.24115 
L 251.869091 277.082556 
L 262.341818 242.247709 
L 272.814545 271.524901 
L 283.287273 283.457811 
L 293.76 284.604453 
L 304.232727 252.357236 
L 314.705455 242.46954 
L 325.178182 241.904237 
L 335.650909 233.681165 
L 346.123636 230.588858 
L 356.596364 230.365402 
L 367.069091 215.627503 
L 377.541818 206.88946 
L 388.014545 206.825956 
L 398.487273 209.595297 
" clip-path="url(#p3b4f9176c7)" style="fill: none; stroke: #1f77b4; stroke-width: 2; stroke-linecap: square"/>
   </g>
   <g id="line2d_30">
    <path d="M 73.832727 214.499294 
L 84.305455 214.257396 
L 94.778182 214.183225 
L 105.250909 214.170701 
L 115.723636 214.815548 
L 126.196364 213.87263 
L 136.669091 214.020575 
L 147.141818 216.394117 
L 157.614545 214.638668 
L 168.087273 228.597379 
L 178.56 231.198181 
L 189.032727 220.247263 
L 199.505455 211.67439 
L 209.978182 210.045527 
L 220.450909 221.871985 
L 230.923636 217.957626 
L 241.396364 184.534361 
L 251.869091 178.716002 
L 262.341818 223.317799 
L 272.814545 169.9228 
L 283.287273 53.568 
L 293.76 152.386125 
L 304.232727 177.969633 
L 314.705455 183.416033 
L 325.178182 174.817247 
L 335.650909 188.286799 
L 346.123636 196.914676 
L 356.596364 198.459659 
L 367.069091 214.983821 
L 377.541818 218.290669 
L 388.014545 219.029674 
L 398.487273 216.966134 
" clip-path="url(#p3b4f9176c7)" style="fill: none; stroke: #ff7f0e; stroke-width: 3; stroke-linecap: square"/>
   </g>
   <g id="line2d_31">
    <path d="M 73.832727 214.499294 
L 84.305455 215.220909 
L 94.778182 215.173349 
L 105.250909 214.674385 
L 115.723636 213.744939 
L 126.196364 216.143258 
L 136.669091 216.92335 
L 147.141818 215.43755 
L 157.614545 216.279227 
L 168.087273 210.325344 
L 178.56 210.18246 
L 189.032727 212.63826 
L 199.505455 212.944261 
L 209.978182 214.022173 
L 220.450909 208.438424 
L 230.923636 213.115901 
L 241.396364 252.272157 
L 251.869091 264.588369 
L 262.341818 237.380528 
L 272.814545 255.084798 
L 283.287273 250.914233 
L 293.76 256.516789 
L 304.232727 247.551301 
L 314.705455 241.988917 
L 325.178182 235.318966 
L 335.650909 226.538337 
L 346.123636 224.674743 
L 356.596364 222.895612 
L 367.069091 215.096246 
L 377.541818 208.353381 
L 388.014545 207.066648 
L 398.487273 201.00599 
" clip-path="url(#p3b4f9176c7)" style="fill: none; stroke: #1f77b4; stroke-width: 2; stroke-linecap: square"/>
   </g>
   <g id="line2d_32">
    <path d="M 73.832727 214.499294 
L 84.305455 214.149949 
L 94.778182 215.117889 
L 105.250909 214.573968 
L 115.723636 215.742068 
L 126.196364 213.382864 
L 136.669091 212.371224 
L 147.141818 213.576446 
L 157.614545 213.295883 
L 168.087273 218.552836 
L 178.56 218.959981 
L 189.032727 216.28463 
L 199.505455 214.5591 
L 209.978182 213.651668 
L 220.450909 218.512237 
L 230.923636 212.355954 
L 241.396364 217.284369 
L 251.869091 194.077607 
L 262.341818 225.030868 
L 272.814545 199.641709 
L 283.287273 131.592526 
L 293.76 193.787671 
L 304.232727 185.01019 
L 314.705455 187.466526 
L 325.178182 190.874122 
L 335.650909 201.252304 
L 346.123636 202.530242 
L 356.596364 207.983703 
L 367.069091 213.19675 
L 377.541818 216.936346 
L 388.014545 218.084706 
L 398.487273 224.1004 
" clip-path="url(#p3b4f9176c7)" style="fill: none; stroke: #ff7f0e; stroke-width: 3; stroke-linecap: square"/>
   </g>
   <g id="line2d_33">
    <path d="M 73.832727 214.499294 
L 84.305455 215.729904 
L 94.778182 219.262285 
L 105.250909 220.112899 
L 115.723636 222.206762 
L 126.196364 221.168203 
L 136.669091 215.593569 
L 147.141818 212.059085 
L 157.614545 209.627452 
L 168.087273 219.557769 
L 178.56 225.276074 
L 189.032727 210.885734 
L 199.505455 225.89853 
L 209.978182 233.202911 
L 220.450909 231.858595 
L 230.923636 221.706628 
L 241.396364 248.617396 
L 251.869091 282.635384 
L 262.341818 278.579455 
L 272.814545 295.488 
L 283.287273 249.847032 
L 293.76 291.787739 
L 304.232727 272.186446 
L 314.705455 245.780981 
L 325.178182 242.783082 
L 335.650909 229.506422 
L 346.123636 228.064083 
L 356.596364 221.158153 
L 367.069091 219.566881 
L 377.541818 211.694488 
L 388.014545 206.649617 
L 398.487273 195.19208 
" clip-path="url(#p3b4f9176c7)" style="fill: none; stroke: #1f77b4; stroke-width: 2; stroke-linecap: square"/>
   </g>
   <g id="line2d_34">
    <path d="M 73.832727 214.499294 
L 84.305455 214.174511 
L 94.778182 211.972851 
L 105.250909 209.98637 
L 115.723636 207.757551 
L 126.196364 208.70437 
L 136.669091 213.05139 
L 147.141818 214.333904 
L 157.614545 214.895851 
L 168.087273 204.825387 
L 178.56 201.469277 
L 189.032727 210.712657 
L 199.505455 194.457151 
L 209.978182 184.662181 
L 220.450909 175.786226 
L 230.923636 171.149515 
L 241.396364 180.149439 
L 251.869091 152.847341 
L 262.341818 164.784481 
L 272.814545 97.306409 
L 283.287273 89.506128 
L 293.76 161.07914 
L 304.232727 142.577383 
L 314.705455 198.499586 
L 325.178182 190.336173 
L 335.650909 202.631505 
L 346.123636 202.792246 
L 356.596364 214.577669 
L 367.069091 212.622804 
L 377.541818 220.337695 
L 388.014545 222.821677 
L 398.487273 235.443417 
" clip-path="url(#p3b4f9176c7)" style="fill: none; stroke: #ff7f0e; stroke-width: 3; stroke-linecap: square"/>
   </g>
   <g id="line2d_35">
    <path d="M 73.832727 214.499294 
L 84.305455 214.645681 
L 94.778182 214.001495 
L 105.250909 213.966537 
L 115.723636 214.116547 
L 126.196364 214.581261 
L 136.669091 213.115121 
L 147.141818 213.88629 
L 157.614545 213.755798 
L 168.087273 212.986487 
L 178.56 212.723877 
L 189.032727 209.453202 
L 199.505455 209.397876 
L 209.978182 214.954516 
L 220.450909 219.563464 
L 230.923636 227.837748 
L 241.396364 216.55621 
L 251.869091 202.096454 
L 262.341818 218.783565 
L 272.814545 211.278861 
L 283.287273 241.398109 
L 293.76 220.798096 
L 304.232727 223.847394 
L 314.705455 228.215158 
L 325.178182 213.332934 
L 335.650909 221.017756 
L 346.123636 220.332197 
L 356.596364 214.712817 
L 367.069091 211.864863 
L 377.541818 207.474582 
L 388.014545 206.123629 
L 398.487273 187.487901 
" clip-path="url(#p3b4f9176c7)" style="fill: none; stroke: #1f77b4; stroke-width: 2; stroke-linecap: square"/>
   </g>
   <g id="line2d_36">
    <path d="M 73.832727 214.499294 
L 84.305455 214.59622 
L 94.778182 215.41513 
L 105.250909 215.286701 
L 115.723636 215.611997 
L 126.196364 214.587168 
L 136.669091 215.97759 
L 147.141818 216.408568 
L 157.614545 215.977083 
L 168.087273 216.407374 
L 178.56 216.980139 
L 189.032727 218.890973 
L 199.505455 219.232725 
L 209.978182 215.180476 
L 220.450909 205.514467 
L 230.923636 194.609064 
L 241.396364 210.134306 
L 251.869091 226.982821 
L 262.341818 234.983648 
L 272.814545 255.506798 
L 283.287273 240.139837 
L 293.76 220.395398 
L 304.232727 203.739612 
L 314.705455 200.413821 
L 325.178182 215.516235 
L 335.650909 207.094882 
L 346.123636 208.813445 
L 356.596364 215.704286 
L 367.069091 217.251211 
L 377.541818 221.806198 
L 388.014545 222.514045 
L 398.487273 237.039188 
" clip-path="url(#p3b4f9176c7)" style="fill: none; stroke: #ff7f0e; stroke-width: 3; stroke-linecap: square"/>
   </g>
   <g id="line2d_37">
    <path d="M 73.832727 214.499294 
L 84.305455 212.096629 
L 94.778182 210.861472 
L 105.250909 213.639518 
L 115.723636 216.470609 
L 126.196364 214.138366 
L 136.669091 210.251187 
L 147.141818 199.973864 
L 157.614545 209.882146 
L 168.087273 212.171525 
L 178.56 210.442359 
L 189.032727 215.147545 
L 199.505455 215.241275 
L 209.978182 215.981932 
L 220.450909 219.517814 
L 230.923636 208.298552 
L 241.396364 202.511801 
L 251.869091 205.827899 
L 262.341818 187.141503 
L 272.814545 175.270542 
L 283.287273 98.951567 
L 293.76 175.718049 
L 304.232727 147.346838 
L 314.705455 175.210055 
L 325.178182 192.558118 
L 335.650909 205.786431 
L 346.123636 207.192123 
L 356.596364 213.35368 
L 367.069091 214.477319 
L 377.541818 221.159192 
L 388.014545 228.97011 
L 398.487273 242.164902 
" clip-path="url(#p3b4f9176c7)" style="fill: none; stroke: #1f77b4; stroke-width: 2; stroke-linecap: square"/>
   </g>
   <g id="line2d_38">
    <path d="M 73.832727 214.499294 
L 84.305455 216.941078 
L 94.778182 216.395868 
L 105.250909 214.951374 
L 115.723636 211.338549 
L 126.196364 214.432106 
L 136.669091 218.345471 
L 147.141818 225.03594 
L 157.614545 219.968352 
L 168.087273 215.615002 
L 178.56 217.454874 
L 189.032727 213.774038 
L 199.505455 209.170511 
L 209.978182 209.444148 
L 220.450909 208.495839 
L 230.923636 207.053215 
L 241.396364 232.272352 
L 251.869091 233.333636 
L 262.341818 255.429295 
L 272.814545 272.349595 
L 283.287273 268.847784 
L 293.76 269.28497 
L 304.232727 265.528586 
L 314.705455 253.01204 
L 325.178182 232.089868 
L 335.650909 223.806754 
L 346.123636 223.656922 
L 356.596364 216.128353 
L 367.069091 213.652755 
L 377.541818 206.147007 
L 388.014545 194.322718 
L 398.487273 177.85884 
" clip-path="url(#p3b4f9176c7)" style="fill: none; stroke: #ff7f0e; stroke-width: 3; stroke-linecap: square"/>
   </g>
   <g id="line2d_39">
    <path d="M 73.832727 214.499294 
L 84.305455 220.976167 
L 94.778182 217.485278 
L 105.250909 217.860629 
L 115.723636 216.011026 
L 126.196364 221.186784 
L 136.669091 225.648359 
L 147.141818 222.971989 
L 157.614545 215.420839 
L 168.087273 200.103212 
L 178.56 194.736186 
L 189.032727 176.517792 
L 199.505455 178.320038 
L 209.978182 174.322688 
L 220.450909 186.590179 
L 230.923636 193.426043 
L 241.396364 216.280613 
L 251.869091 202.330543 
L 262.341818 254.677722 
L 272.814545 233.92393 
L 283.287273 289.706655 
L 293.76 257.288961 
L 304.232727 238.35046 
L 314.705455 240.186603 
L 325.178182 230.735326 
L 335.650909 221.699917 
L 346.123636 226.205838 
L 356.596364 219.305178 
L 367.069091 223.377923 
L 377.541818 222.193987 
L 388.014545 221.113336 
L 398.487273 223.138255 
" clip-path="url(#p3b4f9176c7)" style="fill: none; stroke: #1f77b4; stroke-width: 2; stroke-linecap: square"/>
   </g>
   <g id="line2d_40">
    <path d="M 73.832727 214.499294 
L 84.305455 208.00727 
L 94.778182 212.114276 
L 105.250909 214.488517 
L 115.723636 219.707563 
L 126.196364 207.753547 
L 136.669091 202.99317 
L 147.141818 204.391213 
L 157.614545 215.830045 
L 168.087273 215.080342 
L 178.56 218.465743 
L 189.032727 223.244805 
L 199.505455 220.883614 
L 209.978182 220.313814 
L 220.450909 215.408739 
L 230.923636 210.684638 
L 241.396364 192.933044 
L 251.869091 205.129496 
L 262.341818 173.143655 
L 272.814545 187.352432 
L 283.287273 109.648432 
L 293.76 165.630309 
L 304.232727 190.345798 
L 314.705455 182.669996 
L 325.178182 195.326313 
L 335.650909 205.804409 
L 346.123636 199.09206 
L 356.596364 207.859568 
L 367.069091 204.563218 
L 377.541818 203.974468 
L 388.014545 205.88454 
L 398.487273 204.378305 
" clip-path="url(#p3b4f9176c7)" style="fill: none; stroke: #ff7f0e; stroke-width: 3; stroke-linecap: square"/>
   </g>
   <g id="line2d_41">
    <path d="M 73.832727 214.499294 
L 84.305455 214.952976 
L 94.778182 216.374295 
L 105.250909 214.304464 
L 115.723636 216.180042 
L 126.196364 215.203103 
L 136.669091 213.214504 
L 147.141818 212.063025 
L 157.614545 213.702302 
L 168.087273 213.859825 
L 178.56 213.887266 
L 189.032727 216.443515 
L 199.505455 218.848391 
L 209.978182 219.640966 
L 220.450909 218.853671 
L 230.923636 217.780508 
L 241.396364 219.428521 
L 251.869091 226.450804 
L 262.341818 227.272319 
L 272.814545 226.764236 
L 283.287273 214.409067 
L 293.76 219.183615 
L 304.232727 221.857366 
L 314.705455 216.882861 
L 325.178182 212.052285 
L 335.650909 214.953964 
L 346.123636 213.267744 
L 356.596364 214.929276 
L 367.069091 215.240003 
L 377.541818 214.27019 
L 388.014545 210.102047 
L 398.487273 208.885917 
" clip-path="url(#p3b4f9176c7)" style="fill: none; stroke: #1f77b4; stroke-width: 2; stroke-linecap: square"/>
   </g>
   <g id="line2d_42">
    <path d="M 73.832727 214.499294 
L 84.305455 215.239208 
L 94.778182 214.35471 
L 105.250909 214.961717 
L 115.723636 213.233165 
L 126.196364 214.440926 
L 136.669091 216.326701 
L 147.141818 216.590419 
L 157.614545 216.166405 
L 168.087273 215.849739 
L 178.56 216.450887 
L 189.032727 213.061819 
L 199.505455 210.143652 
L 209.978182 208.921714 
L 220.450909 210.124697 
L 230.923636 211.67825 
L 241.396364 209.84341 
L 251.869091 203.224631 
L 262.341818 202.168348 
L 272.814545 203.875904 
L 283.287273 214.609006 
L 293.76 211.976324 
L 304.232727 207.040681 
L 314.705455 211.368004 
L 325.178182 217.678058 
L 335.650909 213.93105 
L 346.123636 216.123675 
L 356.596364 214.613978 
L 367.069091 215.000878 
L 377.541818 216.667712 
L 388.014545 219.103404 
L 398.487273 223.45373 
" clip-path="url(#p3b4f9176c7)" style="fill: none; stroke: #ff7f0e; stroke-width: 3; stroke-linecap: square"/>
   </g>
   <g id="patch_3">
    <path d="M 57.6 307.584 
L 57.6 41.472 
" style="fill: none; stroke: #000000; stroke-width: 0.8; stroke-linejoin: miter; stroke-linecap: square"/>
   </g>
   <g id="patch_4">
    <path d="M 414.72 307.584 
L 414.72 41.472 
" style="fill: none; stroke: #000000; stroke-width: 0.8; stroke-linejoin: miter; stroke-linecap: square"/>
   </g>
   <g id="patch_5">
    <path d="M 57.6 307.584 
L 414.72 307.584 
" style="fill: none; stroke: #000000; stroke-width: 0.8; stroke-linejoin: miter; stroke-linecap: square"/>
   </g>
   <g id="patch_6">
    <path d="M 57.6 41.472 
L 414.72 41.472 
" style="fill: none; stroke: #000000; stroke-width: 0.8; stroke-linejoin: miter; stroke-linecap: square"/>
   </g>
  </g>
 </g>
 <defs>
  <clipPath id="p3b4f9176c7">
   <rect x="57.6" y="41.472" width="357.12" height="266.112"/>
  </clipPath>
 </defs>
</svg>
