<?xml version="1.0" encoding="utf-8" standalone="no"?>
<!DOCTYPE svg PUBLIC "-//W3C//DTD SVG 1.1//EN"
  "http://www.w3.org/Graphics/SVG/1.1/DTD/svg11.dtd">
<svg xmlns:xlink="http://www.w3.org/1999/xlink" width="460.8pt" height="345.6pt" viewBox="0 0 460.8 345.6" xmlns="http://www.w3.org/2000/svg" version="1.1">
 <metadata>
  <rdf:RDF xmlns:dc="http://purl.org/dc/elements/1.1/" xmlns:cc="http://creativecommons.org/ns#" xmlns:rdf="http://www.w3.org/1999/02/22-rdf-syntax-ns#">
   <cc:Work>
    <dc:type rdf:resource="http://purl.org/dc/dcmitype/StillImage"/>
    <dc:date>2024-03-25T21:10:29.116453</dc:date>
    <dc:format>image/svg+xml</dc:format>
    <dc:creator>
     <cc:Agent>
      <dc:title>Matplotlib v3.8.3, https://matplotlib.org/</dc:title>
     </cc:Agent>
    </dc:creator>
   </cc:Work>
  </rdf:RDF>
 </metadata>
 <defs>
  <style type="text/css">*{stroke-linejoin: round; stroke-linecap: butt}</style>
 </defs>
 <g id="figure_1">
  <g id="patch_1">
   <path d="M 0 345.6 
L 460.8 345.6 
L 460.8 0 
L 0 0 
z
" style="fill: #ffffff"/>
  </g>
  <g id="axes_1">
   <g id="patch_2">
    <path d="M 57.6 307.584 
L 414.72 307.584 
L 414.72 41.472 
L 57.6 41.472 
z
" style="fill: #ffffff"/>
   </g>
   <g id="matplotlib.axis_1">
    <g id="xtick_1">
     <g id="line2d_1">
      <defs>
       <path id="m51c52d9986" d="M 0 0 
L 0 3.5 
" style="stroke: #000000; stroke-width: 0.8"/>
      </defs>
      <g>
       <use xlink:href="#m51c52d9986" x="73.832727" y="307.584" style="stroke: #000000; stroke-width: 0.8"/>
      </g>
     </g>
     <g id="text_1">
      <!-- 0 -->
      <g transform="translate(69.378977 325.221812) scale(0.14 -0.14)">
       <defs>
        <path id="DejaVuSans-30" d="M 2034 4250 
Q 1547 4250 1301 3770 
Q 1056 3291 1056 2328 
Q 1056 1369 1301 889 
Q 1547 409 2034 409 
Q 2525 409 2770 889 
Q 3016 1369 3016 2328 
Q 3016 3291 2770 3770 
Q 2525 4250 2034 4250 
z
M 2034 4750 
Q 2819 4750 3233 4129 
Q 3647 3509 3647 2328 
Q 3647 1150 3233 529 
Q 2819 -91 2034 -91 
Q 1250 -91 836 529 
Q 422 1150 422 2328 
Q 422 3509 836 4129 
Q 1250 4750 2034 4750 
z
" transform="scale(0.015625)"/>
       </defs>
       <use xlink:href="#DejaVuSans-30"/>
      </g>
     </g>
    </g>
    <g id="xtick_2">
     <g id="line2d_2">
      <g>
       <use xlink:href="#m51c52d9986" x="144.409802" y="307.584" style="stroke: #000000; stroke-width: 0.8"/>
      </g>
     </g>
     <g id="text_2">
      <!-- 10 -->
      <g transform="translate(135.502302 325.221812) scale(0.14 -0.14)">
       <defs>
        <path id="DejaVuSans-31" d="M 794 531 
L 1825 531 
L 1825 4091 
L 703 3866 
L 703 4441 
L 1819 4666 
L 2450 4666 
L 2450 531 
L 3481 531 
L 3481 0 
L 794 0 
L 794 531 
z
" transform="scale(0.015625)"/>
       </defs>
       <use xlink:href="#DejaVuSans-31"/>
       <use xlink:href="#DejaVuSans-30" x="63.623047"/>
      </g>
     </g>
    </g>
    <g id="xtick_3">
     <g id="line2d_3">
      <g>
       <use xlink:href="#m51c52d9986" x="214.986877" y="307.584" style="stroke: #000000; stroke-width: 0.8"/>
      </g>
     </g>
     <g id="text_3">
      <!-- 20 -->
      <g transform="translate(206.079377 325.221812) scale(0.14 -0.14)">
       <defs>
        <path id="DejaVuSans-32" d="M 1228 531 
L 3431 531 
L 3431 0 
L 469 0 
L 469 531 
Q 828 903 1448 1529 
Q 2069 2156 2228 2338 
Q 2531 2678 2651 2914 
Q 2772 3150 2772 3378 
Q 2772 3750 2511 3984 
Q 2250 4219 1831 4219 
Q 1534 4219 1204 4116 
Q 875 4013 500 3803 
L 500 4441 
Q 881 4594 1212 4672 
Q 1544 4750 1819 4750 
Q 2544 4750 2975 4387 
Q 3406 4025 3406 3419 
Q 3406 3131 3298 2873 
Q 3191 2616 2906 2266 
Q 2828 2175 2409 1742 
Q 1991 1309 1228 531 
z
" transform="scale(0.015625)"/>
       </defs>
       <use xlink:href="#DejaVuSans-32"/>
       <use xlink:href="#DejaVuSans-30" x="63.623047"/>
      </g>
     </g>
    </g>
    <g id="xtick_4">
     <g id="line2d_4">
      <g>
       <use xlink:href="#m51c52d9986" x="285.563953" y="307.584" style="stroke: #000000; stroke-width: 0.8"/>
      </g>
     </g>
     <g id="text_4">
      <!-- 30 -->
      <g transform="translate(276.656453 325.221812) scale(0.14 -0.14)">
       <defs>
        <path id="DejaVuSans-33" d="M 2597 2516 
Q 3050 2419 3304 2112 
Q 3559 1806 3559 1356 
Q 3559 666 3084 287 
Q 2609 -91 1734 -91 
Q 1441 -91 1130 -33 
Q 819 25 488 141 
L 488 750 
Q 750 597 1062 519 
Q 1375 441 1716 441 
Q 2309 441 2620 675 
Q 2931 909 2931 1356 
Q 2931 1769 2642 2001 
Q 2353 2234 1838 2234 
L 1294 2234 
L 1294 2753 
L 1863 2753 
Q 2328 2753 2575 2939 
Q 2822 3125 2822 3475 
Q 2822 3834 2567 4026 
Q 2313 4219 1838 4219 
Q 1578 4219 1281 4162 
Q 984 4106 628 3988 
L 628 4550 
Q 988 4650 1302 4700 
Q 1616 4750 1894 4750 
Q 2613 4750 3031 4423 
Q 3450 4097 3450 3541 
Q 3450 3153 3228 2886 
Q 3006 2619 2597 2516 
z
" transform="scale(0.015625)"/>
       </defs>
       <use xlink:href="#DejaVuSans-33"/>
       <use xlink:href="#DejaVuSans-30" x="63.623047"/>
      </g>
     </g>
    </g>
    <g id="xtick_5">
     <g id="line2d_5">
      <g>
       <use xlink:href="#m51c52d9986" x="356.141028" y="307.584" style="stroke: #000000; stroke-width: 0.8"/>
      </g>
     </g>
     <g id="text_5">
      <!-- 40 -->
      <g transform="translate(347.233528 325.221812) scale(0.14 -0.14)">
       <defs>
        <path id="DejaVuSans-34" d="M 2419 4116 
L 825 1625 
L 2419 1625 
L 2419 4116 
z
M 2253 4666 
L 3047 4666 
L 3047 1625 
L 3713 1625 
L 3713 1100 
L 3047 1100 
L 3047 0 
L 2419 0 
L 2419 1100 
L 313 1100 
L 313 1709 
L 2253 4666 
z
" transform="scale(0.015625)"/>
       </defs>
       <use xlink:href="#DejaVuSans-34"/>
       <use xlink:href="#DejaVuSans-30" x="63.623047"/>
      </g>
     </g>
    </g>
    <g id="text_6">
     <!-- Distance to last layer -->
     <g transform="translate(161.663594 342.771187) scale(0.14 -0.14)">
      <defs>
       <path id="DejaVuSans-44" d="M 1259 4147 
L 1259 519 
L 2022 519 
Q 2988 519 3436 956 
Q 3884 1394 3884 2338 
Q 3884 3275 3436 3711 
Q 2988 4147 2022 4147 
L 1259 4147 
z
M 628 4666 
L 1925 4666 
Q 3281 4666 3915 4102 
Q 4550 3538 4550 2338 
Q 4550 1131 3912 565 
Q 3275 0 1925 0 
L 628 0 
L 628 4666 
z
" transform="scale(0.015625)"/>
       <path id="DejaVuSans-69" d="M 603 3500 
L 1178 3500 
L 1178 0 
L 603 0 
L 603 3500 
z
M 603 4863 
L 1178 4863 
L 1178 4134 
L 603 4134 
L 603 4863 
z
" transform="scale(0.015625)"/>
       <path id="DejaVuSans-73" d="M 2834 3397 
L 2834 2853 
Q 2591 2978 2328 3040 
Q 2066 3103 1784 3103 
Q 1356 3103 1142 2972 
Q 928 2841 928 2578 
Q 928 2378 1081 2264 
Q 1234 2150 1697 2047 
L 1894 2003 
Q 2506 1872 2764 1633 
Q 3022 1394 3022 966 
Q 3022 478 2636 193 
Q 2250 -91 1575 -91 
Q 1294 -91 989 -36 
Q 684 19 347 128 
L 347 722 
Q 666 556 975 473 
Q 1284 391 1588 391 
Q 1994 391 2212 530 
Q 2431 669 2431 922 
Q 2431 1156 2273 1281 
Q 2116 1406 1581 1522 
L 1381 1569 
Q 847 1681 609 1914 
Q 372 2147 372 2553 
Q 372 3047 722 3315 
Q 1072 3584 1716 3584 
Q 2034 3584 2315 3537 
Q 2597 3491 2834 3397 
z
" transform="scale(0.015625)"/>
       <path id="DejaVuSans-74" d="M 1172 4494 
L 1172 3500 
L 2356 3500 
L 2356 3053 
L 1172 3053 
L 1172 1153 
Q 1172 725 1289 603 
Q 1406 481 1766 481 
L 2356 481 
L 2356 0 
L 1766 0 
Q 1100 0 847 248 
Q 594 497 594 1153 
L 594 3053 
L 172 3053 
L 172 3500 
L 594 3500 
L 594 4494 
L 1172 4494 
z
" transform="scale(0.015625)"/>
       <path id="DejaVuSans-61" d="M 2194 1759 
Q 1497 1759 1228 1600 
Q 959 1441 959 1056 
Q 959 750 1161 570 
Q 1363 391 1709 391 
Q 2188 391 2477 730 
Q 2766 1069 2766 1631 
L 2766 1759 
L 2194 1759 
z
M 3341 1997 
L 3341 0 
L 2766 0 
L 2766 531 
Q 2569 213 2275 61 
Q 1981 -91 1556 -91 
Q 1019 -91 701 211 
Q 384 513 384 1019 
Q 384 1609 779 1909 
Q 1175 2209 1959 2209 
L 2766 2209 
L 2766 2266 
Q 2766 2663 2505 2880 
Q 2244 3097 1772 3097 
Q 1472 3097 1187 3025 
Q 903 2953 641 2809 
L 641 3341 
Q 956 3463 1253 3523 
Q 1550 3584 1831 3584 
Q 2591 3584 2966 3190 
Q 3341 2797 3341 1997 
z
" transform="scale(0.015625)"/>
       <path id="DejaVuSans-6e" d="M 3513 2113 
L 3513 0 
L 2938 0 
L 2938 2094 
Q 2938 2591 2744 2837 
Q 2550 3084 2163 3084 
Q 1697 3084 1428 2787 
Q 1159 2491 1159 1978 
L 1159 0 
L 581 0 
L 581 3500 
L 1159 3500 
L 1159 2956 
Q 1366 3272 1645 3428 
Q 1925 3584 2291 3584 
Q 2894 3584 3203 3211 
Q 3513 2838 3513 2113 
z
" transform="scale(0.015625)"/>
       <path id="DejaVuSans-63" d="M 3122 3366 
L 3122 2828 
Q 2878 2963 2633 3030 
Q 2388 3097 2138 3097 
Q 1578 3097 1268 2742 
Q 959 2388 959 1747 
Q 959 1106 1268 751 
Q 1578 397 2138 397 
Q 2388 397 2633 464 
Q 2878 531 3122 666 
L 3122 134 
Q 2881 22 2623 -34 
Q 2366 -91 2075 -91 
Q 1284 -91 818 406 
Q 353 903 353 1747 
Q 353 2603 823 3093 
Q 1294 3584 2113 3584 
Q 2378 3584 2631 3529 
Q 2884 3475 3122 3366 
z
" transform="scale(0.015625)"/>
       <path id="DejaVuSans-65" d="M 3597 1894 
L 3597 1613 
L 953 1613 
Q 991 1019 1311 708 
Q 1631 397 2203 397 
Q 2534 397 2845 478 
Q 3156 559 3463 722 
L 3463 178 
Q 3153 47 2828 -22 
Q 2503 -91 2169 -91 
Q 1331 -91 842 396 
Q 353 884 353 1716 
Q 353 2575 817 3079 
Q 1281 3584 2069 3584 
Q 2775 3584 3186 3129 
Q 3597 2675 3597 1894 
z
M 3022 2063 
Q 3016 2534 2758 2815 
Q 2500 3097 2075 3097 
Q 1594 3097 1305 2825 
Q 1016 2553 972 2059 
L 3022 2063 
z
" transform="scale(0.015625)"/>
       <path id="DejaVuSans-20" transform="scale(0.015625)"/>
       <path id="DejaVuSans-6f" d="M 1959 3097 
Q 1497 3097 1228 2736 
Q 959 2375 959 1747 
Q 959 1119 1226 758 
Q 1494 397 1959 397 
Q 2419 397 2687 759 
Q 2956 1122 2956 1747 
Q 2956 2369 2687 2733 
Q 2419 3097 1959 3097 
z
M 1959 3584 
Q 2709 3584 3137 3096 
Q 3566 2609 3566 1747 
Q 3566 888 3137 398 
Q 2709 -91 1959 -91 
Q 1206 -91 779 398 
Q 353 888 353 1747 
Q 353 2609 779 3096 
Q 1206 3584 1959 3584 
z
" transform="scale(0.015625)"/>
       <path id="DejaVuSans-6c" d="M 603 4863 
L 1178 4863 
L 1178 0 
L 603 0 
L 603 4863 
z
" transform="scale(0.015625)"/>
       <path id="DejaVuSans-79" d="M 2059 -325 
Q 1816 -950 1584 -1140 
Q 1353 -1331 966 -1331 
L 506 -1331 
L 506 -850 
L 844 -850 
Q 1081 -850 1212 -737 
Q 1344 -625 1503 -206 
L 1606 56 
L 191 3500 
L 800 3500 
L 1894 763 
L 2988 3500 
L 3597 3500 
L 2059 -325 
z
" transform="scale(0.015625)"/>
       <path id="DejaVuSans-72" d="M 2631 2963 
Q 2534 3019 2420 3045 
Q 2306 3072 2169 3072 
Q 1681 3072 1420 2755 
Q 1159 2438 1159 1844 
L 1159 0 
L 581 0 
L 581 3500 
L 1159 3500 
L 1159 2956 
Q 1341 3275 1631 3429 
Q 1922 3584 2338 3584 
Q 2397 3584 2469 3576 
Q 2541 3569 2628 3553 
L 2631 2963 
z
" transform="scale(0.015625)"/>
      </defs>
      <use xlink:href="#DejaVuSans-44"/>
      <use xlink:href="#DejaVuSans-69" x="77.001953"/>
      <use xlink:href="#DejaVuSans-73" x="104.785156"/>
      <use xlink:href="#DejaVuSans-74" x="156.884766"/>
      <use xlink:href="#DejaVuSans-61" x="196.09375"/>
      <use xlink:href="#DejaVuSans-6e" x="257.373047"/>
      <use xlink:href="#DejaVuSans-63" x="320.751953"/>
      <use xlink:href="#DejaVuSans-65" x="375.732422"/>
      <use xlink:href="#DejaVuSans-20" x="437.255859"/>
      <use xlink:href="#DejaVuSans-74" x="469.042969"/>
      <use xlink:href="#DejaVuSans-6f" x="508.251953"/>
      <use xlink:href="#DejaVuSans-20" x="569.433594"/>
      <use xlink:href="#DejaVuSans-6c" x="601.220703"/>
      <use xlink:href="#DejaVuSans-61" x="629.003906"/>
      <use xlink:href="#DejaVuSans-73" x="690.283203"/>
      <use xlink:href="#DejaVuSans-74" x="742.382812"/>
      <use xlink:href="#DejaVuSans-20" x="781.591797"/>
      <use xlink:href="#DejaVuSans-6c" x="813.378906"/>
      <use xlink:href="#DejaVuSans-61" x="841.162109"/>
      <use xlink:href="#DejaVuSans-79" x="902.441406"/>
      <use xlink:href="#DejaVuSans-65" x="961.621094"/>
      <use xlink:href="#DejaVuSans-72" x="1023.144531"/>
     </g>
    </g>
   </g>
   <g id="matplotlib.axis_2">
    <g id="ytick_1">
     <g id="line2d_6">
      <defs>
       <path id="m7a95cd41d8" d="M 0 0 
L -3.5 0 
" style="stroke: #000000; stroke-width: 0.8"/>
      </defs>
      <g>
       <use xlink:href="#m7a95cd41d8" x="57.6" y="300.674492" style="stroke: #000000; stroke-width: 0.8"/>
      </g>
     </g>
     <g id="text_7">
      <!-- 0 -->
      <g transform="translate(41.6925 305.993398) scale(0.14 -0.14)">
       <use xlink:href="#DejaVuSans-30"/>
      </g>
     </g>
    </g>
    <g id="ytick_2">
     <g id="line2d_7">
      <g>
       <use xlink:href="#m7a95cd41d8" x="57.6" y="266.755359" style="stroke: #000000; stroke-width: 0.8"/>
      </g>
     </g>
     <g id="text_8">
      <!-- 5 -->
      <g transform="translate(41.6925 272.074265) scale(0.14 -0.14)">
       <defs>
        <path id="DejaVuSans-35" d="M 691 4666 
L 3169 4666 
L 3169 4134 
L 1269 4134 
L 1269 2991 
Q 1406 3038 1543 3061 
Q 1681 3084 1819 3084 
Q 2600 3084 3056 2656 
Q 3513 2228 3513 1497 
Q 3513 744 3044 326 
Q 2575 -91 1722 -91 
Q 1428 -91 1123 -41 
Q 819 9 494 109 
L 494 744 
Q 775 591 1075 516 
Q 1375 441 1709 441 
Q 2250 441 2565 725 
Q 2881 1009 2881 1497 
Q 2881 1984 2565 2268 
Q 2250 2553 1709 2553 
Q 1456 2553 1204 2497 
Q 953 2441 691 2322 
L 691 4666 
z
" transform="scale(0.015625)"/>
       </defs>
       <use xlink:href="#DejaVuSans-35"/>
      </g>
     </g>
    </g>
    <g id="ytick_3">
     <g id="line2d_8">
      <g>
       <use xlink:href="#m7a95cd41d8" x="57.6" y="232.836227" style="stroke: #000000; stroke-width: 0.8"/>
      </g>
     </g>
     <g id="text_9">
      <!-- 10 -->
      <g transform="translate(32.785 238.155133) scale(0.14 -0.14)">
       <use xlink:href="#DejaVuSans-31"/>
       <use xlink:href="#DejaVuSans-30" x="63.623047"/>
      </g>
     </g>
    </g>
    <g id="ytick_4">
     <g id="line2d_9">
      <g>
       <use xlink:href="#m7a95cd41d8" x="57.6" y="198.917094" style="stroke: #000000; stroke-width: 0.8"/>
      </g>
     </g>
     <g id="text_10">
      <!-- 15 -->
      <g transform="translate(32.785 204.236) scale(0.14 -0.14)">
       <use xlink:href="#DejaVuSans-31"/>
       <use xlink:href="#DejaVuSans-35" x="63.623047"/>
      </g>
     </g>
    </g>
    <g id="ytick_5">
     <g id="line2d_10">
      <g>
       <use xlink:href="#m7a95cd41d8" x="57.6" y="164.997961" style="stroke: #000000; stroke-width: 0.8"/>
      </g>
     </g>
     <g id="text_11">
      <!-- 20 -->
      <g transform="translate(32.785 170.316867) scale(0.14 -0.14)">
       <use xlink:href="#DejaVuSans-32"/>
       <use xlink:href="#DejaVuSans-30" x="63.623047"/>
      </g>
     </g>
    </g>
    <g id="ytick_6">
     <g id="line2d_11">
      <g>
       <use xlink:href="#m7a95cd41d8" x="57.6" y="131.078829" style="stroke: #000000; stroke-width: 0.8"/>
      </g>
     </g>
     <g id="text_12">
      <!-- 25 -->
      <g transform="translate(32.785 136.397735) scale(0.14 -0.14)">
       <use xlink:href="#DejaVuSans-32"/>
       <use xlink:href="#DejaVuSans-35" x="63.623047"/>
      </g>
     </g>
    </g>
    <g id="ytick_7">
     <g id="line2d_12">
      <g>
       <use xlink:href="#m7a95cd41d8" x="57.6" y="97.159696" style="stroke: #000000; stroke-width: 0.8"/>
      </g>
     </g>
     <g id="text_13">
      <!-- 30 -->
      <g transform="translate(32.785 102.478602) scale(0.14 -0.14)">
       <use xlink:href="#DejaVuSans-33"/>
       <use xlink:href="#DejaVuSans-30" x="63.623047"/>
      </g>
     </g>
    </g>
    <g id="ytick_8">
     <g id="line2d_13">
      <g>
       <use xlink:href="#m7a95cd41d8" x="57.6" y="63.240563" style="stroke: #000000; stroke-width: 0.8"/>
      </g>
     </g>
     <g id="text_14">
      <!-- 35 -->
      <g transform="translate(32.785 68.559469) scale(0.14 -0.14)">
       <use xlink:href="#DejaVuSans-33"/>
       <use xlink:href="#DejaVuSans-35" x="63.623047"/>
      </g>
     </g>
    </g>
    <g id="text_15">
     <!-- bits per byte -->
     <g transform="translate(25.873437 219.023937) rotate(-90) scale(0.14 -0.14)">
      <defs>
       <path id="DejaVuSans-62" d="M 3116 1747 
Q 3116 2381 2855 2742 
Q 2594 3103 2138 3103 
Q 1681 3103 1420 2742 
Q 1159 2381 1159 1747 
Q 1159 1113 1420 752 
Q 1681 391 2138 391 
Q 2594 391 2855 752 
Q 3116 1113 3116 1747 
z
M 1159 2969 
Q 1341 3281 1617 3432 
Q 1894 3584 2278 3584 
Q 2916 3584 3314 3078 
Q 3713 2572 3713 1747 
Q 3713 922 3314 415 
Q 2916 -91 2278 -91 
Q 1894 -91 1617 61 
Q 1341 213 1159 525 
L 1159 0 
L 581 0 
L 581 4863 
L 1159 4863 
L 1159 2969 
z
" transform="scale(0.015625)"/>
       <path id="DejaVuSans-70" d="M 1159 525 
L 1159 -1331 
L 581 -1331 
L 581 3500 
L 1159 3500 
L 1159 2969 
Q 1341 3281 1617 3432 
Q 1894 3584 2278 3584 
Q 2916 3584 3314 3078 
Q 3713 2572 3713 1747 
Q 3713 922 3314 415 
Q 2916 -91 2278 -91 
Q 1894 -91 1617 61 
Q 1341 213 1159 525 
z
M 3116 1747 
Q 3116 2381 2855 2742 
Q 2594 3103 2138 3103 
Q 1681 3103 1420 2742 
Q 1159 2381 1159 1747 
Q 1159 1113 1420 752 
Q 1681 391 2138 391 
Q 2594 391 2855 752 
Q 3116 1113 3116 1747 
z
" transform="scale(0.015625)"/>
      </defs>
      <use xlink:href="#DejaVuSans-62"/>
      <use xlink:href="#DejaVuSans-69" x="63.476562"/>
      <use xlink:href="#DejaVuSans-74" x="91.259766"/>
      <use xlink:href="#DejaVuSans-73" x="130.46875"/>
      <use xlink:href="#DejaVuSans-20" x="182.568359"/>
      <use xlink:href="#DejaVuSans-70" x="214.355469"/>
      <use xlink:href="#DejaVuSans-65" x="277.832031"/>
      <use xlink:href="#DejaVuSans-72" x="339.355469"/>
      <use xlink:href="#DejaVuSans-20" x="380.46875"/>
      <use xlink:href="#DejaVuSans-62" x="412.255859"/>
      <use xlink:href="#DejaVuSans-79" x="475.732422"/>
      <use xlink:href="#DejaVuSans-74" x="534.912109"/>
      <use xlink:href="#DejaVuSans-65" x="574.121094"/>
     </g>
    </g>
   </g>
   <g id="line2d_14">
    <path d="M 236.16 269.543151 
L 229.102292 277.70858 
L 222.044585 278.544667 
L 214.986877 279.728599 
L 207.92917 280.615784 
L 200.871462 281.559276 
L 193.813755 282.688751 
L 186.756047 282.937773 
L 179.69834 284.056297 
L 172.640632 284.600256 
L 165.582925 285.71428 
L 158.525217 287.636715 
L 151.46751 288.749167 
L 144.409802 288.195277 
L 137.352095 288.034312 
L 130.294387 288.23326 
L 123.23668 290.358345 
L 116.178972 291.325907 
L 109.121265 291.58415 
L 102.063557 291.790816 
L 95.00585 291.861529 
L 87.948142 292.178655 
L 80.890435 292.781887 
L 73.832727 294.169971 
" clip-path="url(#p305a419144)" style="fill: none; stroke: #0000ff; stroke-width: 1.5; stroke-linecap: square"/>
    <defs>
     <path id="m5c2d4042ca" d="M -0 4.242641 
L 2.545584 0 
L 0 -4.242641 
L -2.545584 -0 
z
" style="stroke: #0000ff; stroke-linejoin: miter"/>
    </defs>
    <g clip-path="url(#p305a419144)">
     <use xlink:href="#m5c2d4042ca" x="236.16" y="269.543151" style="fill: #0000ff; stroke: #0000ff; stroke-linejoin: miter"/>
     <use xlink:href="#m5c2d4042ca" x="229.102292" y="277.70858" style="fill: #0000ff; stroke: #0000ff; stroke-linejoin: miter"/>
     <use xlink:href="#m5c2d4042ca" x="222.044585" y="278.544667" style="fill: #0000ff; stroke: #0000ff; stroke-linejoin: miter"/>
     <use xlink:href="#m5c2d4042ca" x="214.986877" y="279.728599" style="fill: #0000ff; stroke: #0000ff; stroke-linejoin: miter"/>
     <use xlink:href="#m5c2d4042ca" x="207.92917" y="280.615784" style="fill: #0000ff; stroke: #0000ff; stroke-linejoin: miter"/>
     <use xlink:href="#m5c2d4042ca" x="200.871462" y="281.559276" style="fill: #0000ff; stroke: #0000ff; stroke-linejoin: miter"/>
     <use xlink:href="#m5c2d4042ca" x="193.813755" y="282.688751" style="fill: #0000ff; stroke: #0000ff; stroke-linejoin: miter"/>
     <use xlink:href="#m5c2d4042ca" x="186.756047" y="282.937773" style="fill: #0000ff; stroke: #0000ff; stroke-linejoin: miter"/>
     <use xlink:href="#m5c2d4042ca" x="179.69834" y="284.056297" style="fill: #0000ff; stroke: #0000ff; stroke-linejoin: miter"/>
     <use xlink:href="#m5c2d4042ca" x="172.640632" y="284.600256" style="fill: #0000ff; stroke: #0000ff; stroke-linejoin: miter"/>
     <use xlink:href="#m5c2d4042ca" x="165.582925" y="285.71428" style="fill: #0000ff; stroke: #0000ff; stroke-linejoin: miter"/>
     <use xlink:href="#m5c2d4042ca" x="158.525217" y="287.636715" style="fill: #0000ff; stroke: #0000ff; stroke-linejoin: miter"/>
     <use xlink:href="#m5c2d4042ca" x="151.46751" y="288.749167" style="fill: #0000ff; stroke: #0000ff; stroke-linejoin: miter"/>
     <use xlink:href="#m5c2d4042ca" x="144.409802" y="288.195277" style="fill: #0000ff; stroke: #0000ff; stroke-linejoin: miter"/>
     <use xlink:href="#m5c2d4042ca" x="137.352095" y="288.034312" style="fill: #0000ff; stroke: #0000ff; stroke-linejoin: miter"/>
     <use xlink:href="#m5c2d4042ca" x="130.294387" y="288.23326" style="fill: #0000ff; stroke: #0000ff; stroke-linejoin: miter"/>
     <use xlink:href="#m5c2d4042ca" x="123.23668" y="290.358345" style="fill: #0000ff; stroke: #0000ff; stroke-linejoin: miter"/>
     <use xlink:href="#m5c2d4042ca" x="116.178972" y="291.325907" style="fill: #0000ff; stroke: #0000ff; stroke-linejoin: miter"/>
     <use xlink:href="#m5c2d4042ca" x="109.121265" y="291.58415" style="fill: #0000ff; stroke: #0000ff; stroke-linejoin: miter"/>
     <use xlink:href="#m5c2d4042ca" x="102.063557" y="291.790816" style="fill: #0000ff; stroke: #0000ff; stroke-linejoin: miter"/>
     <use xlink:href="#m5c2d4042ca" x="95.00585" y="291.861529" style="fill: #0000ff; stroke: #0000ff; stroke-linejoin: miter"/>
     <use xlink:href="#m5c2d4042ca" x="87.948142" y="292.178655" style="fill: #0000ff; stroke: #0000ff; stroke-linejoin: miter"/>
     <use xlink:href="#m5c2d4042ca" x="80.890435" y="292.781887" style="fill: #0000ff; stroke: #0000ff; stroke-linejoin: miter"/>
     <use xlink:href="#m5c2d4042ca" x="73.832727" y="294.169971" style="fill: #0000ff; stroke: #0000ff; stroke-linejoin: miter"/>
    </g>
   </g>
   <g id="line2d_15">
    <path d="M 398.487273 53.568 
L 391.429565 83.224934 
L 384.371858 98.732977 
L 377.31415 111.607093 
L 370.256443 122.525771 
L 363.198735 131.990648 
L 356.141028 141.22464 
L 349.08332 150.115758 
L 342.025613 158.708241 
L 334.967905 167.595257 
L 327.910198 177.644038 
L 320.85249 187.822547 
L 313.794783 200.025343 
L 306.737075 209.40257 
L 299.679368 218.966451 
L 292.62166 227.934227 
L 285.563953 235.06948 
L 278.506245 241.210705 
L 271.448538 246.154142 
L 264.39083 250.519785 
L 257.333123 253.953857 
L 250.275415 256.95313 
L 243.217708 259.795748 
L 236.16 262.550656 
L 229.102292 265.24691 
L 222.044585 268.160412 
L 214.986877 270.194817 
L 207.92917 272.560652 
L 200.871462 274.140646 
L 193.813755 274.380128 
L 186.756047 276.437931 
L 179.69834 278.280776 
L 172.640632 279.997495 
L 165.582925 280.961716 
L 158.525217 281.421335 
L 151.46751 280.974182 
L 144.409802 282.545368 
L 137.352095 284.278785 
L 130.294387 285.539031 
L 123.23668 286.616613 
L 116.178972 287.89871 
L 109.121265 289.122556 
L 102.063557 290.131981 
L 95.00585 290.981185 
L 87.948142 291.727797 
L 80.890435 292.90411 
L 73.832727 294.974276 
" clip-path="url(#p305a419144)" style="fill: none; stroke: #ff0000; stroke-width: 1.5; stroke-linecap: square"/>
    <defs>
     <path id="m65330f460f" d="M 0 3 
C 0.795609 3 1.55874 2.683901 2.12132 2.12132 
C 2.683901 1.55874 3 0.795609 3 0 
C 3 -0.795609 2.683901 -1.55874 2.12132 -2.12132 
C 1.55874 -2.683901 0.795609 -3 0 -3 
C -0.795609 -3 -1.55874 -2.683901 -2.12132 -2.12132 
C -2.683901 -1.55874 -3 -0.795609 -3 0 
C -3 0.795609 -2.683901 1.55874 -2.12132 2.12132 
C -1.55874 2.683901 -0.795609 3 0 3 
z
" style="stroke: #ff0000"/>
    </defs>
    <g clip-path="url(#p305a419144)">
     <use xlink:href="#m65330f460f" x="398.487273" y="53.568" style="fill: #ff0000; stroke: #ff0000"/>
     <use xlink:href="#m65330f460f" x="391.429565" y="83.224934" style="fill: #ff0000; stroke: #ff0000"/>
     <use xlink:href="#m65330f460f" x="384.371858" y="98.732977" style="fill: #ff0000; stroke: #ff0000"/>
     <use xlink:href="#m65330f460f" x="377.31415" y="111.607093" style="fill: #ff0000; stroke: #ff0000"/>
     <use xlink:href="#m65330f460f" x="370.256443" y="122.525771" style="fill: #ff0000; stroke: #ff0000"/>
     <use xlink:href="#m65330f460f" x="363.198735" y="131.990648" style="fill: #ff0000; stroke: #ff0000"/>
     <use xlink:href="#m65330f460f" x="356.141028" y="141.22464" style="fill: #ff0000; stroke: #ff0000"/>
     <use xlink:href="#m65330f460f" x="349.08332" y="150.115758" style="fill: #ff0000; stroke: #ff0000"/>
     <use xlink:href="#m65330f460f" x="342.025613" y="158.708241" style="fill: #ff0000; stroke: #ff0000"/>
     <use xlink:href="#m65330f460f" x="334.967905" y="167.595257" style="fill: #ff0000; stroke: #ff0000"/>
     <use xlink:href="#m65330f460f" x="327.910198" y="177.644038" style="fill: #ff0000; stroke: #ff0000"/>
     <use xlink:href="#m65330f460f" x="320.85249" y="187.822547" style="fill: #ff0000; stroke: #ff0000"/>
     <use xlink:href="#m65330f460f" x="313.794783" y="200.025343" style="fill: #ff0000; stroke: #ff0000"/>
     <use xlink:href="#m65330f460f" x="306.737075" y="209.40257" style="fill: #ff0000; stroke: #ff0000"/>
     <use xlink:href="#m65330f460f" x="299.679368" y="218.966451" style="fill: #ff0000; stroke: #ff0000"/>
     <use xlink:href="#m65330f460f" x="292.62166" y="227.934227" style="fill: #ff0000; stroke: #ff0000"/>
     <use xlink:href="#m65330f460f" x="285.563953" y="235.06948" style="fill: #ff0000; stroke: #ff0000"/>
     <use xlink:href="#m65330f460f" x="278.506245" y="241.210705" style="fill: #ff0000; stroke: #ff0000"/>
     <use xlink:href="#m65330f460f" x="271.448538" y="246.154142" style="fill: #ff0000; stroke: #ff0000"/>
     <use xlink:href="#m65330f460f" x="264.39083" y="250.519785" style="fill: #ff0000; stroke: #ff0000"/>
     <use xlink:href="#m65330f460f" x="257.333123" y="253.953857" style="fill: #ff0000; stroke: #ff0000"/>
     <use xlink:href="#m65330f460f" x="250.275415" y="256.95313" style="fill: #ff0000; stroke: #ff0000"/>
     <use xlink:href="#m65330f460f" x="243.217708" y="259.795748" style="fill: #ff0000; stroke: #ff0000"/>
     <use xlink:href="#m65330f460f" x="236.16" y="262.550656" style="fill: #ff0000; stroke: #ff0000"/>
     <use xlink:href="#m65330f460f" x="229.102292" y="265.24691" style="fill: #ff0000; stroke: #ff0000"/>
     <use xlink:href="#m65330f460f" x="222.044585" y="268.160412" style="fill: #ff0000; stroke: #ff0000"/>
     <use xlink:href="#m65330f460f" x="214.986877" y="270.194817" style="fill: #ff0000; stroke: #ff0000"/>
     <use xlink:href="#m65330f460f" x="207.92917" y="272.560652" style="fill: #ff0000; stroke: #ff0000"/>
     <use xlink:href="#m65330f460f" x="200.871462" y="274.140646" style="fill: #ff0000; stroke: #ff0000"/>
     <use xlink:href="#m65330f460f" x="193.813755" y="274.380128" style="fill: #ff0000; stroke: #ff0000"/>
     <use xlink:href="#m65330f460f" x="186.756047" y="276.437931" style="fill: #ff0000; stroke: #ff0000"/>
     <use xlink:href="#m65330f460f" x="179.69834" y="278.280776" style="fill: #ff0000; stroke: #ff0000"/>
     <use xlink:href="#m65330f460f" x="172.640632" y="279.997495" style="fill: #ff0000; stroke: #ff0000"/>
     <use xlink:href="#m65330f460f" x="165.582925" y="280.961716" style="fill: #ff0000; stroke: #ff0000"/>
     <use xlink:href="#m65330f460f" x="158.525217" y="281.421335" style="fill: #ff0000; stroke: #ff0000"/>
     <use xlink:href="#m65330f460f" x="151.46751" y="280.974182" style="fill: #ff0000; stroke: #ff0000"/>
     <use xlink:href="#m65330f460f" x="144.409802" y="282.545368" style="fill: #ff0000; stroke: #ff0000"/>
     <use xlink:href="#m65330f460f" x="137.352095" y="284.278785" style="fill: #ff0000; stroke: #ff0000"/>
     <use xlink:href="#m65330f460f" x="130.294387" y="285.539031" style="fill: #ff0000; stroke: #ff0000"/>
     <use xlink:href="#m65330f460f" x="123.23668" y="286.616613" style="fill: #ff0000; stroke: #ff0000"/>
     <use xlink:href="#m65330f460f" x="116.178972" y="287.89871" style="fill: #ff0000; stroke: #ff0000"/>
     <use xlink:href="#m65330f460f" x="109.121265" y="289.122556" style="fill: #ff0000; stroke: #ff0000"/>
     <use xlink:href="#m65330f460f" x="102.063557" y="290.131981" style="fill: #ff0000; stroke: #ff0000"/>
     <use xlink:href="#m65330f460f" x="95.00585" y="290.981185" style="fill: #ff0000; stroke: #ff0000"/>
     <use xlink:href="#m65330f460f" x="87.948142" y="291.727797" style="fill: #ff0000; stroke: #ff0000"/>
     <use xlink:href="#m65330f460f" x="80.890435" y="292.90411" style="fill: #ff0000; stroke: #ff0000"/>
     <use xlink:href="#m65330f460f" x="73.832727" y="294.974276" style="fill: #ff0000; stroke: #ff0000"/>
    </g>
   </g>
   <g id="line2d_16">
    <path d="M 236.16 268.653221 
L 229.102292 270.161554 
L 222.044585 270.66705 
L 214.986877 271.148851 
L 207.92917 271.538869 
L 200.871462 271.499149 
L 193.813755 271.468881 
L 186.756047 271.988888 
L 179.69834 272.060228 
L 172.640632 271.687662 
L 165.582925 271.621084 
L 158.525217 272.059144 
L 151.46751 272.493698 
L 144.409802 273.795929 
L 137.352095 274.43041 
L 130.294387 276.274772 
L 123.23668 278.831701 
L 116.178972 280.8756 
L 109.121265 283.441603 
L 102.063557 285.602318 
L 95.00585 288.472552 
L 87.948142 291.275033 
L 80.890435 293.396043 
L 73.832727 295.488 
" clip-path="url(#p305a419144)" style="fill: none; stroke: #008000; stroke-width: 1.5; stroke-linecap: square"/>
    <defs>
     <path id="m7eb1e168c1" d="M -3 3 
L 3 3 
L 3 -3 
L -3 -3 
z
" style="stroke: #008000; stroke-linejoin: miter"/>
    </defs>
    <g clip-path="url(#p305a419144)">
     <use xlink:href="#m7eb1e168c1" x="236.16" y="268.653221" style="fill: #008000; stroke: #008000; stroke-linejoin: miter"/>
     <use xlink:href="#m7eb1e168c1" x="229.102292" y="270.161554" style="fill: #008000; stroke: #008000; stroke-linejoin: miter"/>
     <use xlink:href="#m7eb1e168c1" x="222.044585" y="270.66705" style="fill: #008000; stroke: #008000; stroke-linejoin: miter"/>
     <use xlink:href="#m7eb1e168c1" x="214.986877" y="271.148851" style="fill: #008000; stroke: #008000; stroke-linejoin: miter"/>
     <use xlink:href="#m7eb1e168c1" x="207.92917" y="271.538869" style="fill: #008000; stroke: #008000; stroke-linejoin: miter"/>
     <use xlink:href="#m7eb1e168c1" x="200.871462" y="271.499149" style="fill: #008000; stroke: #008000; stroke-linejoin: miter"/>
     <use xlink:href="#m7eb1e168c1" x="193.813755" y="271.468881" style="fill: #008000; stroke: #008000; stroke-linejoin: miter"/>
     <use xlink:href="#m7eb1e168c1" x="186.756047" y="271.988888" style="fill: #008000; stroke: #008000; stroke-linejoin: miter"/>
     <use xlink:href="#m7eb1e168c1" x="179.69834" y="272.060228" style="fill: #008000; stroke: #008000; stroke-linejoin: miter"/>
     <use xlink:href="#m7eb1e168c1" x="172.640632" y="271.687662" style="fill: #008000; stroke: #008000; stroke-linejoin: miter"/>
     <use xlink:href="#m7eb1e168c1" x="165.582925" y="271.621084" style="fill: #008000; stroke: #008000; stroke-linejoin: miter"/>
     <use xlink:href="#m7eb1e168c1" x="158.525217" y="272.059144" style="fill: #008000; stroke: #008000; stroke-linejoin: miter"/>
     <use xlink:href="#m7eb1e168c1" x="151.46751" y="272.493698" style="fill: #008000; stroke: #008000; stroke-linejoin: miter"/>
     <use xlink:href="#m7eb1e168c1" x="144.409802" y="273.795929" style="fill: #008000; stroke: #008000; stroke-linejoin: miter"/>
     <use xlink:href="#m7eb1e168c1" x="137.352095" y="274.43041" style="fill: #008000; stroke: #008000; stroke-linejoin: miter"/>
     <use xlink:href="#m7eb1e168c1" x="130.294387" y="276.274772" style="fill: #008000; stroke: #008000; stroke-linejoin: miter"/>
     <use xlink:href="#m7eb1e168c1" x="123.23668" y="278.831701" style="fill: #008000; stroke: #008000; stroke-linejoin: miter"/>
     <use xlink:href="#m7eb1e168c1" x="116.178972" y="280.8756" style="fill: #008000; stroke: #008000; stroke-linejoin: miter"/>
     <use xlink:href="#m7eb1e168c1" x="109.121265" y="283.441603" style="fill: #008000; stroke: #008000; stroke-linejoin: miter"/>
     <use xlink:href="#m7eb1e168c1" x="102.063557" y="285.602318" style="fill: #008000; stroke: #008000; stroke-linejoin: miter"/>
     <use xlink:href="#m7eb1e168c1" x="95.00585" y="288.472552" style="fill: #008000; stroke: #008000; stroke-linejoin: miter"/>
     <use xlink:href="#m7eb1e168c1" x="87.948142" y="291.275033" style="fill: #008000; stroke: #008000; stroke-linejoin: miter"/>
     <use xlink:href="#m7eb1e168c1" x="80.890435" y="293.396043" style="fill: #008000; stroke: #008000; stroke-linejoin: miter"/>
     <use xlink:href="#m7eb1e168c1" x="73.832727" y="295.488" style="fill: #008000; stroke: #008000; stroke-linejoin: miter"/>
    </g>
   </g>
   <g id="patch_3">
    <path d="M 57.6 307.584 
L 57.6 41.472 
" style="fill: none; stroke: #000000; stroke-width: 0.8; stroke-linejoin: miter; stroke-linecap: square"/>
   </g>
   <g id="patch_4">
    <path d="M 414.72 307.584 
L 414.72 41.472 
" style="fill: none; stroke: #000000; stroke-width: 0.8; stroke-linejoin: miter; stroke-linecap: square"/>
   </g>
   <g id="patch_5">
    <path d="M 57.6 307.584 
L 414.72 307.584 
" style="fill: none; stroke: #000000; stroke-width: 0.8; stroke-linejoin: miter; stroke-linecap: square"/>
   </g>
   <g id="patch_6">
    <path d="M 57.6 41.472 
L 414.72 41.472 
" style="fill: none; stroke: #000000; stroke-width: 0.8; stroke-linejoin: miter; stroke-linecap: square"/>
   </g>
   <g id="text_16">
    <!-- Logit lens -->
    <g transform="translate(207.22875 35.472) scale(0.12 -0.12)">
     <defs>
      <path id="DejaVuSans-4c" d="M 628 4666 
L 1259 4666 
L 1259 531 
L 3531 531 
L 3531 0 
L 628 0 
L 628 4666 
z
" transform="scale(0.015625)"/>
      <path id="DejaVuSans-67" d="M 2906 1791 
Q 2906 2416 2648 2759 
Q 2391 3103 1925 3103 
Q 1463 3103 1205 2759 
Q 947 2416 947 1791 
Q 947 1169 1205 825 
Q 1463 481 1925 481 
Q 2391 481 2648 825 
Q 2906 1169 2906 1791 
z
M 3481 434 
Q 3481 -459 3084 -895 
Q 2688 -1331 1869 -1331 
Q 1566 -1331 1297 -1286 
Q 1028 -1241 775 -1147 
L 775 -588 
Q 1028 -725 1275 -790 
Q 1522 -856 1778 -856 
Q 2344 -856 2625 -561 
Q 2906 -266 2906 331 
L 2906 616 
Q 2728 306 2450 153 
Q 2172 0 1784 0 
Q 1141 0 747 490 
Q 353 981 353 1791 
Q 353 2603 747 3093 
Q 1141 3584 1784 3584 
Q 2172 3584 2450 3431 
Q 2728 3278 2906 2969 
L 2906 3500 
L 3481 3500 
L 3481 434 
z
" transform="scale(0.015625)"/>
     </defs>
     <use xlink:href="#DejaVuSans-4c"/>
     <use xlink:href="#DejaVuSans-6f" x="53.962891"/>
     <use xlink:href="#DejaVuSans-67" x="115.144531"/>
     <use xlink:href="#DejaVuSans-69" x="178.621094"/>
     <use xlink:href="#DejaVuSans-74" x="206.404297"/>
     <use xlink:href="#DejaVuSans-20" x="245.613281"/>
     <use xlink:href="#DejaVuSans-6c" x="277.400391"/>
     <use xlink:href="#DejaVuSans-65" x="305.183594"/>
     <use xlink:href="#DejaVuSans-6e" x="366.707031"/>
     <use xlink:href="#DejaVuSans-73" x="430.085938"/>
    </g>
   </g>
   <g id="legend_1">
    <g id="patch_7">
     <path d="M 67.4 114.320125 
L 163.962812 114.320125 
Q 166.762812 114.320125 166.762812 111.520125 
L 166.762812 51.272 
Q 166.762812 48.472 163.962812 48.472 
L 67.4 48.472 
Q 64.6 48.472 64.6 51.272 
L 64.6 111.520125 
Q 64.6 114.320125 67.4 114.320125 
z
" style="fill: #ffffff; opacity: 0.8; stroke: #cccccc; stroke-linejoin: miter"/>
    </g>
    <g id="line2d_17">
     <path d="M 70.2 59.809812 
L 84.2 59.809812 
L 98.2 59.809812 
" style="fill: none; stroke: #0000ff; stroke-width: 1.5; stroke-linecap: square"/>
     <g>
      <use xlink:href="#m5c2d4042ca" x="84.2" y="59.809812" style="fill: #0000ff; stroke: #0000ff; stroke-linejoin: miter"/>
     </g>
    </g>
    <g id="text_17">
     <!-- Pythia -->
     <g transform="translate(109.4 64.709812) scale(0.14 -0.14)">
      <defs>
       <path id="DejaVuSans-50" d="M 1259 4147 
L 1259 2394 
L 2053 2394 
Q 2494 2394 2734 2622 
Q 2975 2850 2975 3272 
Q 2975 3691 2734 3919 
Q 2494 4147 2053 4147 
L 1259 4147 
z
M 628 4666 
L 2053 4666 
Q 2838 4666 3239 4311 
Q 3641 3956 3641 3272 
Q 3641 2581 3239 2228 
Q 2838 1875 2053 1875 
L 1259 1875 
L 1259 0 
L 628 0 
L 628 4666 
z
" transform="scale(0.015625)"/>
       <path id="DejaVuSans-68" d="M 3513 2113 
L 3513 0 
L 2938 0 
L 2938 2094 
Q 2938 2591 2744 2837 
Q 2550 3084 2163 3084 
Q 1697 3084 1428 2787 
Q 1159 2491 1159 1978 
L 1159 0 
L 581 0 
L 581 4863 
L 1159 4863 
L 1159 2956 
Q 1366 3272 1645 3428 
Q 1925 3584 2291 3584 
Q 2894 3584 3203 3211 
Q 3513 2838 3513 2113 
z
" transform="scale(0.015625)"/>
      </defs>
      <use xlink:href="#DejaVuSans-50"/>
      <use xlink:href="#DejaVuSans-79" x="60.302734"/>
      <use xlink:href="#DejaVuSans-74" x="119.482422"/>
      <use xlink:href="#DejaVuSans-68" x="158.691406"/>
      <use xlink:href="#DejaVuSans-69" x="222.070312"/>
      <use xlink:href="#DejaVuSans-61" x="249.853516"/>
     </g>
    </g>
    <g id="line2d_18">
     <path d="M 70.2 80.359187 
L 84.2 80.359187 
L 98.2 80.359187 
" style="fill: none; stroke: #ff0000; stroke-width: 1.5; stroke-linecap: square"/>
     <g>
      <use xlink:href="#m65330f460f" x="84.2" y="80.359187" style="fill: #ff0000; stroke: #ff0000"/>
     </g>
    </g>
    <g id="text_18">
     <!-- Mamba -->
     <g transform="translate(109.4 85.259187) scale(0.14 -0.14)">
      <defs>
       <path id="DejaVuSans-4d" d="M 628 4666 
L 1569 4666 
L 2759 1491 
L 3956 4666 
L 4897 4666 
L 4897 0 
L 4281 0 
L 4281 4097 
L 3078 897 
L 2444 897 
L 1241 4097 
L 1241 0 
L 628 0 
L 628 4666 
z
" transform="scale(0.015625)"/>
       <path id="DejaVuSans-6d" d="M 3328 2828 
Q 3544 3216 3844 3400 
Q 4144 3584 4550 3584 
Q 5097 3584 5394 3201 
Q 5691 2819 5691 2113 
L 5691 0 
L 5113 0 
L 5113 2094 
Q 5113 2597 4934 2840 
Q 4756 3084 4391 3084 
Q 3944 3084 3684 2787 
Q 3425 2491 3425 1978 
L 3425 0 
L 2847 0 
L 2847 2094 
Q 2847 2600 2669 2842 
Q 2491 3084 2119 3084 
Q 1678 3084 1418 2786 
Q 1159 2488 1159 1978 
L 1159 0 
L 581 0 
L 581 3500 
L 1159 3500 
L 1159 2956 
Q 1356 3278 1631 3431 
Q 1906 3584 2284 3584 
Q 2666 3584 2933 3390 
Q 3200 3197 3328 2828 
z
" transform="scale(0.015625)"/>
      </defs>
      <use xlink:href="#DejaVuSans-4d"/>
      <use xlink:href="#DejaVuSans-61" x="86.279297"/>
      <use xlink:href="#DejaVuSans-6d" x="147.558594"/>
      <use xlink:href="#DejaVuSans-62" x="244.970703"/>
      <use xlink:href="#DejaVuSans-61" x="308.447266"/>
     </g>
    </g>
    <g id="line2d_19">
     <path d="M 70.2 100.908562 
L 84.2 100.908562 
L 98.2 100.908562 
" style="fill: none; stroke: #008000; stroke-width: 1.5; stroke-linecap: square"/>
     <g>
      <use xlink:href="#m7eb1e168c1" x="84.2" y="100.908562" style="fill: #008000; stroke: #008000; stroke-linejoin: miter"/>
     </g>
    </g>
    <g id="text_19">
     <!-- RWKV -->
     <g transform="translate(109.4 105.808562) scale(0.14 -0.14)">
      <defs>
       <path id="DejaVuSans-52" d="M 2841 2188 
Q 3044 2119 3236 1894 
Q 3428 1669 3622 1275 
L 4263 0 
L 3584 0 
L 2988 1197 
Q 2756 1666 2539 1819 
Q 2322 1972 1947 1972 
L 1259 1972 
L 1259 0 
L 628 0 
L 628 4666 
L 2053 4666 
Q 2853 4666 3247 4331 
Q 3641 3997 3641 3322 
Q 3641 2881 3436 2590 
Q 3231 2300 2841 2188 
z
M 1259 4147 
L 1259 2491 
L 2053 2491 
Q 2509 2491 2742 2702 
Q 2975 2913 2975 3322 
Q 2975 3731 2742 3939 
Q 2509 4147 2053 4147 
L 1259 4147 
z
" transform="scale(0.015625)"/>
       <path id="DejaVuSans-57" d="M 213 4666 
L 850 4666 
L 1831 722 
L 2809 4666 
L 3519 4666 
L 4500 722 
L 5478 4666 
L 6119 4666 
L 4947 0 
L 4153 0 
L 3169 4050 
L 2175 0 
L 1381 0 
L 213 4666 
z
" transform="scale(0.015625)"/>
       <path id="DejaVuSans-4b" d="M 628 4666 
L 1259 4666 
L 1259 2694 
L 3353 4666 
L 4166 4666 
L 1850 2491 
L 4331 0 
L 3500 0 
L 1259 2247 
L 1259 0 
L 628 0 
L 628 4666 
z
" transform="scale(0.015625)"/>
       <path id="DejaVuSans-56" d="M 1831 0 
L 50 4666 
L 709 4666 
L 2188 738 
L 3669 4666 
L 4325 4666 
L 2547 0 
L 1831 0 
z
" transform="scale(0.015625)"/>
      </defs>
      <use xlink:href="#DejaVuSans-52"/>
      <use xlink:href="#DejaVuSans-57" x="65.482422"/>
      <use xlink:href="#DejaVuSans-4b" x="164.359375"/>
      <use xlink:href="#DejaVuSans-56" x="229.935547"/>
     </g>
    </g>
   </g>
  </g>
 </g>
 <defs>
  <clipPath id="p305a419144">
   <rect x="57.6" y="41.472" width="357.12" height="266.112"/>
  </clipPath>
 </defs>
</svg>
