<?xml version="1.0" encoding="utf-8" standalone="no"?>
<!DOCTYPE svg PUBLIC "-//W3C//DTD SVG 1.1//EN"
  "http://www.w3.org/Graphics/SVG/1.1/DTD/svg11.dtd">
<svg xmlns:xlink="http://www.w3.org/1999/xlink" width="460.8pt" height="345.6pt" viewBox="0 0 460.8 345.6" xmlns="http://www.w3.org/2000/svg" version="1.1">
 <metadata>
  <rdf:RDF xmlns:dc="http://purl.org/dc/elements/1.1/" xmlns:cc="http://creativecommons.org/ns#" xmlns:rdf="http://www.w3.org/1999/02/22-rdf-syntax-ns#">
   <cc:Work>
    <dc:type rdf:resource="http://purl.org/dc/dcmitype/StillImage"/>
    <dc:date>2024-03-25T21:10:32.255982</dc:date>
    <dc:format>image/svg+xml</dc:format>
    <dc:creator>
     <cc:Agent>
      <dc:title>Matplotlib v3.8.3, https://matplotlib.org/</dc:title>
     </cc:Agent>
    </dc:creator>
   </cc:Work>
  </rdf:RDF>
 </metadata>
 <defs>
  <style type="text/css">*{stroke-linejoin: round; stroke-linecap: butt}</style>
 </defs>
 <g id="figure_1">
  <g id="patch_1">
   <path d="M 0 345.6 
L 460.8 345.6 
L 460.8 0 
L 0 0 
z
" style="fill: #ffffff"/>
  </g>
  <g id="axes_1">
   <g id="patch_2">
    <path d="M 57.6 307.584 
L 414.72 307.584 
L 414.72 41.472 
L 57.6 41.472 
z
" style="fill: #ffffff"/>
   </g>
   <g id="matplotlib.axis_1">
    <g id="xtick_1">
     <g id="line2d_1">
      <defs>
       <path id="m0c40ac0568" d="M 0 0 
L 0 3.5 
" style="stroke: #000000; stroke-width: 0.8"/>
      </defs>
      <g>
       <use xlink:href="#m0c40ac0568" x="73.832727" y="307.584" style="stroke: #000000; stroke-width: 0.8"/>
      </g>
     </g>
     <g id="text_1">
      <!-- 0.0 -->
      <g transform="translate(62.70054 325.221812) scale(0.14 -0.14)">
       <defs>
        <path id="DejaVuSans-30" d="M 2034 4250 
Q 1547 4250 1301 3770 
Q 1056 3291 1056 2328 
Q 1056 1369 1301 889 
Q 1547 409 2034 409 
Q 2525 409 2770 889 
Q 3016 1369 3016 2328 
Q 3016 3291 2770 3770 
Q 2525 4250 2034 4250 
z
M 2034 4750 
Q 2819 4750 3233 4129 
Q 3647 3509 3647 2328 
Q 3647 1150 3233 529 
Q 2819 -91 2034 -91 
Q 1250 -91 836 529 
Q 422 1150 422 2328 
Q 422 3509 836 4129 
Q 1250 4750 2034 4750 
z
" transform="scale(0.015625)"/>
        <path id="DejaVuSans-2e" d="M 684 794 
L 1344 794 
L 1344 0 
L 684 0 
L 684 794 
z
" transform="scale(0.015625)"/>
       </defs>
       <use xlink:href="#DejaVuSans-30"/>
       <use xlink:href="#DejaVuSans-2e" x="63.623047"/>
       <use xlink:href="#DejaVuSans-30" x="95.410156"/>
      </g>
     </g>
    </g>
    <g id="xtick_2">
     <g id="line2d_2">
      <g>
       <use xlink:href="#m0c40ac0568" x="138.763636" y="307.584" style="stroke: #000000; stroke-width: 0.8"/>
      </g>
     </g>
     <g id="text_2">
      <!-- 0.2 -->
      <g transform="translate(127.631449 325.221812) scale(0.14 -0.14)">
       <defs>
        <path id="DejaVuSans-32" d="M 1228 531 
L 3431 531 
L 3431 0 
L 469 0 
L 469 531 
Q 828 903 1448 1529 
Q 2069 2156 2228 2338 
Q 2531 2678 2651 2914 
Q 2772 3150 2772 3378 
Q 2772 3750 2511 3984 
Q 2250 4219 1831 4219 
Q 1534 4219 1204 4116 
Q 875 4013 500 3803 
L 500 4441 
Q 881 4594 1212 4672 
Q 1544 4750 1819 4750 
Q 2544 4750 2975 4387 
Q 3406 4025 3406 3419 
Q 3406 3131 3298 2873 
Q 3191 2616 2906 2266 
Q 2828 2175 2409 1742 
Q 1991 1309 1228 531 
z
" transform="scale(0.015625)"/>
       </defs>
       <use xlink:href="#DejaVuSans-30"/>
       <use xlink:href="#DejaVuSans-2e" x="63.623047"/>
       <use xlink:href="#DejaVuSans-32" x="95.410156"/>
      </g>
     </g>
    </g>
    <g id="xtick_3">
     <g id="line2d_3">
      <g>
       <use xlink:href="#m0c40ac0568" x="203.694545" y="307.584" style="stroke: #000000; stroke-width: 0.8"/>
      </g>
     </g>
     <g id="text_3">
      <!-- 0.4 -->
      <g transform="translate(192.562358 325.221812) scale(0.14 -0.14)">
       <defs>
        <path id="DejaVuSans-34" d="M 2419 4116 
L 825 1625 
L 2419 1625 
L 2419 4116 
z
M 2253 4666 
L 3047 4666 
L 3047 1625 
L 3713 1625 
L 3713 1100 
L 3047 1100 
L 3047 0 
L 2419 0 
L 2419 1100 
L 313 1100 
L 313 1709 
L 2253 4666 
z
" transform="scale(0.015625)"/>
       </defs>
       <use xlink:href="#DejaVuSans-30"/>
       <use xlink:href="#DejaVuSans-2e" x="63.623047"/>
       <use xlink:href="#DejaVuSans-34" x="95.410156"/>
      </g>
     </g>
    </g>
    <g id="xtick_4">
     <g id="line2d_4">
      <g>
       <use xlink:href="#m0c40ac0568" x="268.625455" y="307.584" style="stroke: #000000; stroke-width: 0.8"/>
      </g>
     </g>
     <g id="text_4">
      <!-- 0.6 -->
      <g transform="translate(257.493267 325.221812) scale(0.14 -0.14)">
       <defs>
        <path id="DejaVuSans-36" d="M 2113 2584 
Q 1688 2584 1439 2293 
Q 1191 2003 1191 1497 
Q 1191 994 1439 701 
Q 1688 409 2113 409 
Q 2538 409 2786 701 
Q 3034 994 3034 1497 
Q 3034 2003 2786 2293 
Q 2538 2584 2113 2584 
z
M 3366 4563 
L 3366 3988 
Q 3128 4100 2886 4159 
Q 2644 4219 2406 4219 
Q 1781 4219 1451 3797 
Q 1122 3375 1075 2522 
Q 1259 2794 1537 2939 
Q 1816 3084 2150 3084 
Q 2853 3084 3261 2657 
Q 3669 2231 3669 1497 
Q 3669 778 3244 343 
Q 2819 -91 2113 -91 
Q 1303 -91 875 529 
Q 447 1150 447 2328 
Q 447 3434 972 4092 
Q 1497 4750 2381 4750 
Q 2619 4750 2861 4703 
Q 3103 4656 3366 4563 
z
" transform="scale(0.015625)"/>
       </defs>
       <use xlink:href="#DejaVuSans-30"/>
       <use xlink:href="#DejaVuSans-2e" x="63.623047"/>
       <use xlink:href="#DejaVuSans-36" x="95.410156"/>
      </g>
     </g>
    </g>
    <g id="xtick_5">
     <g id="line2d_5">
      <g>
       <use xlink:href="#m0c40ac0568" x="333.556364" y="307.584" style="stroke: #000000; stroke-width: 0.8"/>
      </g>
     </g>
     <g id="text_5">
      <!-- 0.8 -->
      <g transform="translate(322.424176 325.221812) scale(0.14 -0.14)">
       <defs>
        <path id="DejaVuSans-38" d="M 2034 2216 
Q 1584 2216 1326 1975 
Q 1069 1734 1069 1313 
Q 1069 891 1326 650 
Q 1584 409 2034 409 
Q 2484 409 2743 651 
Q 3003 894 3003 1313 
Q 3003 1734 2745 1975 
Q 2488 2216 2034 2216 
z
M 1403 2484 
Q 997 2584 770 2862 
Q 544 3141 544 3541 
Q 544 4100 942 4425 
Q 1341 4750 2034 4750 
Q 2731 4750 3128 4425 
Q 3525 4100 3525 3541 
Q 3525 3141 3298 2862 
Q 3072 2584 2669 2484 
Q 3125 2378 3379 2068 
Q 3634 1759 3634 1313 
Q 3634 634 3220 271 
Q 2806 -91 2034 -91 
Q 1263 -91 848 271 
Q 434 634 434 1313 
Q 434 1759 690 2068 
Q 947 2378 1403 2484 
z
M 1172 3481 
Q 1172 3119 1398 2916 
Q 1625 2713 2034 2713 
Q 2441 2713 2670 2916 
Q 2900 3119 2900 3481 
Q 2900 3844 2670 4047 
Q 2441 4250 2034 4250 
Q 1625 4250 1398 4047 
Q 1172 3844 1172 3481 
z
" transform="scale(0.015625)"/>
       </defs>
       <use xlink:href="#DejaVuSans-30"/>
       <use xlink:href="#DejaVuSans-2e" x="63.623047"/>
       <use xlink:href="#DejaVuSans-38" x="95.410156"/>
      </g>
     </g>
    </g>
    <g id="xtick_6">
     <g id="line2d_6">
      <g>
       <use xlink:href="#m0c40ac0568" x="398.487273" y="307.584" style="stroke: #000000; stroke-width: 0.8"/>
      </g>
     </g>
     <g id="text_6">
      <!-- 1.0 -->
      <g transform="translate(387.355085 325.221812) scale(0.14 -0.14)">
       <defs>
        <path id="DejaVuSans-31" d="M 794 531 
L 1825 531 
L 1825 4091 
L 703 3866 
L 703 4441 
L 1819 4666 
L 2450 4666 
L 2450 531 
L 3481 531 
L 3481 0 
L 794 0 
L 794 531 
z
" transform="scale(0.015625)"/>
       </defs>
       <use xlink:href="#DejaVuSans-31"/>
       <use xlink:href="#DejaVuSans-2e" x="63.623047"/>
       <use xlink:href="#DejaVuSans-30" x="95.410156"/>
      </g>
     </g>
    </g>
    <g id="text_7">
     <!-- Depth -->
     <g transform="translate(214.838437 342.771187) scale(0.14 -0.14)">
      <defs>
       <path id="DejaVuSans-44" d="M 1259 4147 
L 1259 519 
L 2022 519 
Q 2988 519 3436 956 
Q 3884 1394 3884 2338 
Q 3884 3275 3436 3711 
Q 2988 4147 2022 4147 
L 1259 4147 
z
M 628 4666 
L 1925 4666 
Q 3281 4666 3915 4102 
Q 4550 3538 4550 2338 
Q 4550 1131 3912 565 
Q 3275 0 1925 0 
L 628 0 
L 628 4666 
z
" transform="scale(0.015625)"/>
       <path id="DejaVuSans-65" d="M 3597 1894 
L 3597 1613 
L 953 1613 
Q 991 1019 1311 708 
Q 1631 397 2203 397 
Q 2534 397 2845 478 
Q 3156 559 3463 722 
L 3463 178 
Q 3153 47 2828 -22 
Q 2503 -91 2169 -91 
Q 1331 -91 842 396 
Q 353 884 353 1716 
Q 353 2575 817 3079 
Q 1281 3584 2069 3584 
Q 2775 3584 3186 3129 
Q 3597 2675 3597 1894 
z
M 3022 2063 
Q 3016 2534 2758 2815 
Q 2500 3097 2075 3097 
Q 1594 3097 1305 2825 
Q 1016 2553 972 2059 
L 3022 2063 
z
" transform="scale(0.015625)"/>
       <path id="DejaVuSans-70" d="M 1159 525 
L 1159 -1331 
L 581 -1331 
L 581 3500 
L 1159 3500 
L 1159 2969 
Q 1341 3281 1617 3432 
Q 1894 3584 2278 3584 
Q 2916 3584 3314 3078 
Q 3713 2572 3713 1747 
Q 3713 922 3314 415 
Q 2916 -91 2278 -91 
Q 1894 -91 1617 61 
Q 1341 213 1159 525 
z
M 3116 1747 
Q 3116 2381 2855 2742 
Q 2594 3103 2138 3103 
Q 1681 3103 1420 2742 
Q 1159 2381 1159 1747 
Q 1159 1113 1420 752 
Q 1681 391 2138 391 
Q 2594 391 2855 752 
Q 3116 1113 3116 1747 
z
" transform="scale(0.015625)"/>
       <path id="DejaVuSans-74" d="M 1172 4494 
L 1172 3500 
L 2356 3500 
L 2356 3053 
L 1172 3053 
L 1172 1153 
Q 1172 725 1289 603 
Q 1406 481 1766 481 
L 2356 481 
L 2356 0 
L 1766 0 
Q 1100 0 847 248 
Q 594 497 594 1153 
L 594 3053 
L 172 3053 
L 172 3500 
L 594 3500 
L 594 4494 
L 1172 4494 
z
" transform="scale(0.015625)"/>
       <path id="DejaVuSans-68" d="M 3513 2113 
L 3513 0 
L 2938 0 
L 2938 2094 
Q 2938 2591 2744 2837 
Q 2550 3084 2163 3084 
Q 1697 3084 1428 2787 
Q 1159 2491 1159 1978 
L 1159 0 
L 581 0 
L 581 4863 
L 1159 4863 
L 1159 2956 
Q 1366 3272 1645 3428 
Q 1925 3584 2291 3584 
Q 2894 3584 3203 3211 
Q 3513 2838 3513 2113 
z
" transform="scale(0.015625)"/>
      </defs>
      <use xlink:href="#DejaVuSans-44"/>
      <use xlink:href="#DejaVuSans-65" x="77.001953"/>
      <use xlink:href="#DejaVuSans-70" x="138.525391"/>
      <use xlink:href="#DejaVuSans-74" x="202.001953"/>
      <use xlink:href="#DejaVuSans-68" x="241.210938"/>
     </g>
    </g>
   </g>
   <g id="matplotlib.axis_2">
    <g id="ytick_1">
     <g id="line2d_7">
      <defs>
       <path id="m623ae7dce8" d="M 0 0 
L -3.5 0 
" style="stroke: #000000; stroke-width: 0.8"/>
      </defs>
      <g>
       <use xlink:href="#m623ae7dce8" x="57.6" y="283.58182" style="stroke: #000000; stroke-width: 0.8"/>
      </g>
     </g>
     <g id="text_8">
      <!-- 1 -->
      <g transform="translate(41.6925 288.900726) scale(0.14 -0.14)">
       <use xlink:href="#DejaVuSans-31"/>
      </g>
     </g>
    </g>
    <g id="ytick_2">
     <g id="line2d_8">
      <g>
       <use xlink:href="#m623ae7dce8" x="57.6" y="236.640422" style="stroke: #000000; stroke-width: 0.8"/>
      </g>
     </g>
     <g id="text_9">
      <!-- 2 -->
      <g transform="translate(41.6925 241.959328) scale(0.14 -0.14)">
       <use xlink:href="#DejaVuSans-32"/>
      </g>
     </g>
    </g>
    <g id="ytick_3">
     <g id="line2d_9">
      <g>
       <use xlink:href="#m623ae7dce8" x="57.6" y="189.699023" style="stroke: #000000; stroke-width: 0.8"/>
      </g>
     </g>
     <g id="text_10">
      <!-- 3 -->
      <g transform="translate(41.6925 195.017929) scale(0.14 -0.14)">
       <defs>
        <path id="DejaVuSans-33" d="M 2597 2516 
Q 3050 2419 3304 2112 
Q 3559 1806 3559 1356 
Q 3559 666 3084 287 
Q 2609 -91 1734 -91 
Q 1441 -91 1130 -33 
Q 819 25 488 141 
L 488 750 
Q 750 597 1062 519 
Q 1375 441 1716 441 
Q 2309 441 2620 675 
Q 2931 909 2931 1356 
Q 2931 1769 2642 2001 
Q 2353 2234 1838 2234 
L 1294 2234 
L 1294 2753 
L 1863 2753 
Q 2328 2753 2575 2939 
Q 2822 3125 2822 3475 
Q 2822 3834 2567 4026 
Q 2313 4219 1838 4219 
Q 1578 4219 1281 4162 
Q 984 4106 628 3988 
L 628 4550 
Q 988 4650 1302 4700 
Q 1616 4750 1894 4750 
Q 2613 4750 3031 4423 
Q 3450 4097 3450 3541 
Q 3450 3153 3228 2886 
Q 3006 2619 2597 2516 
z
" transform="scale(0.015625)"/>
       </defs>
       <use xlink:href="#DejaVuSans-33"/>
      </g>
     </g>
    </g>
    <g id="ytick_4">
     <g id="line2d_10">
      <g>
       <use xlink:href="#m623ae7dce8" x="57.6" y="142.757624" style="stroke: #000000; stroke-width: 0.8"/>
      </g>
     </g>
     <g id="text_11">
      <!-- 4 -->
      <g transform="translate(41.6925 148.076531) scale(0.14 -0.14)">
       <use xlink:href="#DejaVuSans-34"/>
      </g>
     </g>
    </g>
    <g id="ytick_5">
     <g id="line2d_11">
      <g>
       <use xlink:href="#m623ae7dce8" x="57.6" y="95.816226" style="stroke: #000000; stroke-width: 0.8"/>
      </g>
     </g>
     <g id="text_12">
      <!-- 5 -->
      <g transform="translate(41.6925 101.135132) scale(0.14 -0.14)">
       <defs>
        <path id="DejaVuSans-35" d="M 691 4666 
L 3169 4666 
L 3169 4134 
L 1269 4134 
L 1269 2991 
Q 1406 3038 1543 3061 
Q 1681 3084 1819 3084 
Q 2600 3084 3056 2656 
Q 3513 2228 3513 1497 
Q 3513 744 3044 326 
Q 2575 -91 1722 -91 
Q 1428 -91 1123 -41 
Q 819 9 494 109 
L 494 744 
Q 775 591 1075 516 
Q 1375 441 1709 441 
Q 2250 441 2565 725 
Q 2881 1009 2881 1497 
Q 2881 1984 2565 2268 
Q 2250 2553 1709 2553 
Q 1456 2553 1204 2497 
Q 953 2441 691 2322 
L 691 4666 
z
" transform="scale(0.015625)"/>
       </defs>
       <use xlink:href="#DejaVuSans-35"/>
      </g>
     </g>
    </g>
    <g id="ytick_6">
     <g id="line2d_12">
      <g>
       <use xlink:href="#m623ae7dce8" x="57.6" y="48.874827" style="stroke: #000000; stroke-width: 0.8"/>
      </g>
     </g>
     <g id="text_13">
      <!-- 6 -->
      <g transform="translate(41.6925 54.193733) scale(0.14 -0.14)">
       <use xlink:href="#DejaVuSans-36"/>
      </g>
     </g>
    </g>
    <g id="text_14">
     <!-- bits per byte -->
     <g transform="translate(34.780938 219.023937) rotate(-90) scale(0.14 -0.14)">
      <defs>
       <path id="DejaVuSans-62" d="M 3116 1747 
Q 3116 2381 2855 2742 
Q 2594 3103 2138 3103 
Q 1681 3103 1420 2742 
Q 1159 2381 1159 1747 
Q 1159 1113 1420 752 
Q 1681 391 2138 391 
Q 2594 391 2855 752 
Q 3116 1113 3116 1747 
z
M 1159 2969 
Q 1341 3281 1617 3432 
Q 1894 3584 2278 3584 
Q 2916 3584 3314 3078 
Q 3713 2572 3713 1747 
Q 3713 922 3314 415 
Q 2916 -91 2278 -91 
Q 1894 -91 1617 61 
Q 1341 213 1159 525 
L 1159 0 
L 581 0 
L 581 4863 
L 1159 4863 
L 1159 2969 
z
" transform="scale(0.015625)"/>
       <path id="DejaVuSans-69" d="M 603 3500 
L 1178 3500 
L 1178 0 
L 603 0 
L 603 3500 
z
M 603 4863 
L 1178 4863 
L 1178 4134 
L 603 4134 
L 603 4863 
z
" transform="scale(0.015625)"/>
       <path id="DejaVuSans-73" d="M 2834 3397 
L 2834 2853 
Q 2591 2978 2328 3040 
Q 2066 3103 1784 3103 
Q 1356 3103 1142 2972 
Q 928 2841 928 2578 
Q 928 2378 1081 2264 
Q 1234 2150 1697 2047 
L 1894 2003 
Q 2506 1872 2764 1633 
Q 3022 1394 3022 966 
Q 3022 478 2636 193 
Q 2250 -91 1575 -91 
Q 1294 -91 989 -36 
Q 684 19 347 128 
L 347 722 
Q 666 556 975 473 
Q 1284 391 1588 391 
Q 1994 391 2212 530 
Q 2431 669 2431 922 
Q 2431 1156 2273 1281 
Q 2116 1406 1581 1522 
L 1381 1569 
Q 847 1681 609 1914 
Q 372 2147 372 2553 
Q 372 3047 722 3315 
Q 1072 3584 1716 3584 
Q 2034 3584 2315 3537 
Q 2597 3491 2834 3397 
z
" transform="scale(0.015625)"/>
       <path id="DejaVuSans-20" transform="scale(0.015625)"/>
       <path id="DejaVuSans-72" d="M 2631 2963 
Q 2534 3019 2420 3045 
Q 2306 3072 2169 3072 
Q 1681 3072 1420 2755 
Q 1159 2438 1159 1844 
L 1159 0 
L 581 0 
L 581 3500 
L 1159 3500 
L 1159 2956 
Q 1341 3275 1631 3429 
Q 1922 3584 2338 3584 
Q 2397 3584 2469 3576 
Q 2541 3569 2628 3553 
L 2631 2963 
z
" transform="scale(0.015625)"/>
       <path id="DejaVuSans-79" d="M 2059 -325 
Q 1816 -950 1584 -1140 
Q 1353 -1331 966 -1331 
L 506 -1331 
L 506 -850 
L 844 -850 
Q 1081 -850 1212 -737 
Q 1344 -625 1503 -206 
L 1606 56 
L 191 3500 
L 800 3500 
L 1894 763 
L 2988 3500 
L 3597 3500 
L 2059 -325 
z
" transform="scale(0.015625)"/>
      </defs>
      <use xlink:href="#DejaVuSans-62"/>
      <use xlink:href="#DejaVuSans-69" x="63.476562"/>
      <use xlink:href="#DejaVuSans-74" x="91.259766"/>
      <use xlink:href="#DejaVuSans-73" x="130.46875"/>
      <use xlink:href="#DejaVuSans-20" x="182.568359"/>
      <use xlink:href="#DejaVuSans-70" x="214.355469"/>
      <use xlink:href="#DejaVuSans-65" x="277.832031"/>
      <use xlink:href="#DejaVuSans-72" x="339.355469"/>
      <use xlink:href="#DejaVuSans-20" x="380.46875"/>
      <use xlink:href="#DejaVuSans-62" x="412.255859"/>
      <use xlink:href="#DejaVuSans-79" x="475.732422"/>
      <use xlink:href="#DejaVuSans-74" x="534.912109"/>
      <use xlink:href="#DejaVuSans-65" x="574.121094"/>
     </g>
    </g>
   </g>
   <g id="line2d_13">
    <path d="M 73.832727 180.842246 
L 87.948142 197.179142 
L 102.063557 203.436837 
L 116.178972 209.960782 
L 130.294387 217.068687 
L 144.409802 221.62568 
L 158.525217 224.5062 
L 172.640632 226.404122 
L 186.756047 230.489451 
L 200.871462 233.977535 
L 214.986877 238.150003 
L 229.102292 245.07427 
L 243.217708 252.685237 
L 257.333123 242.927852 
L 271.448538 239.402567 
L 285.563953 242.936308 
L 299.679368 258.899093 
L 313.794783 265.045223 
L 327.910198 268.406298 
L 342.025613 269.509889 
L 356.141028 270.404375 
L 370.256443 272.331676 
L 384.371858 279.062063 
L 398.487273 286.671983 
" clip-path="url(#pc650652757)" style="fill: none; stroke: #0000ff; stroke-width: 1.5; stroke-linecap: square"/>
    <defs>
     <path id="m9837f9acc8" d="M -0 4.242641 
L 2.545584 0 
L 0 -4.242641 
L -2.545584 -0 
z
" style="stroke: #0000ff; stroke-linejoin: miter"/>
    </defs>
    <g clip-path="url(#pc650652757)">
     <use xlink:href="#m9837f9acc8" x="73.832727" y="180.842246" style="fill: #0000ff; stroke: #0000ff; stroke-linejoin: miter"/>
     <use xlink:href="#m9837f9acc8" x="87.948142" y="197.179142" style="fill: #0000ff; stroke: #0000ff; stroke-linejoin: miter"/>
     <use xlink:href="#m9837f9acc8" x="102.063557" y="203.436837" style="fill: #0000ff; stroke: #0000ff; stroke-linejoin: miter"/>
     <use xlink:href="#m9837f9acc8" x="116.178972" y="209.960782" style="fill: #0000ff; stroke: #0000ff; stroke-linejoin: miter"/>
     <use xlink:href="#m9837f9acc8" x="130.294387" y="217.068687" style="fill: #0000ff; stroke: #0000ff; stroke-linejoin: miter"/>
     <use xlink:href="#m9837f9acc8" x="144.409802" y="221.62568" style="fill: #0000ff; stroke: #0000ff; stroke-linejoin: miter"/>
     <use xlink:href="#m9837f9acc8" x="158.525217" y="224.5062" style="fill: #0000ff; stroke: #0000ff; stroke-linejoin: miter"/>
     <use xlink:href="#m9837f9acc8" x="172.640632" y="226.404122" style="fill: #0000ff; stroke: #0000ff; stroke-linejoin: miter"/>
     <use xlink:href="#m9837f9acc8" x="186.756047" y="230.489451" style="fill: #0000ff; stroke: #0000ff; stroke-linejoin: miter"/>
     <use xlink:href="#m9837f9acc8" x="200.871462" y="233.977535" style="fill: #0000ff; stroke: #0000ff; stroke-linejoin: miter"/>
     <use xlink:href="#m9837f9acc8" x="214.986877" y="238.150003" style="fill: #0000ff; stroke: #0000ff; stroke-linejoin: miter"/>
     <use xlink:href="#m9837f9acc8" x="229.102292" y="245.07427" style="fill: #0000ff; stroke: #0000ff; stroke-linejoin: miter"/>
     <use xlink:href="#m9837f9acc8" x="243.217708" y="252.685237" style="fill: #0000ff; stroke: #0000ff; stroke-linejoin: miter"/>
     <use xlink:href="#m9837f9acc8" x="257.333123" y="242.927852" style="fill: #0000ff; stroke: #0000ff; stroke-linejoin: miter"/>
     <use xlink:href="#m9837f9acc8" x="271.448538" y="239.402567" style="fill: #0000ff; stroke: #0000ff; stroke-linejoin: miter"/>
     <use xlink:href="#m9837f9acc8" x="285.563953" y="242.936308" style="fill: #0000ff; stroke: #0000ff; stroke-linejoin: miter"/>
     <use xlink:href="#m9837f9acc8" x="299.679368" y="258.899093" style="fill: #0000ff; stroke: #0000ff; stroke-linejoin: miter"/>
     <use xlink:href="#m9837f9acc8" x="313.794783" y="265.045223" style="fill: #0000ff; stroke: #0000ff; stroke-linejoin: miter"/>
     <use xlink:href="#m9837f9acc8" x="327.910198" y="268.406298" style="fill: #0000ff; stroke: #0000ff; stroke-linejoin: miter"/>
     <use xlink:href="#m9837f9acc8" x="342.025613" y="269.509889" style="fill: #0000ff; stroke: #0000ff; stroke-linejoin: miter"/>
     <use xlink:href="#m9837f9acc8" x="356.141028" y="270.404375" style="fill: #0000ff; stroke: #0000ff; stroke-linejoin: miter"/>
     <use xlink:href="#m9837f9acc8" x="370.256443" y="272.331676" style="fill: #0000ff; stroke: #0000ff; stroke-linejoin: miter"/>
     <use xlink:href="#m9837f9acc8" x="384.371858" y="279.062063" style="fill: #0000ff; stroke: #0000ff; stroke-linejoin: miter"/>
     <use xlink:href="#m9837f9acc8" x="398.487273" y="286.671983" style="fill: #0000ff; stroke: #0000ff; stroke-linejoin: miter"/>
    </g>
   </g>
   <g id="line2d_14">
    <path d="M 73.832727 53.568 
L 80.890435 68.614258 
L 87.948142 76.833555 
L 95.00585 84.2092 
L 102.063557 89.107405 
L 109.121265 94.109223 
L 116.178972 98.988737 
L 123.23668 103.424344 
L 130.294387 107.632312 
L 137.352095 112.552565 
L 144.409802 120.832745 
L 151.46751 132.121031 
L 158.525217 148.776902 
L 165.582925 159.398644 
L 172.640632 170.451725 
L 179.69834 180.173587 
L 186.756047 188.413029 
L 193.813755 193.422883 
L 200.871462 198.791833 
L 207.92917 203.486796 
L 214.986877 206.90303 
L 222.044585 211.374506 
L 229.102292 214.395997 
L 236.16 217.716172 
L 243.217708 220.851874 
L 250.275415 224.853008 
L 257.333123 228.649457 
L 264.39083 234.827254 
L 271.448538 238.708626 
L 278.506245 239.620637 
L 285.563953 246.326599 
L 292.62166 250.083367 
L 299.679368 254.365458 
L 306.737075 256.864386 
L 313.794783 258.360179 
L 320.85249 258.118147 
L 327.910198 262.892774 
L 334.967905 269.865836 
L 342.025613 273.980135 
L 349.08332 277.336067 
L 356.141028 280.678822 
L 363.198735 283.761981 
L 370.256443 286.538424 
L 377.31415 288.74838 
L 384.371858 290.724767 
L 391.429565 292.809518 
L 398.487273 295.488 
" clip-path="url(#pc650652757)" style="fill: none; stroke: #ff0000; stroke-width: 1.5; stroke-linecap: square"/>
    <defs>
     <path id="m7d9a6f6ceb" d="M 0 3 
C 0.795609 3 1.55874 2.683901 2.12132 2.12132 
C 2.683901 1.55874 3 0.795609 3 0 
C 3 -0.795609 2.683901 -1.55874 2.12132 -2.12132 
C 1.55874 -2.683901 0.795609 -3 0 -3 
C -0.795609 -3 -1.55874 -2.683901 -2.12132 -2.12132 
C -2.683901 -1.55874 -3 -0.795609 -3 0 
C -3 0.795609 -2.683901 1.55874 -2.12132 2.12132 
C -1.55874 2.683901 -0.795609 3 0 3 
z
" style="stroke: #ff0000"/>
    </defs>
    <g clip-path="url(#pc650652757)">
     <use xlink:href="#m7d9a6f6ceb" x="73.832727" y="53.568" style="fill: #ff0000; stroke: #ff0000"/>
     <use xlink:href="#m7d9a6f6ceb" x="80.890435" y="68.614258" style="fill: #ff0000; stroke: #ff0000"/>
     <use xlink:href="#m7d9a6f6ceb" x="87.948142" y="76.833555" style="fill: #ff0000; stroke: #ff0000"/>
     <use xlink:href="#m7d9a6f6ceb" x="95.00585" y="84.2092" style="fill: #ff0000; stroke: #ff0000"/>
     <use xlink:href="#m7d9a6f6ceb" x="102.063557" y="89.107405" style="fill: #ff0000; stroke: #ff0000"/>
     <use xlink:href="#m7d9a6f6ceb" x="109.121265" y="94.109223" style="fill: #ff0000; stroke: #ff0000"/>
     <use xlink:href="#m7d9a6f6ceb" x="116.178972" y="98.988737" style="fill: #ff0000; stroke: #ff0000"/>
     <use xlink:href="#m7d9a6f6ceb" x="123.23668" y="103.424344" style="fill: #ff0000; stroke: #ff0000"/>
     <use xlink:href="#m7d9a6f6ceb" x="130.294387" y="107.632312" style="fill: #ff0000; stroke: #ff0000"/>
     <use xlink:href="#m7d9a6f6ceb" x="137.352095" y="112.552565" style="fill: #ff0000; stroke: #ff0000"/>
     <use xlink:href="#m7d9a6f6ceb" x="144.409802" y="120.832745" style="fill: #ff0000; stroke: #ff0000"/>
     <use xlink:href="#m7d9a6f6ceb" x="151.46751" y="132.121031" style="fill: #ff0000; stroke: #ff0000"/>
     <use xlink:href="#m7d9a6f6ceb" x="158.525217" y="148.776902" style="fill: #ff0000; stroke: #ff0000"/>
     <use xlink:href="#m7d9a6f6ceb" x="165.582925" y="159.398644" style="fill: #ff0000; stroke: #ff0000"/>
     <use xlink:href="#m7d9a6f6ceb" x="172.640632" y="170.451725" style="fill: #ff0000; stroke: #ff0000"/>
     <use xlink:href="#m7d9a6f6ceb" x="179.69834" y="180.173587" style="fill: #ff0000; stroke: #ff0000"/>
     <use xlink:href="#m7d9a6f6ceb" x="186.756047" y="188.413029" style="fill: #ff0000; stroke: #ff0000"/>
     <use xlink:href="#m7d9a6f6ceb" x="193.813755" y="193.422883" style="fill: #ff0000; stroke: #ff0000"/>
     <use xlink:href="#m7d9a6f6ceb" x="200.871462" y="198.791833" style="fill: #ff0000; stroke: #ff0000"/>
     <use xlink:href="#m7d9a6f6ceb" x="207.92917" y="203.486796" style="fill: #ff0000; stroke: #ff0000"/>
     <use xlink:href="#m7d9a6f6ceb" x="214.986877" y="206.90303" style="fill: #ff0000; stroke: #ff0000"/>
     <use xlink:href="#m7d9a6f6ceb" x="222.044585" y="211.374506" style="fill: #ff0000; stroke: #ff0000"/>
     <use xlink:href="#m7d9a6f6ceb" x="229.102292" y="214.395997" style="fill: #ff0000; stroke: #ff0000"/>
     <use xlink:href="#m7d9a6f6ceb" x="236.16" y="217.716172" style="fill: #ff0000; stroke: #ff0000"/>
     <use xlink:href="#m7d9a6f6ceb" x="243.217708" y="220.851874" style="fill: #ff0000; stroke: #ff0000"/>
     <use xlink:href="#m7d9a6f6ceb" x="250.275415" y="224.853008" style="fill: #ff0000; stroke: #ff0000"/>
     <use xlink:href="#m7d9a6f6ceb" x="257.333123" y="228.649457" style="fill: #ff0000; stroke: #ff0000"/>
     <use xlink:href="#m7d9a6f6ceb" x="264.39083" y="234.827254" style="fill: #ff0000; stroke: #ff0000"/>
     <use xlink:href="#m7d9a6f6ceb" x="271.448538" y="238.708626" style="fill: #ff0000; stroke: #ff0000"/>
     <use xlink:href="#m7d9a6f6ceb" x="278.506245" y="239.620637" style="fill: #ff0000; stroke: #ff0000"/>
     <use xlink:href="#m7d9a6f6ceb" x="285.563953" y="246.326599" style="fill: #ff0000; stroke: #ff0000"/>
     <use xlink:href="#m7d9a6f6ceb" x="292.62166" y="250.083367" style="fill: #ff0000; stroke: #ff0000"/>
     <use xlink:href="#m7d9a6f6ceb" x="299.679368" y="254.365458" style="fill: #ff0000; stroke: #ff0000"/>
     <use xlink:href="#m7d9a6f6ceb" x="306.737075" y="256.864386" style="fill: #ff0000; stroke: #ff0000"/>
     <use xlink:href="#m7d9a6f6ceb" x="313.794783" y="258.360179" style="fill: #ff0000; stroke: #ff0000"/>
     <use xlink:href="#m7d9a6f6ceb" x="320.85249" y="258.118147" style="fill: #ff0000; stroke: #ff0000"/>
     <use xlink:href="#m7d9a6f6ceb" x="327.910198" y="262.892774" style="fill: #ff0000; stroke: #ff0000"/>
     <use xlink:href="#m7d9a6f6ceb" x="334.967905" y="269.865836" style="fill: #ff0000; stroke: #ff0000"/>
     <use xlink:href="#m7d9a6f6ceb" x="342.025613" y="273.980135" style="fill: #ff0000; stroke: #ff0000"/>
     <use xlink:href="#m7d9a6f6ceb" x="349.08332" y="277.336067" style="fill: #ff0000; stroke: #ff0000"/>
     <use xlink:href="#m7d9a6f6ceb" x="356.141028" y="280.678822" style="fill: #ff0000; stroke: #ff0000"/>
     <use xlink:href="#m7d9a6f6ceb" x="363.198735" y="283.761981" style="fill: #ff0000; stroke: #ff0000"/>
     <use xlink:href="#m7d9a6f6ceb" x="370.256443" y="286.538424" style="fill: #ff0000; stroke: #ff0000"/>
     <use xlink:href="#m7d9a6f6ceb" x="377.31415" y="288.74838" style="fill: #ff0000; stroke: #ff0000"/>
     <use xlink:href="#m7d9a6f6ceb" x="384.371858" y="290.724767" style="fill: #ff0000; stroke: #ff0000"/>
     <use xlink:href="#m7d9a6f6ceb" x="391.429565" y="292.809518" style="fill: #ff0000; stroke: #ff0000"/>
     <use xlink:href="#m7d9a6f6ceb" x="398.487273" y="295.488" style="fill: #ff0000; stroke: #ff0000"/>
    </g>
   </g>
   <g id="line2d_15">
    <path d="M 73.832727 206.739653 
L 87.948142 212.039707 
L 102.063557 213.648548 
L 116.178972 215.868467 
L 130.294387 218.282483 
L 144.409802 220.493303 
L 158.525217 222.546969 
L 172.640632 224.019428 
L 186.756047 225.839075 
L 200.871462 227.352977 
L 214.986877 227.921582 
L 229.102292 229.208304 
L 243.217708 231.724567 
L 257.333123 233.732191 
L 271.448538 237.077374 
L 285.563953 241.040299 
L 299.679368 245.279682 
L 313.794783 250.997713 
L 327.910198 257.597129 
L 342.025613 263.419399 
L 356.141028 270.315367 
L 370.256443 277.138786 
L 384.371858 285.445426 
L 398.487273 294.634725 
" clip-path="url(#pc650652757)" style="fill: none; stroke: #008000; stroke-width: 1.5; stroke-linecap: square"/>
    <defs>
     <path id="m25e409fcd9" d="M -3 3 
L 3 3 
L 3 -3 
L -3 -3 
z
" style="stroke: #008000; stroke-linejoin: miter"/>
    </defs>
    <g clip-path="url(#pc650652757)">
     <use xlink:href="#m25e409fcd9" x="73.832727" y="206.739653" style="fill: #008000; stroke: #008000; stroke-linejoin: miter"/>
     <use xlink:href="#m25e409fcd9" x="87.948142" y="212.039707" style="fill: #008000; stroke: #008000; stroke-linejoin: miter"/>
     <use xlink:href="#m25e409fcd9" x="102.063557" y="213.648548" style="fill: #008000; stroke: #008000; stroke-linejoin: miter"/>
     <use xlink:href="#m25e409fcd9" x="116.178972" y="215.868467" style="fill: #008000; stroke: #008000; stroke-linejoin: miter"/>
     <use xlink:href="#m25e409fcd9" x="130.294387" y="218.282483" style="fill: #008000; stroke: #008000; stroke-linejoin: miter"/>
     <use xlink:href="#m25e409fcd9" x="144.409802" y="220.493303" style="fill: #008000; stroke: #008000; stroke-linejoin: miter"/>
     <use xlink:href="#m25e409fcd9" x="158.525217" y="222.546969" style="fill: #008000; stroke: #008000; stroke-linejoin: miter"/>
     <use xlink:href="#m25e409fcd9" x="172.640632" y="224.019428" style="fill: #008000; stroke: #008000; stroke-linejoin: miter"/>
     <use xlink:href="#m25e409fcd9" x="186.756047" y="225.839075" style="fill: #008000; stroke: #008000; stroke-linejoin: miter"/>
     <use xlink:href="#m25e409fcd9" x="200.871462" y="227.352977" style="fill: #008000; stroke: #008000; stroke-linejoin: miter"/>
     <use xlink:href="#m25e409fcd9" x="214.986877" y="227.921582" style="fill: #008000; stroke: #008000; stroke-linejoin: miter"/>
     <use xlink:href="#m25e409fcd9" x="229.102292" y="229.208304" style="fill: #008000; stroke: #008000; stroke-linejoin: miter"/>
     <use xlink:href="#m25e409fcd9" x="243.217708" y="231.724567" style="fill: #008000; stroke: #008000; stroke-linejoin: miter"/>
     <use xlink:href="#m25e409fcd9" x="257.333123" y="233.732191" style="fill: #008000; stroke: #008000; stroke-linejoin: miter"/>
     <use xlink:href="#m25e409fcd9" x="271.448538" y="237.077374" style="fill: #008000; stroke: #008000; stroke-linejoin: miter"/>
     <use xlink:href="#m25e409fcd9" x="285.563953" y="241.040299" style="fill: #008000; stroke: #008000; stroke-linejoin: miter"/>
     <use xlink:href="#m25e409fcd9" x="299.679368" y="245.279682" style="fill: #008000; stroke: #008000; stroke-linejoin: miter"/>
     <use xlink:href="#m25e409fcd9" x="313.794783" y="250.997713" style="fill: #008000; stroke: #008000; stroke-linejoin: miter"/>
     <use xlink:href="#m25e409fcd9" x="327.910198" y="257.597129" style="fill: #008000; stroke: #008000; stroke-linejoin: miter"/>
     <use xlink:href="#m25e409fcd9" x="342.025613" y="263.419399" style="fill: #008000; stroke: #008000; stroke-linejoin: miter"/>
     <use xlink:href="#m25e409fcd9" x="356.141028" y="270.315367" style="fill: #008000; stroke: #008000; stroke-linejoin: miter"/>
     <use xlink:href="#m25e409fcd9" x="370.256443" y="277.138786" style="fill: #008000; stroke: #008000; stroke-linejoin: miter"/>
     <use xlink:href="#m25e409fcd9" x="384.371858" y="285.445426" style="fill: #008000; stroke: #008000; stroke-linejoin: miter"/>
     <use xlink:href="#m25e409fcd9" x="398.487273" y="294.634725" style="fill: #008000; stroke: #008000; stroke-linejoin: miter"/>
    </g>
   </g>
   <g id="patch_3">
    <path d="M 57.6 307.584 
L 57.6 41.472 
" style="fill: none; stroke: #000000; stroke-width: 0.8; stroke-linejoin: miter; stroke-linecap: square"/>
   </g>
   <g id="patch_4">
    <path d="M 414.72 307.584 
L 414.72 41.472 
" style="fill: none; stroke: #000000; stroke-width: 0.8; stroke-linejoin: miter; stroke-linecap: square"/>
   </g>
   <g id="patch_5">
    <path d="M 57.6 307.584 
L 414.72 307.584 
" style="fill: none; stroke: #000000; stroke-width: 0.8; stroke-linejoin: miter; stroke-linecap: square"/>
   </g>
   <g id="patch_6">
    <path d="M 57.6 41.472 
L 414.72 41.472 
" style="fill: none; stroke: #000000; stroke-width: 0.8; stroke-linejoin: miter; stroke-linecap: square"/>
   </g>
   <g id="text_15">
    <!-- Tuned lens -->
    <g transform="translate(204.103125 35.472) scale(0.12 -0.12)">
     <defs>
      <path id="DejaVuSans-54" d="M -19 4666 
L 3928 4666 
L 3928 4134 
L 2272 4134 
L 2272 0 
L 1638 0 
L 1638 4134 
L -19 4134 
L -19 4666 
z
" transform="scale(0.015625)"/>
      <path id="DejaVuSans-75" d="M 544 1381 
L 544 3500 
L 1119 3500 
L 1119 1403 
Q 1119 906 1312 657 
Q 1506 409 1894 409 
Q 2359 409 2629 706 
Q 2900 1003 2900 1516 
L 2900 3500 
L 3475 3500 
L 3475 0 
L 2900 0 
L 2900 538 
Q 2691 219 2414 64 
Q 2138 -91 1772 -91 
Q 1169 -91 856 284 
Q 544 659 544 1381 
z
M 1991 3584 
L 1991 3584 
z
" transform="scale(0.015625)"/>
      <path id="DejaVuSans-6e" d="M 3513 2113 
L 3513 0 
L 2938 0 
L 2938 2094 
Q 2938 2591 2744 2837 
Q 2550 3084 2163 3084 
Q 1697 3084 1428 2787 
Q 1159 2491 1159 1978 
L 1159 0 
L 581 0 
L 581 3500 
L 1159 3500 
L 1159 2956 
Q 1366 3272 1645 3428 
Q 1925 3584 2291 3584 
Q 2894 3584 3203 3211 
Q 3513 2838 3513 2113 
z
" transform="scale(0.015625)"/>
      <path id="DejaVuSans-64" d="M 2906 2969 
L 2906 4863 
L 3481 4863 
L 3481 0 
L 2906 0 
L 2906 525 
Q 2725 213 2448 61 
Q 2172 -91 1784 -91 
Q 1150 -91 751 415 
Q 353 922 353 1747 
Q 353 2572 751 3078 
Q 1150 3584 1784 3584 
Q 2172 3584 2448 3432 
Q 2725 3281 2906 2969 
z
M 947 1747 
Q 947 1113 1208 752 
Q 1469 391 1925 391 
Q 2381 391 2643 752 
Q 2906 1113 2906 1747 
Q 2906 2381 2643 2742 
Q 2381 3103 1925 3103 
Q 1469 3103 1208 2742 
Q 947 2381 947 1747 
z
" transform="scale(0.015625)"/>
      <path id="DejaVuSans-6c" d="M 603 4863 
L 1178 4863 
L 1178 0 
L 603 0 
L 603 4863 
z
" transform="scale(0.015625)"/>
     </defs>
     <use xlink:href="#DejaVuSans-54"/>
     <use xlink:href="#DejaVuSans-75" x="45.958984"/>
     <use xlink:href="#DejaVuSans-6e" x="109.337891"/>
     <use xlink:href="#DejaVuSans-65" x="172.716797"/>
     <use xlink:href="#DejaVuSans-64" x="234.240234"/>
     <use xlink:href="#DejaVuSans-20" x="297.716797"/>
     <use xlink:href="#DejaVuSans-6c" x="329.503906"/>
     <use xlink:href="#DejaVuSans-65" x="357.287109"/>
     <use xlink:href="#DejaVuSans-6e" x="418.810547"/>
     <use xlink:href="#DejaVuSans-73" x="482.189453"/>
    </g>
   </g>
   <g id="legend_1">
    <g id="patch_7">
     <path d="M 308.357188 114.320125 
L 404.92 114.320125 
Q 407.72 114.320125 407.72 111.520125 
L 407.72 51.272 
Q 407.72 48.472 404.92 48.472 
L 308.357188 48.472 
Q 305.557188 48.472 305.557188 51.272 
L 305.557188 111.520125 
Q 305.557188 114.320125 308.357188 114.320125 
z
" style="fill: #ffffff; opacity: 0.8; stroke: #cccccc; stroke-linejoin: miter"/>
    </g>
    <g id="line2d_16">
     <path d="M 311.157188 59.809812 
L 325.157188 59.809812 
L 339.157188 59.809812 
" style="fill: none; stroke: #0000ff; stroke-width: 1.5; stroke-linecap: square"/>
     <g>
      <use xlink:href="#m9837f9acc8" x="325.157188" y="59.809812" style="fill: #0000ff; stroke: #0000ff; stroke-linejoin: miter"/>
     </g>
    </g>
    <g id="text_16">
     <!-- Pythia -->
     <g transform="translate(350.357188 64.709812) scale(0.14 -0.14)">
      <defs>
       <path id="DejaVuSans-50" d="M 1259 4147 
L 1259 2394 
L 2053 2394 
Q 2494 2394 2734 2622 
Q 2975 2850 2975 3272 
Q 2975 3691 2734 3919 
Q 2494 4147 2053 4147 
L 1259 4147 
z
M 628 4666 
L 2053 4666 
Q 2838 4666 3239 4311 
Q 3641 3956 3641 3272 
Q 3641 2581 3239 2228 
Q 2838 1875 2053 1875 
L 1259 1875 
L 1259 0 
L 628 0 
L 628 4666 
z
" transform="scale(0.015625)"/>
       <path id="DejaVuSans-61" d="M 2194 1759 
Q 1497 1759 1228 1600 
Q 959 1441 959 1056 
Q 959 750 1161 570 
Q 1363 391 1709 391 
Q 2188 391 2477 730 
Q 2766 1069 2766 1631 
L 2766 1759 
L 2194 1759 
z
M 3341 1997 
L 3341 0 
L 2766 0 
L 2766 531 
Q 2569 213 2275 61 
Q 1981 -91 1556 -91 
Q 1019 -91 701 211 
Q 384 513 384 1019 
Q 384 1609 779 1909 
Q 1175 2209 1959 2209 
L 2766 2209 
L 2766 2266 
Q 2766 2663 2505 2880 
Q 2244 3097 1772 3097 
Q 1472 3097 1187 3025 
Q 903 2953 641 2809 
L 641 3341 
Q 956 3463 1253 3523 
Q 1550 3584 1831 3584 
Q 2591 3584 2966 3190 
Q 3341 2797 3341 1997 
z
" transform="scale(0.015625)"/>
      </defs>
      <use xlink:href="#DejaVuSans-50"/>
      <use xlink:href="#DejaVuSans-79" x="60.302734"/>
      <use xlink:href="#DejaVuSans-74" x="119.482422"/>
      <use xlink:href="#DejaVuSans-68" x="158.691406"/>
      <use xlink:href="#DejaVuSans-69" x="222.070312"/>
      <use xlink:href="#DejaVuSans-61" x="249.853516"/>
     </g>
    </g>
    <g id="line2d_17">
     <path d="M 311.157188 80.359187 
L 325.157188 80.359187 
L 339.157188 80.359187 
" style="fill: none; stroke: #ff0000; stroke-width: 1.5; stroke-linecap: square"/>
     <g>
      <use xlink:href="#m7d9a6f6ceb" x="325.157188" y="80.359187" style="fill: #ff0000; stroke: #ff0000"/>
     </g>
    </g>
    <g id="text_17">
     <!-- Mamba -->
     <g transform="translate(350.357188 85.259187) scale(0.14 -0.14)">
      <defs>
       <path id="DejaVuSans-4d" d="M 628 4666 
L 1569 4666 
L 2759 1491 
L 3956 4666 
L 4897 4666 
L 4897 0 
L 4281 0 
L 4281 4097 
L 3078 897 
L 2444 897 
L 1241 4097 
L 1241 0 
L 628 0 
L 628 4666 
z
" transform="scale(0.015625)"/>
       <path id="DejaVuSans-6d" d="M 3328 2828 
Q 3544 3216 3844 3400 
Q 4144 3584 4550 3584 
Q 5097 3584 5394 3201 
Q 5691 2819 5691 2113 
L 5691 0 
L 5113 0 
L 5113 2094 
Q 5113 2597 4934 2840 
Q 4756 3084 4391 3084 
Q 3944 3084 3684 2787 
Q 3425 2491 3425 1978 
L 3425 0 
L 2847 0 
L 2847 2094 
Q 2847 2600 2669 2842 
Q 2491 3084 2119 3084 
Q 1678 3084 1418 2786 
Q 1159 2488 1159 1978 
L 1159 0 
L 581 0 
L 581 3500 
L 1159 3500 
L 1159 2956 
Q 1356 3278 1631 3431 
Q 1906 3584 2284 3584 
Q 2666 3584 2933 3390 
Q 3200 3197 3328 2828 
z
" transform="scale(0.015625)"/>
      </defs>
      <use xlink:href="#DejaVuSans-4d"/>
      <use xlink:href="#DejaVuSans-61" x="86.279297"/>
      <use xlink:href="#DejaVuSans-6d" x="147.558594"/>
      <use xlink:href="#DejaVuSans-62" x="244.970703"/>
      <use xlink:href="#DejaVuSans-61" x="308.447266"/>
     </g>
    </g>
    <g id="line2d_18">
     <path d="M 311.157188 100.908562 
L 325.157188 100.908562 
L 339.157188 100.908562 
" style="fill: none; stroke: #008000; stroke-width: 1.5; stroke-linecap: square"/>
     <g>
      <use xlink:href="#m25e409fcd9" x="325.157188" y="100.908562" style="fill: #008000; stroke: #008000; stroke-linejoin: miter"/>
     </g>
    </g>
    <g id="text_18">
     <!-- RWKV -->
     <g transform="translate(350.357188 105.808562) scale(0.14 -0.14)">
      <defs>
       <path id="DejaVuSans-52" d="M 2841 2188 
Q 3044 2119 3236 1894 
Q 3428 1669 3622 1275 
L 4263 0 
L 3584 0 
L 2988 1197 
Q 2756 1666 2539 1819 
Q 2322 1972 1947 1972 
L 1259 1972 
L 1259 0 
L 628 0 
L 628 4666 
L 2053 4666 
Q 2853 4666 3247 4331 
Q 3641 3997 3641 3322 
Q 3641 2881 3436 2590 
Q 3231 2300 2841 2188 
z
M 1259 4147 
L 1259 2491 
L 2053 2491 
Q 2509 2491 2742 2702 
Q 2975 2913 2975 3322 
Q 2975 3731 2742 3939 
Q 2509 4147 2053 4147 
L 1259 4147 
z
" transform="scale(0.015625)"/>
       <path id="DejaVuSans-57" d="M 213 4666 
L 850 4666 
L 1831 722 
L 2809 4666 
L 3519 4666 
L 4500 722 
L 5478 4666 
L 6119 4666 
L 4947 0 
L 4153 0 
L 3169 4050 
L 2175 0 
L 1381 0 
L 213 4666 
z
" transform="scale(0.015625)"/>
       <path id="DejaVuSans-4b" d="M 628 4666 
L 1259 4666 
L 1259 2694 
L 3353 4666 
L 4166 4666 
L 1850 2491 
L 4331 0 
L 3500 0 
L 1259 2247 
L 1259 0 
L 628 0 
L 628 4666 
z
" transform="scale(0.015625)"/>
       <path id="DejaVuSans-56" d="M 1831 0 
L 50 4666 
L 709 4666 
L 2188 738 
L 3669 4666 
L 4325 4666 
L 2547 0 
L 1831 0 
z
" transform="scale(0.015625)"/>
      </defs>
      <use xlink:href="#DejaVuSans-52"/>
      <use xlink:href="#DejaVuSans-57" x="65.482422"/>
      <use xlink:href="#DejaVuSans-4b" x="164.359375"/>
      <use xlink:href="#DejaVuSans-56" x="229.935547"/>
     </g>
    </g>
   </g>
  </g>
 </g>
 <defs>
  <clipPath id="pc650652757">
   <rect x="57.6" y="41.472" width="357.12" height="266.112"/>
  </clipPath>
 </defs>
</svg>
