<?xml version="1.0" encoding="utf-8" standalone="no"?>
<!DOCTYPE svg PUBLIC "-//W3C//DTD SVG 1.1//EN"
  "http://www.w3.org/Graphics/SVG/1.1/DTD/svg11.dtd">
<svg xmlns:xlink="http://www.w3.org/1999/xlink" width="828.094995pt" height="351.848257pt" viewBox="0 0 828.094995 351.848257" xmlns="http://www.w3.org/2000/svg" version="1.1">
 <metadata>
  <rdf:RDF xmlns:dc="http://purl.org/dc/elements/1.1/" xmlns:cc="http://creativecommons.org/ns#" xmlns:rdf="http://www.w3.org/1999/02/22-rdf-syntax-ns#">
   <cc:Work>
    <dc:type rdf:resource="http://purl.org/dc/dcmitype/StillImage"/>
    <dc:date>2024-03-28T06:55:56.759424</dc:date>
    <dc:format>image/svg+xml</dc:format>
    <dc:creator>
     <cc:Agent>
      <dc:title>Matplotlib v3.8.3, https://matplotlib.org/</dc:title>
     </cc:Agent>
    </dc:creator>
   </cc:Work>
  </rdf:RDF>
 </metadata>
 <defs>
  <style type="text/css">*{stroke-linejoin: round; stroke-linecap: butt}</style>
 </defs>
 <g id="figure_1">
  <g id="patch_1">
   <path d="M 0 351.848257 
L 828.094995 351.848257 
L 828.094995 0 
L 0 0 
z
" style="fill: #ffffff"/>
  </g>
  <g id="axes_1">
   <g id="patch_2">
    <path d="M 43.78125 314.292007 
L 699.888695 314.292007 
L 699.888695 10.7176 
L 43.78125 10.7176 
z
" style="fill: #ffffff"/>
   </g>
   <g id="patch_3">
    <path d="M 53.154214 314.292007 
L 78.148783 314.292007 
L 78.148783 304.495987 
L 53.154214 304.495987 
z
" clip-path="url(#p0a97991a33)" style="fill: #3274a1"/>
   </g>
   <g id="patch_4">
    <path d="M 146.883848 314.292007 
L 171.878418 314.292007 
L 171.878418 239.132475 
L 146.883848 239.132475 
z
" clip-path="url(#p0a97991a33)" style="fill: #3274a1"/>
   </g>
   <g id="patch_5">
    <path d="M 240.613484 314.292007 
L 265.608053 314.292007 
L 265.608053 236.927992 
L 240.613484 236.927992 
z
" clip-path="url(#p0a97991a33)" style="fill: #3274a1"/>
   </g>
   <g id="patch_6">
    <path d="M 334.343119 314.292007 
L 359.337688 314.292007 
L 359.337688 209.461804 
L 334.343119 209.461804 
z
" clip-path="url(#p0a97991a33)" style="fill: #3274a1"/>
   </g>
   <g id="patch_7">
    <path d="M 428.072753 314.292007 
L 453.067323 314.292007 
L 453.067323 151.221074 
L 428.072753 151.221074 
z
" clip-path="url(#p0a97991a33)" style="fill: #3274a1"/>
   </g>
   <g id="patch_8">
    <path d="M 521.802389 314.292007 
L 546.796958 314.292007 
L 546.796958 94.207558 
L 521.802389 94.207558 
z
" clip-path="url(#p0a97991a33)" style="fill: #3274a1"/>
   </g>
   <g id="patch_9">
    <path d="M 615.532023 314.292007 
L 640.526593 314.292007 
L 640.526593 46.529171 
L 615.532023 46.529171 
z
" clip-path="url(#p0a97991a33)" style="fill: #3274a1"/>
   </g>
   <g id="patch_10">
    <path d="M 78.148783 314.292007 
L 103.143352 314.292007 
L 103.143352 308.751107 
L 78.148783 308.751107 
z
" clip-path="url(#p0a97991a33)" style="fill: #e1812c"/>
   </g>
   <g id="patch_11">
    <path d="M 171.878418 314.292007 
L 196.872987 314.292007 
L 196.872987 276.839118 
L 171.878418 276.839118 
z
" clip-path="url(#p0a97991a33)" style="fill: #e1812c"/>
   </g>
   <g id="patch_12">
    <path d="M 265.608053 314.292007 
L 290.602622 314.292007 
L 290.602622 261.510176 
L 265.608053 261.510176 
z
" clip-path="url(#p0a97991a33)" style="fill: #e1812c"/>
   </g>
   <g id="patch_13">
    <path d="M 359.337688 314.292007 
L 384.332257 314.292007 
L 384.332257 269.881024 
L 359.337688 269.881024 
z
" clip-path="url(#p0a97991a33)" style="fill: #e1812c"/>
   </g>
   <g id="patch_14">
    <path d="M 453.067323 314.292007 
L 478.061892 314.292007 
L 478.061892 180.070035 
L 453.067323 180.070035 
z
" clip-path="url(#p0a97991a33)" style="fill: #e1812c"/>
   </g>
   <g id="patch_15">
    <path d="M 546.796958 314.292007 
L 571.791527 314.292007 
L 571.791527 219.668391 
L 546.796958 219.668391 
z
" clip-path="url(#p0a97991a33)" style="fill: #e1812c"/>
   </g>
   <g id="patch_16">
    <path d="M 640.526593 314.292007 
L 665.521162 314.292007 
L 665.521162 121.734792 
L 640.526593 121.734792 
z
" clip-path="url(#p0a97991a33)" style="fill: #e1812c"/>
   </g>
   <g id="patch_17">
    <path d="M 103.143352 314.292007 
L 128.137922 314.292007 
L 128.137922 301.096977 
L 103.143352 301.096977 
z
" clip-path="url(#p0a97991a33)" style="fill: #3a923a"/>
   </g>
   <g id="patch_18">
    <path d="M 196.872987 314.292007 
L 221.867556 314.292007 
L 221.867556 235.434016 
L 196.872987 235.434016 
z
" clip-path="url(#p0a97991a33)" style="fill: #3a923a"/>
   </g>
   <g id="patch_19">
    <path d="M 290.602622 314.292007 
L 315.597192 314.292007 
L 315.597192 175.571422 
L 290.602622 175.571422 
z
" clip-path="url(#p0a97991a33)" style="fill: #3a923a"/>
   </g>
   <g id="patch_20">
    <path d="M 384.332257 314.292007 
L 409.326826 314.292007 
L 409.326826 166.386413 
L 384.332257 166.386413 
z
" clip-path="url(#p0a97991a33)" style="fill: #3a923a"/>
   </g>
   <g id="patch_21">
    <path d="M 478.061892 314.292007 
L 503.056462 314.292007 
L 503.056462 107.668566 
L 478.061892 107.668566 
z
" clip-path="url(#p0a97991a33)" style="fill: #3a923a"/>
   </g>
   <g id="patch_22">
    <path d="M 571.791527 314.292007 
L 596.786096 314.292007 
L 596.786096 94.10889 
L 571.791527 94.10889 
z
" clip-path="url(#p0a97991a33)" style="fill: #3a923a"/>
   </g>
   <g id="patch_23">
    <path d="M 665.521162 314.292007 
L 690.515731 314.292007 
L 690.515731 25.173524 
L 665.521162 25.173524 
z
" clip-path="url(#p0a97991a33)" style="fill: #3a923a"/>
   </g>
   <g id="patch_24">
    <path d="M 90.646068 314.292007 
L 90.646068 314.292007 
L 90.646068 314.292007 
L 90.646068 314.292007 
z
" clip-path="url(#p0a97991a33)" style="fill: #3274a1"/>
   </g>
   <g id="patch_25">
    <path d="M 90.646068 314.292007 
L 90.646068 314.292007 
L 90.646068 314.292007 
L 90.646068 314.292007 
z
" clip-path="url(#p0a97991a33)" style="fill: #e1812c"/>
   </g>
   <g id="patch_26">
    <path d="M 90.646068 314.292007 
L 90.646068 314.292007 
L 90.646068 314.292007 
L 90.646068 314.292007 
z
" clip-path="url(#p0a97991a33)" style="fill: #3a923a"/>
   </g>
   <g id="matplotlib.axis_1">
    <g id="xtick_1">
     <g id="line2d_1">
      <defs>
       <path id="m0288bfe776" d="M 0 0 
L 0 3.5 
" style="stroke: #000000; stroke-width: 0.8"/>
      </defs>
      <g>
       <use xlink:href="#m0288bfe776" x="90.646068" y="314.292007" style="stroke: #000000; stroke-width: 0.8"/>
      </g>
     </g>
     <g id="text_1">
      <!-- sycophancy -->
      <g transform="translate(60.989036 328.890445) scale(0.1 -0.1)">
       <defs>
        <path id="DejaVuSans-73" d="M 2834 3397 
L 2834 2853 
Q 2591 2978 2328 3040 
Q 2066 3103 1784 3103 
Q 1356 3103 1142 2972 
Q 928 2841 928 2578 
Q 928 2378 1081 2264 
Q 1234 2150 1697 2047 
L 1894 2003 
Q 2506 1872 2764 1633 
Q 3022 1394 3022 966 
Q 3022 478 2636 193 
Q 2250 -91 1575 -91 
Q 1294 -91 989 -36 
Q 684 19 347 128 
L 347 722 
Q 666 556 975 473 
Q 1284 391 1588 391 
Q 1994 391 2212 530 
Q 2431 669 2431 922 
Q 2431 1156 2273 1281 
Q 2116 1406 1581 1522 
L 1381 1569 
Q 847 1681 609 1914 
Q 372 2147 372 2553 
Q 372 3047 722 3315 
Q 1072 3584 1716 3584 
Q 2034 3584 2315 3537 
Q 2597 3491 2834 3397 
z
" transform="scale(0.015625)"/>
        <path id="DejaVuSans-79" d="M 2059 -325 
Q 1816 -950 1584 -1140 
Q 1353 -1331 966 -1331 
L 506 -1331 
L 506 -850 
L 844 -850 
Q 1081 -850 1212 -737 
Q 1344 -625 1503 -206 
L 1606 56 
L 191 3500 
L 800 3500 
L 1894 763 
L 2988 3500 
L 3597 3500 
L 2059 -325 
z
" transform="scale(0.015625)"/>
        <path id="DejaVuSans-63" d="M 3122 3366 
L 3122 2828 
Q 2878 2963 2633 3030 
Q 2388 3097 2138 3097 
Q 1578 3097 1268 2742 
Q 959 2388 959 1747 
Q 959 1106 1268 751 
Q 1578 397 2138 397 
Q 2388 397 2633 464 
Q 2878 531 3122 666 
L 3122 134 
Q 2881 22 2623 -34 
Q 2366 -91 2075 -91 
Q 1284 -91 818 406 
Q 353 903 353 1747 
Q 353 2603 823 3093 
Q 1294 3584 2113 3584 
Q 2378 3584 2631 3529 
Q 2884 3475 3122 3366 
z
" transform="scale(0.015625)"/>
        <path id="DejaVuSans-6f" d="M 1959 3097 
Q 1497 3097 1228 2736 
Q 959 2375 959 1747 
Q 959 1119 1226 758 
Q 1494 397 1959 397 
Q 2419 397 2687 759 
Q 2956 1122 2956 1747 
Q 2956 2369 2687 2733 
Q 2419 3097 1959 3097 
z
M 1959 3584 
Q 2709 3584 3137 3096 
Q 3566 2609 3566 1747 
Q 3566 888 3137 398 
Q 2709 -91 1959 -91 
Q 1206 -91 779 398 
Q 353 888 353 1747 
Q 353 2609 779 3096 
Q 1206 3584 1959 3584 
z
" transform="scale(0.015625)"/>
        <path id="DejaVuSans-70" d="M 1159 525 
L 1159 -1331 
L 581 -1331 
L 581 3500 
L 1159 3500 
L 1159 2969 
Q 1341 3281 1617 3432 
Q 1894 3584 2278 3584 
Q 2916 3584 3314 3078 
Q 3713 2572 3713 1747 
Q 3713 922 3314 415 
Q 2916 -91 2278 -91 
Q 1894 -91 1617 61 
Q 1341 213 1159 525 
z
M 3116 1747 
Q 3116 2381 2855 2742 
Q 2594 3103 2138 3103 
Q 1681 3103 1420 2742 
Q 1159 2381 1159 1747 
Q 1159 1113 1420 752 
Q 1681 391 2138 391 
Q 2594 391 2855 752 
Q 3116 1113 3116 1747 
z
" transform="scale(0.015625)"/>
        <path id="DejaVuSans-68" d="M 3513 2113 
L 3513 0 
L 2938 0 
L 2938 2094 
Q 2938 2591 2744 2837 
Q 2550 3084 2163 3084 
Q 1697 3084 1428 2787 
Q 1159 2491 1159 1978 
L 1159 0 
L 581 0 
L 581 4863 
L 1159 4863 
L 1159 2956 
Q 1366 3272 1645 3428 
Q 1925 3584 2291 3584 
Q 2894 3584 3203 3211 
Q 3513 2838 3513 2113 
z
" transform="scale(0.015625)"/>
        <path id="DejaVuSans-61" d="M 2194 1759 
Q 1497 1759 1228 1600 
Q 959 1441 959 1056 
Q 959 750 1161 570 
Q 1363 391 1709 391 
Q 2188 391 2477 730 
Q 2766 1069 2766 1631 
L 2766 1759 
L 2194 1759 
z
M 3341 1997 
L 3341 0 
L 2766 0 
L 2766 531 
Q 2569 213 2275 61 
Q 1981 -91 1556 -91 
Q 1019 -91 701 211 
Q 384 513 384 1019 
Q 384 1609 779 1909 
Q 1175 2209 1959 2209 
L 2766 2209 
L 2766 2266 
Q 2766 2663 2505 2880 
Q 2244 3097 1772 3097 
Q 1472 3097 1187 3025 
Q 903 2953 641 2809 
L 641 3341 
Q 956 3463 1253 3523 
Q 1550 3584 1831 3584 
Q 2591 3584 2966 3190 
Q 3341 2797 3341 1997 
z
" transform="scale(0.015625)"/>
        <path id="DejaVuSans-6e" d="M 3513 2113 
L 3513 0 
L 2938 0 
L 2938 2094 
Q 2938 2591 2744 2837 
Q 2550 3084 2163 3084 
Q 1697 3084 1428 2787 
Q 1159 2491 1159 1978 
L 1159 0 
L 581 0 
L 581 3500 
L 1159 3500 
L 1159 2956 
Q 1366 3272 1645 3428 
Q 1925 3584 2291 3584 
Q 2894 3584 3203 3211 
Q 3513 2838 3513 2113 
z
" transform="scale(0.015625)"/>
       </defs>
       <use xlink:href="#DejaVuSans-73"/>
       <use xlink:href="#DejaVuSans-79" x="52.099609"/>
       <use xlink:href="#DejaVuSans-63" x="111.279297"/>
       <use xlink:href="#DejaVuSans-6f" x="166.259766"/>
       <use xlink:href="#DejaVuSans-70" x="227.441406"/>
       <use xlink:href="#DejaVuSans-68" x="290.917969"/>
       <use xlink:href="#DejaVuSans-61" x="354.296875"/>
       <use xlink:href="#DejaVuSans-6e" x="415.576172"/>
       <use xlink:href="#DejaVuSans-63" x="478.955078"/>
       <use xlink:href="#DejaVuSans-79" x="533.935547"/>
      </g>
     </g>
    </g>
    <g id="xtick_2">
     <g id="line2d_2">
      <g>
       <use xlink:href="#m0288bfe776" x="184.375702" y="314.292007" style="stroke: #000000; stroke-width: 0.8"/>
      </g>
     </g>
     <g id="text_2">
      <!-- myopic-reward -->
      <g transform="translate(147.05539 328.890445) scale(0.1 -0.1)">
       <defs>
        <path id="DejaVuSans-6d" d="M 3328 2828 
Q 3544 3216 3844 3400 
Q 4144 3584 4550 3584 
Q 5097 3584 5394 3201 
Q 5691 2819 5691 2113 
L 5691 0 
L 5113 0 
L 5113 2094 
Q 5113 2597 4934 2840 
Q 4756 3084 4391 3084 
Q 3944 3084 3684 2787 
Q 3425 2491 3425 1978 
L 3425 0 
L 2847 0 
L 2847 2094 
Q 2847 2600 2669 2842 
Q 2491 3084 2119 3084 
Q 1678 3084 1418 2786 
Q 1159 2488 1159 1978 
L 1159 0 
L 581 0 
L 581 3500 
L 1159 3500 
L 1159 2956 
Q 1356 3278 1631 3431 
Q 1906 3584 2284 3584 
Q 2666 3584 2933 3390 
Q 3200 3197 3328 2828 
z
" transform="scale(0.015625)"/>
        <path id="DejaVuSans-69" d="M 603 3500 
L 1178 3500 
L 1178 0 
L 603 0 
L 603 3500 
z
M 603 4863 
L 1178 4863 
L 1178 4134 
L 603 4134 
L 603 4863 
z
" transform="scale(0.015625)"/>
        <path id="DejaVuSans-2d" d="M 313 2009 
L 1997 2009 
L 1997 1497 
L 313 1497 
L 313 2009 
z
" transform="scale(0.015625)"/>
        <path id="DejaVuSans-72" d="M 2631 2963 
Q 2534 3019 2420 3045 
Q 2306 3072 2169 3072 
Q 1681 3072 1420 2755 
Q 1159 2438 1159 1844 
L 1159 0 
L 581 0 
L 581 3500 
L 1159 3500 
L 1159 2956 
Q 1341 3275 1631 3429 
Q 1922 3584 2338 3584 
Q 2397 3584 2469 3576 
Q 2541 3569 2628 3553 
L 2631 2963 
z
" transform="scale(0.015625)"/>
        <path id="DejaVuSans-65" d="M 3597 1894 
L 3597 1613 
L 953 1613 
Q 991 1019 1311 708 
Q 1631 397 2203 397 
Q 2534 397 2845 478 
Q 3156 559 3463 722 
L 3463 178 
Q 3153 47 2828 -22 
Q 2503 -91 2169 -91 
Q 1331 -91 842 396 
Q 353 884 353 1716 
Q 353 2575 817 3079 
Q 1281 3584 2069 3584 
Q 2775 3584 3186 3129 
Q 3597 2675 3597 1894 
z
M 3022 2063 
Q 3016 2534 2758 2815 
Q 2500 3097 2075 3097 
Q 1594 3097 1305 2825 
Q 1016 2553 972 2059 
L 3022 2063 
z
" transform="scale(0.015625)"/>
        <path id="DejaVuSans-77" d="M 269 3500 
L 844 3500 
L 1563 769 
L 2278 3500 
L 2956 3500 
L 3675 769 
L 4391 3500 
L 4966 3500 
L 4050 0 
L 3372 0 
L 2619 2869 
L 1863 0 
L 1184 0 
L 269 3500 
z
" transform="scale(0.015625)"/>
        <path id="DejaVuSans-64" d="M 2906 2969 
L 2906 4863 
L 3481 4863 
L 3481 0 
L 2906 0 
L 2906 525 
Q 2725 213 2448 61 
Q 2172 -91 1784 -91 
Q 1150 -91 751 415 
Q 353 922 353 1747 
Q 353 2572 751 3078 
Q 1150 3584 1784 3584 
Q 2172 3584 2448 3432 
Q 2725 3281 2906 2969 
z
M 947 1747 
Q 947 1113 1208 752 
Q 1469 391 1925 391 
Q 2381 391 2643 752 
Q 2906 1113 2906 1747 
Q 2906 2381 2643 2742 
Q 2381 3103 1925 3103 
Q 1469 3103 1208 2742 
Q 947 2381 947 1747 
z
" transform="scale(0.015625)"/>
       </defs>
       <use xlink:href="#DejaVuSans-6d"/>
       <use xlink:href="#DejaVuSans-79" x="97.412109"/>
       <use xlink:href="#DejaVuSans-6f" x="156.591797"/>
       <use xlink:href="#DejaVuSans-70" x="217.773438"/>
       <use xlink:href="#DejaVuSans-69" x="281.25"/>
       <use xlink:href="#DejaVuSans-63" x="309.033203"/>
       <use xlink:href="#DejaVuSans-2d" x="364.013672"/>
       <use xlink:href="#DejaVuSans-72" x="400.097656"/>
       <use xlink:href="#DejaVuSans-65" x="438.960938"/>
       <use xlink:href="#DejaVuSans-77" x="500.484375"/>
       <use xlink:href="#DejaVuSans-61" x="582.271484"/>
       <use xlink:href="#DejaVuSans-72" x="643.550781"/>
       <use xlink:href="#DejaVuSans-64" x="682.914062"/>
      </g>
     </g>
    </g>
    <g id="xtick_3">
     <g id="line2d_3">
      <g>
       <use xlink:href="#m0288bfe776" x="278.105338" y="314.292007" style="stroke: #000000; stroke-width: 0.8"/>
      </g>
     </g>
     <g id="text_3">
      <!-- coordinate-other-ais -->
      <g transform="translate(227.67565 328.890445) scale(0.1 -0.1)">
       <defs>
        <path id="DejaVuSans-74" d="M 1172 4494 
L 1172 3500 
L 2356 3500 
L 2356 3053 
L 1172 3053 
L 1172 1153 
Q 1172 725 1289 603 
Q 1406 481 1766 481 
L 2356 481 
L 2356 0 
L 1766 0 
Q 1100 0 847 248 
Q 594 497 594 1153 
L 594 3053 
L 172 3053 
L 172 3500 
L 594 3500 
L 594 4494 
L 1172 4494 
z
" transform="scale(0.015625)"/>
       </defs>
       <use xlink:href="#DejaVuSans-63"/>
       <use xlink:href="#DejaVuSans-6f" x="54.980469"/>
       <use xlink:href="#DejaVuSans-6f" x="116.162109"/>
       <use xlink:href="#DejaVuSans-72" x="177.34375"/>
       <use xlink:href="#DejaVuSans-64" x="216.707031"/>
       <use xlink:href="#DejaVuSans-69" x="280.183594"/>
       <use xlink:href="#DejaVuSans-6e" x="307.966797"/>
       <use xlink:href="#DejaVuSans-61" x="371.345703"/>
       <use xlink:href="#DejaVuSans-74" x="432.625"/>
       <use xlink:href="#DejaVuSans-65" x="471.833984"/>
       <use xlink:href="#DejaVuSans-2d" x="533.357422"/>
       <use xlink:href="#DejaVuSans-6f" x="571.316406"/>
       <use xlink:href="#DejaVuSans-74" x="632.498047"/>
       <use xlink:href="#DejaVuSans-68" x="671.707031"/>
       <use xlink:href="#DejaVuSans-65" x="735.085938"/>
       <use xlink:href="#DejaVuSans-72" x="796.609375"/>
       <use xlink:href="#DejaVuSans-2d" x="831.347656"/>
       <use xlink:href="#DejaVuSans-61" x="867.431641"/>
       <use xlink:href="#DejaVuSans-69" x="928.710938"/>
       <use xlink:href="#DejaVuSans-73" x="956.494141"/>
      </g>
     </g>
    </g>
    <g id="xtick_4">
     <g id="line2d_4">
      <g>
       <use xlink:href="#m0288bfe776" x="371.834972" y="314.292007" style="stroke: #000000; stroke-width: 0.8"/>
      </g>
     </g>
     <g id="text_4">
      <!-- survival-instinct -->
      <g transform="translate(332.051379 328.890445) scale(0.1 -0.1)">
       <defs>
        <path id="DejaVuSans-75" d="M 544 1381 
L 544 3500 
L 1119 3500 
L 1119 1403 
Q 1119 906 1312 657 
Q 1506 409 1894 409 
Q 2359 409 2629 706 
Q 2900 1003 2900 1516 
L 2900 3500 
L 3475 3500 
L 3475 0 
L 2900 0 
L 2900 538 
Q 2691 219 2414 64 
Q 2138 -91 1772 -91 
Q 1169 -91 856 284 
Q 544 659 544 1381 
z
M 1991 3584 
L 1991 3584 
z
" transform="scale(0.015625)"/>
        <path id="DejaVuSans-76" d="M 191 3500 
L 800 3500 
L 1894 563 
L 2988 3500 
L 3597 3500 
L 2284 0 
L 1503 0 
L 191 3500 
z
" transform="scale(0.015625)"/>
        <path id="DejaVuSans-6c" d="M 603 4863 
L 1178 4863 
L 1178 0 
L 603 0 
L 603 4863 
z
" transform="scale(0.015625)"/>
       </defs>
       <use xlink:href="#DejaVuSans-73"/>
       <use xlink:href="#DejaVuSans-75" x="52.099609"/>
       <use xlink:href="#DejaVuSans-72" x="115.478516"/>
       <use xlink:href="#DejaVuSans-76" x="156.591797"/>
       <use xlink:href="#DejaVuSans-69" x="215.771484"/>
       <use xlink:href="#DejaVuSans-76" x="243.554688"/>
       <use xlink:href="#DejaVuSans-61" x="302.734375"/>
       <use xlink:href="#DejaVuSans-6c" x="364.013672"/>
       <use xlink:href="#DejaVuSans-2d" x="391.796875"/>
       <use xlink:href="#DejaVuSans-69" x="427.880859"/>
       <use xlink:href="#DejaVuSans-6e" x="455.664062"/>
       <use xlink:href="#DejaVuSans-73" x="519.042969"/>
       <use xlink:href="#DejaVuSans-74" x="571.142578"/>
       <use xlink:href="#DejaVuSans-69" x="610.351562"/>
       <use xlink:href="#DejaVuSans-6e" x="638.134766"/>
       <use xlink:href="#DejaVuSans-63" x="701.513672"/>
       <use xlink:href="#DejaVuSans-74" x="756.494141"/>
      </g>
     </g>
    </g>
    <g id="xtick_5">
     <g id="line2d_5">
      <g>
       <use xlink:href="#m0288bfe776" x="465.564607" y="314.292007" style="stroke: #000000; stroke-width: 0.8"/>
      </g>
     </g>
     <g id="text_5">
      <!-- corrigible-neutral-HHH -->
      <g transform="translate(409.369295 328.890445) scale(0.1 -0.1)">
       <defs>
        <path id="DejaVuSans-67" d="M 2906 1791 
Q 2906 2416 2648 2759 
Q 2391 3103 1925 3103 
Q 1463 3103 1205 2759 
Q 947 2416 947 1791 
Q 947 1169 1205 825 
Q 1463 481 1925 481 
Q 2391 481 2648 825 
Q 2906 1169 2906 1791 
z
M 3481 434 
Q 3481 -459 3084 -895 
Q 2688 -1331 1869 -1331 
Q 1566 -1331 1297 -1286 
Q 1028 -1241 775 -1147 
L 775 -588 
Q 1028 -725 1275 -790 
Q 1522 -856 1778 -856 
Q 2344 -856 2625 -561 
Q 2906 -266 2906 331 
L 2906 616 
Q 2728 306 2450 153 
Q 2172 0 1784 0 
Q 1141 0 747 490 
Q 353 981 353 1791 
Q 353 2603 747 3093 
Q 1141 3584 1784 3584 
Q 2172 3584 2450 3431 
Q 2728 3278 2906 2969 
L 2906 3500 
L 3481 3500 
L 3481 434 
z
" transform="scale(0.015625)"/>
        <path id="DejaVuSans-62" d="M 3116 1747 
Q 3116 2381 2855 2742 
Q 2594 3103 2138 3103 
Q 1681 3103 1420 2742 
Q 1159 2381 1159 1747 
Q 1159 1113 1420 752 
Q 1681 391 2138 391 
Q 2594 391 2855 752 
Q 3116 1113 3116 1747 
z
M 1159 2969 
Q 1341 3281 1617 3432 
Q 1894 3584 2278 3584 
Q 2916 3584 3314 3078 
Q 3713 2572 3713 1747 
Q 3713 922 3314 415 
Q 2916 -91 2278 -91 
Q 1894 -91 1617 61 
Q 1341 213 1159 525 
L 1159 0 
L 581 0 
L 581 4863 
L 1159 4863 
L 1159 2969 
z
" transform="scale(0.015625)"/>
        <path id="DejaVuSans-48" d="M 628 4666 
L 1259 4666 
L 1259 2753 
L 3553 2753 
L 3553 4666 
L 4184 4666 
L 4184 0 
L 3553 0 
L 3553 2222 
L 1259 2222 
L 1259 0 
L 628 0 
L 628 4666 
z
" transform="scale(0.015625)"/>
       </defs>
       <use xlink:href="#DejaVuSans-63"/>
       <use xlink:href="#DejaVuSans-6f" x="54.980469"/>
       <use xlink:href="#DejaVuSans-72" x="116.162109"/>
       <use xlink:href="#DejaVuSans-72" x="155.525391"/>
       <use xlink:href="#DejaVuSans-69" x="196.638672"/>
       <use xlink:href="#DejaVuSans-67" x="224.421875"/>
       <use xlink:href="#DejaVuSans-69" x="287.898438"/>
       <use xlink:href="#DejaVuSans-62" x="315.681641"/>
       <use xlink:href="#DejaVuSans-6c" x="379.158203"/>
       <use xlink:href="#DejaVuSans-65" x="406.941406"/>
       <use xlink:href="#DejaVuSans-2d" x="468.464844"/>
       <use xlink:href="#DejaVuSans-6e" x="504.548828"/>
       <use xlink:href="#DejaVuSans-65" x="567.927734"/>
       <use xlink:href="#DejaVuSans-75" x="629.451172"/>
       <use xlink:href="#DejaVuSans-74" x="692.830078"/>
       <use xlink:href="#DejaVuSans-72" x="732.039062"/>
       <use xlink:href="#DejaVuSans-61" x="773.152344"/>
       <use xlink:href="#DejaVuSans-6c" x="834.431641"/>
       <use xlink:href="#DejaVuSans-2d" x="862.214844"/>
       <use xlink:href="#DejaVuSans-48" x="898.298828"/>
       <use xlink:href="#DejaVuSans-48" x="973.494141"/>
       <use xlink:href="#DejaVuSans-48" x="1048.689453"/>
      </g>
     </g>
    </g>
    <g id="xtick_6">
     <g id="line2d_6">
      <g>
       <use xlink:href="#m0288bfe776" x="559.294242" y="314.292007" style="stroke: #000000; stroke-width: 0.8"/>
      </g>
     </g>
     <g id="text_6">
      <!-- refusal -->
      <g transform="translate(542.287992 328.890445) scale(0.1 -0.1)">
       <defs>
        <path id="DejaVuSans-66" d="M 2375 4863 
L 2375 4384 
L 1825 4384 
Q 1516 4384 1395 4259 
Q 1275 4134 1275 3809 
L 1275 3500 
L 2222 3500 
L 2222 3053 
L 1275 3053 
L 1275 0 
L 697 0 
L 697 3053 
L 147 3053 
L 147 3500 
L 697 3500 
L 697 3744 
Q 697 4328 969 4595 
Q 1241 4863 1831 4863 
L 2375 4863 
z
" transform="scale(0.015625)"/>
       </defs>
       <use xlink:href="#DejaVuSans-72"/>
       <use xlink:href="#DejaVuSans-65" x="38.863281"/>
       <use xlink:href="#DejaVuSans-66" x="100.386719"/>
       <use xlink:href="#DejaVuSans-75" x="135.591797"/>
       <use xlink:href="#DejaVuSans-73" x="198.970703"/>
       <use xlink:href="#DejaVuSans-61" x="251.070312"/>
       <use xlink:href="#DejaVuSans-6c" x="312.349609"/>
      </g>
     </g>
    </g>
    <g id="xtick_7">
     <g id="line2d_7">
      <g>
       <use xlink:href="#m0288bfe776" x="653.023878" y="314.292007" style="stroke: #000000; stroke-width: 0.8"/>
      </g>
     </g>
     <g id="text_7">
      <!-- hallucination -->
      <g transform="translate(620.895753 328.890445) scale(0.1 -0.1)">
       <use xlink:href="#DejaVuSans-68"/>
       <use xlink:href="#DejaVuSans-61" x="63.378906"/>
       <use xlink:href="#DejaVuSans-6c" x="124.658203"/>
       <use xlink:href="#DejaVuSans-6c" x="152.441406"/>
       <use xlink:href="#DejaVuSans-75" x="180.224609"/>
       <use xlink:href="#DejaVuSans-63" x="243.603516"/>
       <use xlink:href="#DejaVuSans-69" x="298.583984"/>
       <use xlink:href="#DejaVuSans-6e" x="326.367188"/>
       <use xlink:href="#DejaVuSans-61" x="389.746094"/>
       <use xlink:href="#DejaVuSans-74" x="451.025391"/>
       <use xlink:href="#DejaVuSans-69" x="490.234375"/>
       <use xlink:href="#DejaVuSans-6f" x="518.017578"/>
       <use xlink:href="#DejaVuSans-6e" x="579.199219"/>
      </g>
     </g>
    </g>
    <g id="text_8">
     <!-- Behaviour -->
     <g transform="translate(346.463098 342.56857) scale(0.1 -0.1)">
      <defs>
       <path id="DejaVuSans-42" d="M 1259 2228 
L 1259 519 
L 2272 519 
Q 2781 519 3026 730 
Q 3272 941 3272 1375 
Q 3272 1813 3026 2020 
Q 2781 2228 2272 2228 
L 1259 2228 
z
M 1259 4147 
L 1259 2741 
L 2194 2741 
Q 2656 2741 2882 2914 
Q 3109 3088 3109 3444 
Q 3109 3797 2882 3972 
Q 2656 4147 2194 4147 
L 1259 4147 
z
M 628 4666 
L 2241 4666 
Q 2963 4666 3353 4366 
Q 3744 4066 3744 3513 
Q 3744 3084 3544 2831 
Q 3344 2578 2956 2516 
Q 3422 2416 3680 2098 
Q 3938 1781 3938 1306 
Q 3938 681 3513 340 
Q 3088 0 2303 0 
L 628 0 
L 628 4666 
z
" transform="scale(0.015625)"/>
      </defs>
      <use xlink:href="#DejaVuSans-42"/>
      <use xlink:href="#DejaVuSans-65" x="68.603516"/>
      <use xlink:href="#DejaVuSans-68" x="130.126953"/>
      <use xlink:href="#DejaVuSans-61" x="193.505859"/>
      <use xlink:href="#DejaVuSans-76" x="254.785156"/>
      <use xlink:href="#DejaVuSans-69" x="313.964844"/>
      <use xlink:href="#DejaVuSans-6f" x="341.748047"/>
      <use xlink:href="#DejaVuSans-75" x="402.929688"/>
      <use xlink:href="#DejaVuSans-72" x="466.308594"/>
     </g>
    </g>
   </g>
   <g id="matplotlib.axis_2">
    <g id="ytick_1">
     <g id="line2d_8">
      <defs>
       <path id="m0fa95e31be" d="M 0 0 
L -3.5 0 
" style="stroke: #000000; stroke-width: 0.8"/>
      </defs>
      <g>
       <use xlink:href="#m0fa95e31be" x="43.78125" y="314.292007" style="stroke: #000000; stroke-width: 0.8"/>
      </g>
     </g>
     <g id="text_9">
      <!-- 0.0 -->
      <g transform="translate(20.878125 318.091226) scale(0.1 -0.1)">
       <defs>
        <path id="DejaVuSans-30" d="M 2034 4250 
Q 1547 4250 1301 3770 
Q 1056 3291 1056 2328 
Q 1056 1369 1301 889 
Q 1547 409 2034 409 
Q 2525 409 2770 889 
Q 3016 1369 3016 2328 
Q 3016 3291 2770 3770 
Q 2525 4250 2034 4250 
z
M 2034 4750 
Q 2819 4750 3233 4129 
Q 3647 3509 3647 2328 
Q 3647 1150 3233 529 
Q 2819 -91 2034 -91 
Q 1250 -91 836 529 
Q 422 1150 422 2328 
Q 422 3509 836 4129 
Q 1250 4750 2034 4750 
z
" transform="scale(0.015625)"/>
        <path id="DejaVuSans-2e" d="M 684 794 
L 1344 794 
L 1344 0 
L 684 0 
L 684 794 
z
" transform="scale(0.015625)"/>
       </defs>
       <use xlink:href="#DejaVuSans-30"/>
       <use xlink:href="#DejaVuSans-2e" x="63.623047"/>
       <use xlink:href="#DejaVuSans-30" x="95.410156"/>
      </g>
     </g>
    </g>
    <g id="ytick_2">
     <g id="line2d_9">
      <g>
       <use xlink:href="#m0fa95e31be" x="43.78125" y="253.63345" style="stroke: #000000; stroke-width: 0.8"/>
      </g>
     </g>
     <g id="text_10">
      <!-- 0.1 -->
      <g transform="translate(20.878125 257.432668) scale(0.1 -0.1)">
       <defs>
        <path id="DejaVuSans-31" d="M 794 531 
L 1825 531 
L 1825 4091 
L 703 3866 
L 703 4441 
L 1819 4666 
L 2450 4666 
L 2450 531 
L 3481 531 
L 3481 0 
L 794 0 
L 794 531 
z
" transform="scale(0.015625)"/>
       </defs>
       <use xlink:href="#DejaVuSans-30"/>
       <use xlink:href="#DejaVuSans-2e" x="63.623047"/>
       <use xlink:href="#DejaVuSans-31" x="95.410156"/>
      </g>
     </g>
    </g>
    <g id="ytick_3">
     <g id="line2d_10">
      <g>
       <use xlink:href="#m0fa95e31be" x="43.78125" y="192.974892" style="stroke: #000000; stroke-width: 0.8"/>
      </g>
     </g>
     <g id="text_11">
      <!-- 0.2 -->
      <g transform="translate(20.878125 196.774111) scale(0.1 -0.1)">
       <defs>
        <path id="DejaVuSans-32" d="M 1228 531 
L 3431 531 
L 3431 0 
L 469 0 
L 469 531 
Q 828 903 1448 1529 
Q 2069 2156 2228 2338 
Q 2531 2678 2651 2914 
Q 2772 3150 2772 3378 
Q 2772 3750 2511 3984 
Q 2250 4219 1831 4219 
Q 1534 4219 1204 4116 
Q 875 4013 500 3803 
L 500 4441 
Q 881 4594 1212 4672 
Q 1544 4750 1819 4750 
Q 2544 4750 2975 4387 
Q 3406 4025 3406 3419 
Q 3406 3131 3298 2873 
Q 3191 2616 2906 2266 
Q 2828 2175 2409 1742 
Q 1991 1309 1228 531 
z
" transform="scale(0.015625)"/>
       </defs>
       <use xlink:href="#DejaVuSans-30"/>
       <use xlink:href="#DejaVuSans-2e" x="63.623047"/>
       <use xlink:href="#DejaVuSans-32" x="95.410156"/>
      </g>
     </g>
    </g>
    <g id="ytick_4">
     <g id="line2d_11">
      <g>
       <use xlink:href="#m0fa95e31be" x="43.78125" y="132.316334" style="stroke: #000000; stroke-width: 0.8"/>
      </g>
     </g>
     <g id="text_12">
      <!-- 0.3 -->
      <g transform="translate(20.878125 136.115553) scale(0.1 -0.1)">
       <defs>
        <path id="DejaVuSans-33" d="M 2597 2516 
Q 3050 2419 3304 2112 
Q 3559 1806 3559 1356 
Q 3559 666 3084 287 
Q 2609 -91 1734 -91 
Q 1441 -91 1130 -33 
Q 819 25 488 141 
L 488 750 
Q 750 597 1062 519 
Q 1375 441 1716 441 
Q 2309 441 2620 675 
Q 2931 909 2931 1356 
Q 2931 1769 2642 2001 
Q 2353 2234 1838 2234 
L 1294 2234 
L 1294 2753 
L 1863 2753 
Q 2328 2753 2575 2939 
Q 2822 3125 2822 3475 
Q 2822 3834 2567 4026 
Q 2313 4219 1838 4219 
Q 1578 4219 1281 4162 
Q 984 4106 628 3988 
L 628 4550 
Q 988 4650 1302 4700 
Q 1616 4750 1894 4750 
Q 2613 4750 3031 4423 
Q 3450 4097 3450 3541 
Q 3450 3153 3228 2886 
Q 3006 2619 2597 2516 
z
" transform="scale(0.015625)"/>
       </defs>
       <use xlink:href="#DejaVuSans-30"/>
       <use xlink:href="#DejaVuSans-2e" x="63.623047"/>
       <use xlink:href="#DejaVuSans-33" x="95.410156"/>
      </g>
     </g>
    </g>
    <g id="ytick_5">
     <g id="line2d_12">
      <g>
       <use xlink:href="#m0fa95e31be" x="43.78125" y="71.657776" style="stroke: #000000; stroke-width: 0.8"/>
      </g>
     </g>
     <g id="text_13">
      <!-- 0.4 -->
      <g transform="translate(20.878125 75.456995) scale(0.1 -0.1)">
       <defs>
        <path id="DejaVuSans-34" d="M 2419 4116 
L 825 1625 
L 2419 1625 
L 2419 4116 
z
M 2253 4666 
L 3047 4666 
L 3047 1625 
L 3713 1625 
L 3713 1100 
L 3047 1100 
L 3047 0 
L 2419 0 
L 2419 1100 
L 313 1100 
L 313 1709 
L 2253 4666 
z
" transform="scale(0.015625)"/>
       </defs>
       <use xlink:href="#DejaVuSans-30"/>
       <use xlink:href="#DejaVuSans-2e" x="63.623047"/>
       <use xlink:href="#DejaVuSans-34" x="95.410156"/>
      </g>
     </g>
    </g>
    <g id="ytick_6">
     <g id="line2d_13">
      <g>
       <use xlink:href="#m0fa95e31be" x="43.78125" y="10.999219" style="stroke: #000000; stroke-width: 0.8"/>
      </g>
     </g>
     <g id="text_14">
      <!-- 0.5 -->
      <g transform="translate(20.878125 14.798437) scale(0.1 -0.1)">
       <defs>
        <path id="DejaVuSans-35" d="M 691 4666 
L 3169 4666 
L 3169 4134 
L 1269 4134 
L 1269 2991 
Q 1406 3038 1543 3061 
Q 1681 3084 1819 3084 
Q 2600 3084 3056 2656 
Q 3513 2228 3513 1497 
Q 3513 744 3044 326 
Q 2575 -91 1722 -91 
Q 1428 -91 1123 -41 
Q 819 9 494 109 
L 494 744 
Q 775 591 1075 516 
Q 1375 441 1709 441 
Q 2250 441 2565 725 
Q 2881 1009 2881 1497 
Q 2881 1984 2565 2268 
Q 2250 2553 1709 2553 
Q 1456 2553 1204 2497 
Q 953 2441 691 2322 
L 691 4666 
z
" transform="scale(0.015625)"/>
       </defs>
       <use xlink:href="#DejaVuSans-30"/>
       <use xlink:href="#DejaVuSans-2e" x="63.623047"/>
       <use xlink:href="#DejaVuSans-35" x="95.410156"/>
      </g>
     </g>
    </g>
    <g id="text_15">
     <!-- Maximum behavior % difference -->
     <g transform="translate(14.798438 243.779804) rotate(-90) scale(0.1 -0.1)">
      <defs>
       <path id="DejaVuSans-4d" d="M 628 4666 
L 1569 4666 
L 2759 1491 
L 3956 4666 
L 4897 4666 
L 4897 0 
L 4281 0 
L 4281 4097 
L 3078 897 
L 2444 897 
L 1241 4097 
L 1241 0 
L 628 0 
L 628 4666 
z
" transform="scale(0.015625)"/>
       <path id="DejaVuSans-78" d="M 3513 3500 
L 2247 1797 
L 3578 0 
L 2900 0 
L 1881 1375 
L 863 0 
L 184 0 
L 1544 1831 
L 300 3500 
L 978 3500 
L 1906 2253 
L 2834 3500 
L 3513 3500 
z
" transform="scale(0.015625)"/>
       <path id="DejaVuSans-20" transform="scale(0.015625)"/>
       <path id="DejaVuSans-25" d="M 4653 2053 
Q 4381 2053 4226 1822 
Q 4072 1591 4072 1178 
Q 4072 772 4226 539 
Q 4381 306 4653 306 
Q 4919 306 5073 539 
Q 5228 772 5228 1178 
Q 5228 1588 5073 1820 
Q 4919 2053 4653 2053 
z
M 4653 2450 
Q 5147 2450 5437 2106 
Q 5728 1763 5728 1178 
Q 5728 594 5436 251 
Q 5144 -91 4653 -91 
Q 4153 -91 3862 251 
Q 3572 594 3572 1178 
Q 3572 1766 3864 2108 
Q 4156 2450 4653 2450 
z
M 1428 4353 
Q 1159 4353 1004 4120 
Q 850 3888 850 3481 
Q 850 3069 1003 2837 
Q 1156 2606 1428 2606 
Q 1700 2606 1854 2837 
Q 2009 3069 2009 3481 
Q 2009 3884 1853 4118 
Q 1697 4353 1428 4353 
z
M 4250 4750 
L 4750 4750 
L 1831 -91 
L 1331 -91 
L 4250 4750 
z
M 1428 4750 
Q 1922 4750 2215 4408 
Q 2509 4066 2509 3481 
Q 2509 2891 2217 2550 
Q 1925 2209 1428 2209 
Q 931 2209 642 2551 
Q 353 2894 353 3481 
Q 353 4063 643 4406 
Q 934 4750 1428 4750 
z
" transform="scale(0.015625)"/>
      </defs>
      <use xlink:href="#DejaVuSans-4d"/>
      <use xlink:href="#DejaVuSans-61" x="86.279297"/>
      <use xlink:href="#DejaVuSans-78" x="147.558594"/>
      <use xlink:href="#DejaVuSans-69" x="206.738281"/>
      <use xlink:href="#DejaVuSans-6d" x="234.521484"/>
      <use xlink:href="#DejaVuSans-75" x="331.933594"/>
      <use xlink:href="#DejaVuSans-6d" x="395.3125"/>
      <use xlink:href="#DejaVuSans-20" x="492.724609"/>
      <use xlink:href="#DejaVuSans-62" x="524.511719"/>
      <use xlink:href="#DejaVuSans-65" x="587.988281"/>
      <use xlink:href="#DejaVuSans-68" x="649.511719"/>
      <use xlink:href="#DejaVuSans-61" x="712.890625"/>
      <use xlink:href="#DejaVuSans-76" x="774.169922"/>
      <use xlink:href="#DejaVuSans-69" x="833.349609"/>
      <use xlink:href="#DejaVuSans-6f" x="861.132812"/>
      <use xlink:href="#DejaVuSans-72" x="922.314453"/>
      <use xlink:href="#DejaVuSans-20" x="963.427734"/>
      <use xlink:href="#DejaVuSans-25" x="995.214844"/>
      <use xlink:href="#DejaVuSans-20" x="1090.234375"/>
      <use xlink:href="#DejaVuSans-64" x="1122.021484"/>
      <use xlink:href="#DejaVuSans-69" x="1185.498047"/>
      <use xlink:href="#DejaVuSans-66" x="1213.28125"/>
      <use xlink:href="#DejaVuSans-66" x="1248.486328"/>
      <use xlink:href="#DejaVuSans-65" x="1283.691406"/>
      <use xlink:href="#DejaVuSans-72" x="1345.214844"/>
      <use xlink:href="#DejaVuSans-65" x="1384.078125"/>
      <use xlink:href="#DejaVuSans-6e" x="1445.601562"/>
      <use xlink:href="#DejaVuSans-63" x="1508.980469"/>
      <use xlink:href="#DejaVuSans-65" x="1563.960938"/>
     </g>
    </g>
   </g>
   <g id="patch_27">
    <path d="M 43.78125 314.292007 
L 43.78125 10.7176 
" style="fill: none; stroke: #000000; stroke-width: 0.8; stroke-linejoin: miter; stroke-linecap: square"/>
   </g>
   <g id="patch_28">
    <path d="M 43.78125 314.292007 
L 699.888695 314.292007 
" style="fill: none; stroke: #000000; stroke-width: 0.8; stroke-linejoin: miter; stroke-linecap: square"/>
   </g>
  </g>
  <g id="legend_1">
   <g id="text_16">
    <!-- Addition -->
    <g transform="translate(743.65437 156.666316) scale(0.1 -0.1)">
     <defs>
      <path id="DejaVuSans-41" d="M 2188 4044 
L 1331 1722 
L 3047 1722 
L 2188 4044 
z
M 1831 4666 
L 2547 4666 
L 4325 0 
L 3669 0 
L 3244 1197 
L 1141 1197 
L 716 0 
L 50 0 
L 1831 4666 
z
" transform="scale(0.015625)"/>
     </defs>
     <use xlink:href="#DejaVuSans-41"/>
     <use xlink:href="#DejaVuSans-64" x="66.658203"/>
     <use xlink:href="#DejaVuSans-64" x="130.134766"/>
     <use xlink:href="#DejaVuSans-69" x="193.611328"/>
     <use xlink:href="#DejaVuSans-74" x="221.394531"/>
     <use xlink:href="#DejaVuSans-69" x="260.603516"/>
     <use xlink:href="#DejaVuSans-6f" x="288.386719"/>
     <use xlink:href="#DejaVuSans-6e" x="349.568359"/>
    </g>
   </g>
   <g id="patch_29">
    <path d="M 709.509057 171.344441 
L 729.509057 171.344441 
L 729.509057 164.344441 
L 709.509057 164.344441 
z
" style="fill: #3274a1"/>
   </g>
   <g id="text_17">
    <!-- Residual Stream -->
    <g transform="translate(737.509057 171.344441) scale(0.1 -0.1)">
     <defs>
      <path id="DejaVuSans-52" d="M 2841 2188 
Q 3044 2119 3236 1894 
Q 3428 1669 3622 1275 
L 4263 0 
L 3584 0 
L 2988 1197 
Q 2756 1666 2539 1819 
Q 2322 1972 1947 1972 
L 1259 1972 
L 1259 0 
L 628 0 
L 628 4666 
L 2053 4666 
Q 2853 4666 3247 4331 
Q 3641 3997 3641 3322 
Q 3641 2881 3436 2590 
Q 3231 2300 2841 2188 
z
M 1259 4147 
L 1259 2491 
L 2053 2491 
Q 2509 2491 2742 2702 
Q 2975 2913 2975 3322 
Q 2975 3731 2742 3939 
Q 2509 4147 2053 4147 
L 1259 4147 
z
" transform="scale(0.015625)"/>
      <path id="DejaVuSans-53" d="M 3425 4513 
L 3425 3897 
Q 3066 4069 2747 4153 
Q 2428 4238 2131 4238 
Q 1616 4238 1336 4038 
Q 1056 3838 1056 3469 
Q 1056 3159 1242 3001 
Q 1428 2844 1947 2747 
L 2328 2669 
Q 3034 2534 3370 2195 
Q 3706 1856 3706 1288 
Q 3706 609 3251 259 
Q 2797 -91 1919 -91 
Q 1588 -91 1214 -16 
Q 841 59 441 206 
L 441 856 
Q 825 641 1194 531 
Q 1563 422 1919 422 
Q 2459 422 2753 634 
Q 3047 847 3047 1241 
Q 3047 1584 2836 1778 
Q 2625 1972 2144 2069 
L 1759 2144 
Q 1053 2284 737 2584 
Q 422 2884 422 3419 
Q 422 4038 858 4394 
Q 1294 4750 2059 4750 
Q 2388 4750 2728 4690 
Q 3069 4631 3425 4513 
z
" transform="scale(0.015625)"/>
     </defs>
     <use xlink:href="#DejaVuSans-52"/>
     <use xlink:href="#DejaVuSans-65" x="64.982422"/>
     <use xlink:href="#DejaVuSans-73" x="126.505859"/>
     <use xlink:href="#DejaVuSans-69" x="178.605469"/>
     <use xlink:href="#DejaVuSans-64" x="206.388672"/>
     <use xlink:href="#DejaVuSans-75" x="269.865234"/>
     <use xlink:href="#DejaVuSans-61" x="333.244141"/>
     <use xlink:href="#DejaVuSans-6c" x="394.523438"/>
     <use xlink:href="#DejaVuSans-20" x="422.306641"/>
     <use xlink:href="#DejaVuSans-53" x="454.09375"/>
     <use xlink:href="#DejaVuSans-74" x="517.570312"/>
     <use xlink:href="#DejaVuSans-72" x="556.779297"/>
     <use xlink:href="#DejaVuSans-65" x="595.642578"/>
     <use xlink:href="#DejaVuSans-61" x="657.166016"/>
     <use xlink:href="#DejaVuSans-6d" x="718.445312"/>
    </g>
   </g>
   <g id="patch_30">
    <path d="M 709.509057 186.022566 
L 729.509057 186.022566 
L 729.509057 179.022566 
L 709.509057 179.022566 
z
" style="fill: #e1812c"/>
   </g>
   <g id="text_18">
    <!-- Internal State -->
    <g transform="translate(737.509057 186.022566) scale(0.1 -0.1)">
     <defs>
      <path id="DejaVuSans-49" d="M 628 4666 
L 1259 4666 
L 1259 0 
L 628 0 
L 628 4666 
z
" transform="scale(0.015625)"/>
     </defs>
     <use xlink:href="#DejaVuSans-49"/>
     <use xlink:href="#DejaVuSans-6e" x="29.492188"/>
     <use xlink:href="#DejaVuSans-74" x="92.871094"/>
     <use xlink:href="#DejaVuSans-65" x="132.080078"/>
     <use xlink:href="#DejaVuSans-72" x="193.603516"/>
     <use xlink:href="#DejaVuSans-6e" x="232.966797"/>
     <use xlink:href="#DejaVuSans-61" x="296.345703"/>
     <use xlink:href="#DejaVuSans-6c" x="357.625"/>
     <use xlink:href="#DejaVuSans-20" x="385.408203"/>
     <use xlink:href="#DejaVuSans-53" x="417.195312"/>
     <use xlink:href="#DejaVuSans-74" x="480.671875"/>
     <use xlink:href="#DejaVuSans-61" x="519.880859"/>
     <use xlink:href="#DejaVuSans-74" x="581.160156"/>
     <use xlink:href="#DejaVuSans-65" x="620.369141"/>
    </g>
   </g>
   <g id="patch_31">
    <path d="M 709.509057 200.700691 
L 729.509057 200.700691 
L 729.509057 193.700691 
L 709.509057 193.700691 
z
" style="fill: #3a923a"/>
   </g>
   <g id="text_19">
    <!-- Steering both -->
    <g transform="translate(737.509057 200.700691) scale(0.1 -0.1)">
     <use xlink:href="#DejaVuSans-53"/>
     <use xlink:href="#DejaVuSans-74" x="63.476562"/>
     <use xlink:href="#DejaVuSans-65" x="102.685547"/>
     <use xlink:href="#DejaVuSans-65" x="164.208984"/>
     <use xlink:href="#DejaVuSans-72" x="225.732422"/>
     <use xlink:href="#DejaVuSans-69" x="266.845703"/>
     <use xlink:href="#DejaVuSans-6e" x="294.628906"/>
     <use xlink:href="#DejaVuSans-67" x="358.007812"/>
     <use xlink:href="#DejaVuSans-20" x="421.484375"/>
     <use xlink:href="#DejaVuSans-62" x="453.271484"/>
     <use xlink:href="#DejaVuSans-6f" x="516.748047"/>
     <use xlink:href="#DejaVuSans-74" x="577.929688"/>
     <use xlink:href="#DejaVuSans-68" x="617.138672"/>
    </g>
   </g>
  </g>
 </g>
 <defs>
  <clipPath id="p0a97991a33">
   <rect x="43.78125" y="10.7176" width="656.107445" height="303.574408"/>
  </clipPath>
 </defs>
</svg>
